<?xml version="1.0" encoding="utf-8"?>
<!-- Generator: Adobe Illustrator 21.1.0, SVG Export Plug-In . SVG Version: 6.00 Build 0)  -->
<svg version="1.1" xmlns="http://www.w3.org/2000/svg" xmlns:xlink="http://www.w3.org/1999/xlink" x="0px" y="0px"
	 viewBox="0 0 300.7 400.7" style="enable-background:new 0 0 300.7 400.7;" xml:space="preserve">
<style type="text/css">
	.st0{fill:url(#SVGID_1_);}
	.st1{fill:url(#SVGID_2_);}
	.st2{fill:#FFFFFF;}
	.st3{fill:url(#SVGID_3_);}
	.st4{fill:url(#SVGID_4_);}
	.st5{fill:url(#SVGID_5_);}
	.st6{fill:url(#SVGID_6_);}
	.st7{fill:url(#SVGID_7_);}
	.st8{fill:url(#SVGID_8_);}
	.st9{fill:url(#SVGID_9_);}
	.st10{fill:url(#SVGID_10_);}
	.st11{fill:url(#SVGID_11_);}
	.st12{fill:url(#SVGID_12_);}
	.st13{fill:url(#SVGID_13_);}
	.st14{fill:url(#SVGID_14_);}
	.st15{fill:url(#SVGID_15_);}
	.st16{fill:url(#SVGID_16_);}
	.st17{fill:url(#SVGID_17_);}
	.st18{fill:url(#SVGID_18_);}
	.st19{fill:url(#SVGID_19_);}
	.st20{fill:url(#SVGID_20_);}
	.st21{fill:url(#SVGID_21_);}
	.st22{fill:url(#SVGID_22_);}
	.st23{fill:url(#SVGID_23_);}
	.st24{fill:url(#SVGID_24_);}
</style>
<g id="Layer_2">
	<g>
		<g>
			<g id="Layer_1_3_">
				
					<linearGradient id="SVGID_1_" gradientUnits="userSpaceOnUse" x1="2392.4751" y1="5492.8188" x2="2463.114" y2="5563.4624" gradientTransform="matrix(1 0 0 -1 -2277.1001 5578.6396)">
					<stop  offset="0" style="stop-color:#FF3D98"/>
					<stop  offset="1" style="stop-color:#FFBAE3"/>
				</linearGradient>
				<path class="st0" d="M175.1,4.4c-2.1-2-6.1-3.7-9-3.7h-30.9c-2.9,0-7,1.7-9,3.7l-21.9,21.8c-2,2-3.7,6.1-3.7,8.9v30.7
					c0,2.9,1.7,6.9,3.7,9l21.9,21.7c2.1,2,6.1,3.7,9,3.7h30.9c2.9,0,7-1.7,9-3.7L197,74.8c2.1-2,3.7-6.1,3.7-9V35.1
					c0-2.9-1.7-6.9-3.7-9L175.1,4.4z"/>
				
					<linearGradient id="SVGID_2_" gradientUnits="userSpaceOnUse" x1="1719.6235" y1="7952.1919" x2="1664.2659" y2="7896.834" gradientTransform="matrix(-1 0 0 1 1842.6334 -7874.02)">
					<stop  offset="0" style="stop-color:#FFBAE3"/>
					<stop  offset="1" style="stop-color:#FF3D98"/>
				</linearGradient>
				<path class="st1" d="M130.7,85.8c2.1,2,6.1,3.7,9,3.7h21.9c2.9,0,7-1.7,9-3.7l15.5-15.4c2.1-2,3.7-6.1,3.7-9V39.6
					c0-2.9-1.7-6.9-3.7-9l-15.5-15.4c-2.1-2-6.1-3.7-9-3.7h-21.9c-2.9,0-7,1.7-9,3.7l-15.5,15.4c-2.1,2-3.7,6.1-3.7,9v21.8
					c0,2.9,1.7,6.9,3.7,9L130.7,85.8z"/>
				<path class="st2" d="M149,69.5c-6.3,0-12.1-3.1-15.7-8.2c-0.2-0.3-0.1-0.7,0.2-1c0.2-0.1,0.5-0.2,0.7,0c2.2,1.2,4.6,1.8,7.1,1.8
					c7.4,0,13.4-5.2,13.4-11.7s-6-11.7-13.4-11.7c-2.5,0-4.9,0.6-7.1,1.8c-0.3,0.2-0.8,0-0.9-0.3c-0.1-0.2-0.1-0.5,0-0.7
					c6.1-8.6,18-10.7,26.6-4.7c8.7,6,10.8,17.9,4.7,26.5C161.1,66.5,155.3,69.6,149,69.5L149,69.5z M136.2,62.8
					c6.8,7,18,7.3,25.1,0.5c7.1-6.8,7.3-18,0.5-25s-18-7.3-25.1-0.5c-0.2,0.2-0.3,0.3-0.5,0.5c1.7-0.5,3.4-0.8,5.1-0.8
					c8.2,0,14.8,5.9,14.8,13.1s-6.6,13.1-14.8,13.1C139.6,63.6,137.9,63.3,136.2,62.8z"/>
			</g>
		</g>
	</g>
	<g>
		<g id="Layer_1_4_">
			
				<linearGradient id="SVGID_3_" gradientUnits="userSpaceOnUse" x1="-1297.5527" y1="3431.8682" x2="-1226.8857" y2="3502.5398" gradientTransform="matrix(1 0 0 -1 1412.8199 3617.4995)">
				<stop  offset="0" style="stop-color:#FF3D98"/>
				<stop  offset="1" style="stop-color:#FFBAE3"/>
			</linearGradient>
			<path class="st3" d="M175,104c-2-2.1-6.1-3.7-9-3.7h-30.8c-2.9,0-6.9,1.7-9,3.7l-21.8,21.9c-2,2-3.7,6.1-3.7,9v30.9
				c0,2.9,1.7,7,3.7,9l21.8,21.8c2,2.1,6.1,3.7,9,3.7H166c2.9,0,6.9-1.7,9-3.7l21.8-21.8c2-2.1,3.7-6.1,3.7-9v-30.9
				c0-2.9-1.7-7-3.7-9L175,104z"/>
			
				<linearGradient id="SVGID_4_" gradientUnits="userSpaceOnUse" x1="4865.6646" y1="10013.1465" x2="4810.2759" y2="9957.7529" gradientTransform="matrix(-1 0 0 1 4988.5537 -9835.1602)">
				<stop  offset="0" style="stop-color:#FFBAE3"/>
				<stop  offset="1" style="stop-color:#FF3D98"/>
			</linearGradient>
			<path class="st4" d="M130.7,185.8c2,2.1,6.1,3.7,9,3.7h21.9c2.9,0,6.9-1.7,9-3.7l15.5-15.5c2-2.1,3.7-6.1,3.7-9v-21.9
				c0-2.9-1.7-7-3.7-9l-15.5-15.5c-2-2.1-6.1-3.7-9-3.7h-21.9c-2.9,0-7,1.7-9,3.7l-15.5,15.5c-2,2.1-3.7,6.1-3.7,9v21.9
				c0,2.9,1.7,7,3.7,9L130.7,185.8z"/>
			<path class="st2" d="M175.7,149.6h-7.5c-0.2-4.2-1.8-8.2-4.7-11.3l5.3-5.3c0.3-0.3,0.3-0.7,0-1c-0.3-0.3-0.7-0.3-1,0l-5.3,5.3
				c-3.1-2.9-7.1-4.5-11.3-4.7v-7.5c0-0.4-0.3-0.7-0.7-0.7s-0.7,0.3-0.7,0.7l0,0v7.5c-4.2,0.2-8.2,1.8-11.3,4.7l-5.3-5.3
				c-0.3-0.3-0.7-0.3-1,0c-0.3,0.3-0.3,0.7,0,1l5.3,5.3c-2.9,3.1-4.5,7.1-4.7,11.3h-7.5c-0.4,0-0.7,0.3-0.7,0.7
				c0,0.4,0.3,0.7,0.7,0.7l0,0h7.5c0.2,4.2,1.8,8.2,4.7,11.3l-5.3,5.3c-0.3,0.3-0.3,0.7,0,1c0.1,0.1,0.3,0.2,0.5,0.2
				c0.2,0,0.3-0.1,0.5-0.2l5.3-5.3c3.1,2.9,7.1,4.5,11.3,4.7v7.5c0,0.4,0.3,0.7,0.7,0.7s0.7-0.3,0.7-0.7v-7.5
				c4.2-0.2,8.2-1.8,11.3-4.7l5.3,5.3c0.3,0.3,0.7,0.3,1,0c0.3-0.3,0.3-0.7,0-1l-5.3-5.3c2.9-3.1,4.5-7.1,4.7-11.3h7.5
				c0.4,0,0.7-0.3,0.7-0.7C176.4,149.9,176.1,149.6,175.7,149.6L175.7,149.6z M150.6,166.6c-9,0-16.3-7.3-16.3-16.3
				c0-9,7.3-16.3,16.3-16.3c9,0,16.3,7.3,16.3,16.3C166.8,159.3,159.6,166.6,150.6,166.6z"/>
		</g>
	</g>
	<g>
		<g id="Layer_1_5_">
			
				<linearGradient id="SVGID_5_" gradientUnits="userSpaceOnUse" x1="2492.3906" y1="5583.0713" x2="2563.2217" y2="5653.9067" gradientTransform="matrix(1 0 0 -1 -2277.1001 5668.6396)">
				<stop  offset="0" style="stop-color:#FF8800"/>
				<stop  offset="1" style="stop-color:#FFCC00"/>
			</linearGradient>
			<path class="st5" d="M275.1,3.7c-2.1-2.1-6.1-3.7-9-3.7h-30.9c-2.9,0-7,1.7-9,3.7l-21.9,21.9c-2,2-3.7,6.1-3.7,9v31
				c0,2.9,1.7,7,3.7,9l21.9,21.9c2.1,2.1,6.1,3.7,9,3.7h30.9c2.9,0,7-1.7,9-3.7l21.8-21.9c2.1-2.1,3.7-6.1,3.7-9v-31
				c0-2.9-1.7-7-3.7-9L275.1,3.7z"/>
			
				<linearGradient id="SVGID_6_" gradientUnits="userSpaceOnUse" x1="3027.7034" y1="7861.9233" x2="2972.1863" y2="7806.4062" gradientTransform="matrix(-1 0 0 1 3250.6333 -7784.02)">
				<stop  offset="0" style="stop-color:#FFCC00"/>
				<stop  offset="1" style="stop-color:#FF8800"/>
			</linearGradient>
			<path class="st6" d="M230.7,85.7c2.1,2.1,6.1,3.7,9,3.7h21.9c2.9,0,7-1.7,9-3.7l15.5-15.5c2.1-2.1,3.7-6.1,3.7-9v-22
				c0-2.9-1.7-7-3.7-9l-15.5-15.5c-2.1-2.1-6.1-3.7-9-3.7h-21.9c-2.9,0-7,1.7-9,3.7l-15.5,15.5c-2.1,2.1-3.7,6.1-3.7,9v22
				c0,2.9,1.7,7,3.7,9L230.7,85.7z"/>
			<path class="st2" d="M249,69.3c-6.2,0-12.1-3.1-15.7-8.2c-0.2-0.3-0.1-0.7,0.2-1c0.2-0.1,0.5-0.2,0.7,0c2.2,1.2,4.6,1.8,7.1,1.8
				c7.4,0,13.4-5.3,13.4-11.8s-6-11.8-13.4-11.8c-2.5,0-4.9,0.6-7.1,1.8c-0.3,0.2-0.8,0-0.9-0.3c-0.1-0.2-0.1-0.5,0-0.7
				c6-8.7,18-10.8,26.6-4.7c8.7,6.1,10.8,18,4.7,26.7C261.1,66.3,255.3,69.3,249,69.3L249,69.3z M236.2,62.5
				c6.8,7.1,18,7.3,25.1,0.5c7.1-6.8,7.3-18.1,0.5-25.2c-6.8-7.1-18-7.3-25.1-0.5c-0.2,0.2-0.3,0.3-0.5,0.5c1.7-0.5,3.4-0.8,5.1-0.8
				c8.1,0,14.8,5.9,14.8,13.2s-6.6,13.2-14.8,13.2C239.6,63.3,237.9,63,236.2,62.5z"/>
		</g>
	</g>
	<g>
		<g id="Layer_1_6_">
			
				<linearGradient id="SVGID_7_" gradientUnits="userSpaceOnUse" x1="-1197.5681" y1="3431.8894" x2="-1127.1372" y2="3502.3252" gradientTransform="matrix(1 0 0 -1 1412.8199 3617.4995)">
				<stop  offset="0" style="stop-color:#FF8800"/>
				<stop  offset="1" style="stop-color:#FFCC00"/>
			</linearGradient>
			<path class="st7" d="M274.7,104.2c-2-2-6.1-3.7-8.9-3.7h-30.6c-2.9,0-6.9,1.7-8.9,3.7L204.5,126c-2,2-3.7,6.1-3.7,9v30.8
				c0,2.9,1.7,6.9,3.7,9l21.7,21.8c2,2,6.1,3.7,8.9,3.7h30.6c2.9,0,6.9-1.7,8.9-3.7l21.6-21.8c2-2,3.7-6.1,3.7-9V135
				c0-2.9-1.7-7-3.7-9L274.7,104.2z"/>
			
				<linearGradient id="SVGID_8_" gradientUnits="userSpaceOnUse" x1="6173.7036" y1="10013.1484" x2="6118.5034" y2="9957.9443" gradientTransform="matrix(-1 0 0 1 6396.5537 -9835.1602)">
				<stop  offset="0" style="stop-color:#FFCC00"/>
				<stop  offset="1" style="stop-color:#FF8800"/>
			</linearGradient>
			<path class="st8" d="M230.6,185.8c2,2,6.1,3.7,8.9,3.7h21.7c2.9,0,6.9-1.7,8.9-3.7l15.4-15.5c2-2,3.7-6.1,3.7-9v-21.9
				c0-2.9-1.7-7-3.7-9L270.3,115c-2-2-6.1-3.7-8.9-3.7h-21.7c-2.9,0-6.9,1.7-8.9,3.7l-15.4,15.5c-2,2-3.7,6.1-3.7,9v21.9
				c0,2.9,1.7,6.9,3.7,9L230.6,185.8z"/>
			<path class="st2" d="M275.5,149.7H268c-0.2-4.2-1.8-8.2-4.7-11.3l5.3-5.3c0.3-0.3,0.3-0.7,0-1c-0.3-0.3-0.7-0.3-1,0l-5.3,5.3
				c-3.1-2.9-7-4.5-11.2-4.7v-7.5c0-0.4-0.3-0.7-0.7-0.7c-0.4,0-0.7,0.3-0.7,0.7l0,0v7.5c-4.2,0.2-8.1,1.8-11.2,4.7l-5.3-5.3
				c-0.3-0.3-0.7-0.3-1,0s-0.3,0.7,0,1l5.3,5.3c-2.8,3.1-4.5,7.1-4.7,11.3h-7.5c-0.4,0-0.7,0.3-0.7,0.7c0,0.4,0.3,0.7,0.7,0.7l0,0
				h7.5c0.2,4.2,1.8,8.2,4.7,11.3l-5.3,5.3c-0.3,0.3-0.3,0.7,0,1c0.1,0.1,0.3,0.2,0.5,0.2c0.2,0,0.3-0.1,0.5-0.2l5.3-5.3
				c3.1,2.9,7.1,4.5,11.3,4.7v7.5c0,0.4,0.3,0.7,0.7,0.7c0.4,0,0.7-0.3,0.7-0.7V168c4.2-0.2,8.2-1.8,11.2-4.7l5.3,5.3
				c0.3,0.3,0.7,0.3,1,0s0.3-0.7,0-1l-5.3-5.3c2.8-3.1,4.5-7.1,4.6-11.3h7.5c0.4,0,0.7-0.3,0.7-0.7
				C276.1,150,275.8,149.7,275.5,149.7L275.5,149.7z M250.4,166.7c-8.9,0-16.2-7.3-16.2-16.3c0-9,7.2-16.3,16.2-16.3
				c8.9,0,16.2,7.3,16.2,16.3C266.6,159.4,259.4,166.6,250.4,166.7z"/>
		</g>
	</g>
	<g>
		<g id="Layer_1_7_">
			
				<linearGradient id="SVGID_9_" gradientUnits="userSpaceOnUse" x1="2292.4368" y1="5382.9624" x2="2363.1934" y2="5453.7236" gradientTransform="matrix(1 0 0 -1 -2277.1001 5668.6396)">
				<stop  offset="0" style="stop-color:#000000"/>
				<stop  offset="1" style="stop-color:#58595B"/>
			</linearGradient>
			<path class="st9" d="M75.2,204c-2.1-2.1-6.1-3.7-9-3.7H35.3c-2.9,0-7,1.7-9,3.7L4.4,225.9c-2,2-3.7,6.1-3.7,9v30.9
				c0,2.9,1.7,7,3.7,9l21.9,21.8c2.1,2.1,6.1,3.7,9,3.7h30.9c2.9,0,7-1.7,9-3.7L97,274.7c2.1-2.1,3.7-6.1,3.7-9v-30.9
				c0-2.9-1.7-7-3.7-9L75.2,204z"/>
			
				<linearGradient id="SVGID_10_" gradientUnits="userSpaceOnUse" x1="5891.6514" y1="8062.0361" x2="5836.1982" y2="8006.5835" gradientTransform="matrix(-1 0 0 1 5914.6333 -7784.02)">
				<stop  offset="0" style="stop-color:#58595B"/>
				<stop  offset="1" style="stop-color:#000000"/>
			</linearGradient>
			<path class="st10" d="M30.7,285.8c2.1,2.1,6.1,3.7,9,3.7h21.9c2.9,0,7-1.7,9-3.7l15.5-15.5c2.1-2.1,3.7-6.1,3.7-9v-21.9
				c0-2.9-1.7-7-3.7-9l-15.5-15.5c-2.1-2.1-6.1-3.7-9-3.7H39.7c-2.9,0-7,1.7-9,3.7l-15.5,15.5c-2.1,2.1-3.7,6.1-3.7,9v21.9
				c0,2.9,1.7,7,3.7,9L30.7,285.8z"/>
			<path class="st2" d="M49,269.4c-6.3,0-12.1-3.1-15.7-8.2c-0.2-0.3-0.1-0.7,0.2-1c0.2-0.1,0.5-0.2,0.7,0c2.2,1.2,4.6,1.8,7.1,1.8
				c7.4,0,13.4-5.3,13.4-11.7c0-6.5-6-11.7-13.4-11.7c-2.5,0-4.9,0.6-7.1,1.8c-0.3,0.2-0.8,0-0.9-0.3c-0.1-0.2-0.1-0.5,0-0.7
				c6.1-8.7,18-10.8,26.7-4.7s10.8,18,4.7,26.6C61.2,266.4,55.3,269.4,49,269.4L49,269.4z M36.2,262.6c6.8,7.1,18.1,7.3,25.1,0.5
				c7.1-6.8,7.3-18,0.5-25.1c-6.8-7.1-18.1-7.3-25.1-0.5c-0.2,0.2-0.3,0.3-0.5,0.5c1.7-0.5,3.4-0.8,5.1-0.8
				c8.2,0,14.8,5.9,14.8,13.1s-6.6,13.1-14.8,13.1C39.6,263.4,37.9,263.2,36.2,262.6z"/>
		</g>
	</g>
	<g>
		<g id="Layer_1_8_">
			
				<linearGradient id="SVGID_11_" gradientUnits="userSpaceOnUse" x1="-1397.4629" y1="3231.6152" x2="-1326.5604" y2="3302.5225" gradientTransform="matrix(1 0 0 -1 1412.8199 3617.4995)">
				<stop  offset="0" style="stop-color:#000000"/>
				<stop  offset="1" style="stop-color:#58595B"/>
			</linearGradient>
			<path class="st11" d="M75.3,304c-2.1-2.1-6.1-3.7-9-3.7h-31c-2.9,0-7,1.7-9,3.7L4.4,325.9c-2,2-3.7,6.1-3.7,9v31
				c0,2.9,1.7,7,3.7,9l21.9,21.9c2.1,2.1,6.1,3.7,9,3.7h31c2.9,0,7-1.7,9-3.7l21.9-21.9c2.1-2.1,3.7-6.1,3.7-9v-31
				c0-2.9-1.7-7-3.7-9L75.3,304z"/>
			
				<linearGradient id="SVGID_12_" gradientUnits="userSpaceOnUse" x1="9037.5391" y1="10213.3652" x2="8981.9736" y2="10157.7949" gradientTransform="matrix(-1 0 0 1 9060.5527 -9835.1602)">
				<stop  offset="0" style="stop-color:#58595B"/>
				<stop  offset="1" style="stop-color:#000000"/>
			</linearGradient>
			<path class="st12" d="M30.8,386c2.1,2.1,6.1,3.7,9,3.7h22c2.9,0,7-1.7,9-3.7l15.5-15.5c2.1-2.1,3.7-6.1,3.7-9v-22
				c0-2.9-1.7-7-3.7-9l-15.5-15.5c-2.1-2.1-6.1-3.7-9-3.7h-22c-2.9,0-7,1.7-9,3.7l-15.5,15.5c-2.1,2.1-3.7,6.1-3.7,9v22
				c0,2.9,1.7,7,3.7,9L30.8,386z"/>
			<path class="st2" d="M76.1,349.7h-7.6c-0.2-4.2-1.8-8.2-4.7-11.3l5.3-5.3c0.3-0.3,0.3-0.7,0-1s-0.7-0.3-1,0l-5.3,5.4
				c-3.1-2.9-7.1-4.5-11.3-4.7v-7.6c0-0.4-0.3-0.7-0.7-0.7s-0.7,0.3-0.7,0.7l0,0v7.6c-4.2,0.2-8.2,1.8-11.3,4.7l-5.3-5.3
				c-0.3-0.3-0.7-0.3-1,0s-0.3,0.7,0,1l5.3,5.3c-2.9,3.1-4.5,7.1-4.7,11.3h-7.6c-0.4,0-0.7,0.3-0.7,0.7s0.3,0.7,0.7,0.7l0,0h7.6
				c0.2,4.2,1.8,8.2,4.7,11.3l-5.3,5.3c-0.3,0.3-0.3,0.7,0,1c0.1,0.1,0.3,0.2,0.5,0.2c0.2,0,0.3-0.1,0.5-0.2l5.3-5.3
				c3.1,2.9,7.1,4.5,11.4,4.7v7.6c0,0.4,0.3,0.7,0.7,0.7s0.7-0.3,0.7-0.7v-7.6c4.2-0.2,8.2-1.8,11.3-4.7l5.3,5.3
				c0.3,0.3,0.7,0.3,1,0c0.3-0.3,0.3-0.7,0-1l-5.3-5.3c2.9-3.1,4.5-7.1,4.7-11.3h7.6c0.4,0,0.7-0.3,0.7-0.7S76.4,349.7,76.1,349.7
				L76.1,349.7z M50.8,366.8c-9,0-16.3-7.3-16.3-16.3c0-9,7.3-16.3,16.3-16.3s16.3,7.3,16.3,16.3C67.1,359.4,59.8,366.8,50.8,366.8z
				"/>
		</g>
	</g>
	<g>
		<g id="Layer_1_9_">
			
				<linearGradient id="SVGID_13_" gradientUnits="userSpaceOnUse" x1="2392.5117" y1="5383.0078" x2="2463.1792" y2="5453.6802" gradientTransform="matrix(1 0 0 -1 -2277.1001 5668.6396)">
				<stop  offset="0" style="stop-color:#FF1100"/>
				<stop  offset="1" style="stop-color:#FFA785"/>
			</linearGradient>
			<path class="st13" d="M175.2,204.1c-2.1-2-6.1-3.7-9-3.7h-30.9c-2.9,0-7,1.7-9,3.7l-21.9,21.8c-2,2-3.7,6.1-3.7,9v30.8
				c0,2.9,1.7,6.9,3.7,9l21.9,21.8c2.1,2,6.1,3.7,9,3.7h30.9c2.9,0,7-1.7,9-3.7l21.8-21.8c2.1-2,3.7-6.1,3.7-9v-30.8
				c0-2.9-1.7-7-3.7-9L175.2,204.1z"/>
			
				<linearGradient id="SVGID_14_" gradientUnits="userSpaceOnUse" x1="4405.585" y1="8062.001" x2="4350.2021" y2="8006.6187" gradientTransform="matrix(-1 0 0 1 4528.6333 -7784.02)">
				<stop  offset="0" style="stop-color:#FFA785"/>
				<stop  offset="1" style="stop-color:#FF1100"/>
			</linearGradient>
			<path class="st14" d="M130.8,285.7c2.1,2,6.1,3.7,9,3.7h21.9c2.9,0,7-1.7,9-3.7l15.5-15.5c2.1-2,3.7-6.1,3.7-9v-21.9
				c0-2.9-1.7-7-3.7-9l-15.5-15.5c-2.1-2-6.1-3.7-9-3.7h-21.9c-2.9,0-7,1.7-9,3.7l-15.5,15.5c-2.1,2-3.7,6.1-3.7,9v21.9
				c0,2.9,1.7,6.9,3.7,9L130.8,285.7z"/>
			<path class="st2" d="M149.1,269.4c-6.3,0-12.1-3.1-15.7-8.2c-0.2-0.3-0.1-0.7,0.2-1c0.2-0.1,0.5-0.2,0.7,0
				c2.2,1.2,4.6,1.8,7.1,1.8c7.4,0,13.4-5.3,13.4-11.7c0-6.5-6-11.7-13.4-11.7c-2.5,0-4.9,0.6-7.1,1.8c-0.3,0.2-0.8,0-0.9-0.3
				c-0.1-0.2-0.1-0.5,0-0.7c6-8.6,18-10.8,26.6-4.7c8.7,6,10.8,17.9,4.7,26.6C161.2,266.4,155.3,269.4,149.1,269.4L149.1,269.4z
				 M136.3,262.6c6.8,7.1,18,7.3,25.1,0.5c7.1-6.8,7.3-18,0.5-25.1c-6.8-7.1-18-7.3-25.1-0.5c-0.2,0.2-0.3,0.3-0.5,0.5
				c1.7-0.5,3.4-0.8,5.1-0.8c8.2,0,14.8,5.9,14.8,13.1c0,7.2-6.6,13.1-14.8,13.1C139.7,263.4,137.9,263.1,136.3,262.6z"/>
		</g>
	</g>
	<g>
		<g id="Layer_1_10_">
			
				<linearGradient id="SVGID_15_" gradientUnits="userSpaceOnUse" x1="379.7569" y1="12177.5781" x2="450.1867" y2="12248.0039" gradientTransform="matrix(-1 0 0 1 565.8333 -11862.7803)">
				<stop  offset="0" style="stop-color:#FF1100"/>
				<stop  offset="1" style="stop-color:#FFA785"/>
			</linearGradient>
			<path class="st15" d="M126.5,396c2,2,6.1,3.7,9,3.7h30.8c2.9,0,6.9-1.7,9-3.7l21.7-21.7c2-2,3.7-6.1,3.7-9v-30.7
				c0-2.9-1.7-6.9-3.7-9L175.2,304c-2-2-6.1-3.7-9-3.7h-30.8c-2.9,0-6.9,1.7-9,3.7l-21.8,21.7c-2,2-3.7,6-3.7,8.9v30.7
				c0,2.9,1.7,6.9,3.7,9L126.5,396z"/>
			
				<linearGradient id="SVGID_16_" gradientUnits="userSpaceOnUse" x1="5874.3511" y1="755.4703" x2="5819.1602" y2="700.2793" gradientTransform="matrix(1 0 0 -1 -5695.8999 1077.8795)">
				<stop  offset="0" style="stop-color:#FFA785"/>
				<stop  offset="1" style="stop-color:#FF1100"/>
			</linearGradient>
			<path class="st16" d="M170.8,314.7c-2-2-6.1-3.7-9-3.7h-21.8c-2.9,0-7,1.7-9,3.7l-15.4,15.4c-2,2-3.7,6.1-3.7,9v21.8
				c0,2.9,1.7,6.9,3.7,9l15.4,15.4c2,2,6.1,3.7,9,3.7h21.8c2.9,0,6.9-1.7,9-3.7l15.4-15.4c2-2,3.7-6.1,3.7-9v-21.8
				c0-2.9-1.7-6.9-3.7-9L170.8,314.7z"/>
			<path class="st2" d="M176,349.3h-7.5c-0.2-4.2-1.8-8.2-4.7-11.2l5.3-5.3c0.3-0.3,0.3-0.7,0-1c-0.1-0.1-0.3-0.2-0.5-0.2
				c-0.2,0-0.3,0.1-0.5,0.2l-5.4,5.3c-3.1-2.8-7.1-4.5-11.3-4.7V325c0-0.4-0.3-0.7-0.7-0.7s-0.7,0.3-0.7,0.7l0,0v7.5
				c-4.2,0.2-8.2,1.8-11.3,4.7l-5.3-5.3c-0.3-0.3-0.7-0.3-1,0c-0.3,0.3-0.3,0.7,0,1l5.3,5.3c-2.9,3.1-4.5,7.1-4.7,11.2h-7.5
				c-0.4,0-0.7,0.3-0.7,0.7s0.3,0.7,0.7,0.7l0,0h7.5c0.2,4.2,1.8,8.2,4.7,11.2l-5.3,5.3c-0.3,0.3-0.3,0.7,0,1c0.3,0.3,0.7,0.3,1,0
				l5.3-5.3c3.1,2.8,7.1,4.5,11.3,4.7v7.5c0,0.4,0.3,0.7,0.7,0.7s0.7-0.3,0.7-0.7v-7.5c4.2-0.2,8.2-1.8,11.3-4.7l5.3,5.3
				c0.3,0.3,0.7,0.3,1,0c0.3-0.3,0.3-0.7,0-1l-5.3-5.3c2.8-3.1,4.5-7.1,4.7-11.2h7.5c0.4,0,0.7-0.3,0.7-0.7S176.4,349.3,176,349.3
				L176,349.3z"/>
		</g>
	</g>
	<g>
		<g id="Layer_1_11_">
			
				<linearGradient id="SVGID_17_" gradientUnits="userSpaceOnUse" x1="2492.2024" y1="5382.7842" x2="2562.9211" y2="5453.5073" gradientTransform="matrix(1 0 0 -1 -2277.1001 5668.6396)">
				<stop  offset="0" style="stop-color:#330AFF"/>
				<stop  offset="1" style="stop-color:#B9B0FF"/>
			</linearGradient>
			<path class="st17" d="M274.9,204.2c-2.1-2.1-6.1-3.7-9-3.7H235c-2.9,0-7,1.7-9,3.7l-21.9,21.9c-2,2-3.7,6.1-3.7,9v30.9
				c0,2.9,1.7,7,3.7,9l21.9,21.8c2.1,2.1,6.1,3.7,9,3.7h30.9c2.9,0,7-1.7,9-3.7l21.8-21.8c2.1-2.1,3.7-6.1,3.7-9V235
				c0-2.9-1.7-7-3.7-9L274.9,204.2z"/>
			
				<linearGradient id="SVGID_18_" gradientUnits="userSpaceOnUse" x1="3027.8953" y1="9318.2139" x2="2972.4717" y2="9262.791" gradientTransform="matrix(-1 0 0 1 3250.6333 -9040.0195)">
				<stop  offset="0" style="stop-color:#B9B0FF"/>
				<stop  offset="1" style="stop-color:#330AFF"/>
			</linearGradient>
			<path class="st18" d="M230.5,285.9c2.1,2.1,6.1,3.7,9,3.7h21.9c2.9,0,7-1.7,9-3.7l15.5-15.5c2.1-2.1,3.7-6.1,3.7-9v-21.9
				c0-2.9-1.7-7-3.7-9L270.4,215c-2.1-2.1-6.1-3.7-9-3.7h-21.9c-2.9,0-7,1.7-9,3.7L215,230.5c-2.1,2.1-3.7,6.1-3.7,9v21.9
				c0,2.9,1.7,7,3.7,9L230.5,285.9z"/>
			<path class="st2" d="M248.8,269.6c-6.3,0-12.1-3.1-15.7-8.2c-0.2-0.3-0.1-0.7,0.2-1c0.2-0.1,0.5-0.2,0.7,0
				c2.2,1.2,4.6,1.8,7.1,1.8c7.4,0,13.4-5.3,13.4-11.7c0-6.5-6-11.7-13.4-11.7c-2.5,0-4.9,0.6-7.1,1.8c-0.3,0.2-0.8,0-0.9-0.3
				c-0.1-0.2-0.1-0.5,0-0.7c6-8.7,18-10.8,26.6-4.7c8.7,6,10.8,18,4.7,26.6C260.9,266.6,255,269.6,248.8,269.6L248.8,269.6z
				 M236,262.8c6.8,7.1,18,7.3,25.1,0.5c7.1-6.8,7.3-18,0.5-25.1c-6.8-7.1-18-7.3-25.1-0.5c-0.2,0.2-0.3,0.3-0.5,0.5
				c1.7-0.5,3.4-0.8,5.1-0.8c8.2,0,14.8,5.9,14.8,13.1s-6.6,13.1-14.8,13.1C239.4,263.6,237.7,263.3,236,262.8z"/>
		</g>
	</g>
	<g>
		<g id="Layer_1_12_">
			
				<linearGradient id="SVGID_19_" gradientUnits="userSpaceOnUse" x1="-1197.479" y1="3231.4504" x2="-1126.7604" y2="3302.1738" gradientTransform="matrix(1 0 0 -1 1412.8199 3617.4995)">
				<stop  offset="0" style="stop-color:#330AFF"/>
				<stop  offset="1" style="stop-color:#B9B0FF"/>
			</linearGradient>
			<path class="st19" d="M275.1,304.4c-2.1-2.1-6.1-3.7-9-3.7h-30.9c-2.9,0-7,1.7-9,3.7l-21.9,21.9c-2,2-3.7,6.1-3.7,9v30.9
				c0,2.9,1.7,7,3.7,9l21.9,21.8c2.1,2.1,6.1,3.7,9,3.7h30.9c2.9,0,7-1.7,9-3.7l21.8-21.8c2.1-2.1,3.7-6.1,3.7-9v-30.9
				c0-2.9-1.7-7-3.7-9L275.1,304.4z"/>
			
				<linearGradient id="SVGID_20_" gradientUnits="userSpaceOnUse" x1="6173.5757" y1="11469.5498" x2="6118.1543" y2="11414.123" gradientTransform="matrix(-1 0 0 1 6396.5537 -11091.1602)">
				<stop  offset="0" style="stop-color:#B9B0FF"/>
				<stop  offset="1" style="stop-color:#330AFF"/>
			</linearGradient>
			<path class="st20" d="M230.7,386.1c2.1,2.1,6.1,3.7,9,3.7h21.9c2.9,0,7-1.7,9-3.7l15.5-15.5c2.1-2.1,3.7-6.1,3.7-9v-21.9
				c0-2.9-1.7-7-3.7-9l-15.5-15.5c-2.1-2.1-6.1-3.7-9-3.7h-21.9c-2.9,0-7,1.7-9,3.7l-15.5,15.5c-2.1,2.1-3.7,6.1-3.7,9v21.9
				c0,2.9,1.7,7,3.7,9L230.7,386.1z"/>
			<path class="st2" d="M275.9,350h-7.5c-0.2-4.2-1.8-8.2-4.7-11.3l5.3-5.3c0.3-0.3,0.3-0.7,0-1s-0.7-0.3-1,0l-5.3,5.3
				c-3.1-2.9-7.1-4.5-11.3-4.7v-7.5c0-0.4-0.3-0.7-0.7-0.7s-0.7,0.3-0.7,0.7l0,0v7.5c-4.2,0.2-8.2,1.8-11.3,4.7l-5.3-5.3
				c-0.3-0.3-0.7-0.3-1,0s-0.3,0.7,0,1l5.3,5.3c-2.9,3.1-4.5,7.1-4.7,11.3h-7.5c-0.4,0-0.7,0.3-0.7,0.7s0.3,0.7,0.7,0.7l0,0h7.5
				c0.2,4.2,1.8,8.2,4.7,11.3l-5.3,5.3c-0.3,0.3-0.3,0.7,0,1c0.1,0.1,0.3,0.2,0.5,0.2c0.2,0,0.3-0.1,0.5-0.2l5.3-5.3
				c3.1,2.9,7.1,4.5,11.3,4.7v7.5c0,0.4,0.3,0.7,0.7,0.7s0.7-0.3,0.7-0.7v-7.5c4.2-0.2,8.2-1.8,11.3-4.7l5.3,5.3
				c0.3,0.3,0.7,0.3,1,0c0.3-0.3,0.3-0.7,0-1l-5.3-5.3c2.9-3.1,4.5-7.1,4.7-11.3h7.5c0.4,0,0.7-0.3,0.7-0.7S276.3,350,275.9,350
				L275.9,350z M250.7,367c-9,0-16.3-7.3-16.3-16.3c0-9,7.3-16.3,16.3-16.3c9,0,16.3,7.3,16.3,16.3C267,359.7,259.7,367,250.7,367z"
				/>
		</g>
	</g>
</g>
<g id="Layer_1">
	<g>
		<g id="Layer_1_1_">
			
				<linearGradient id="SVGID_21_" gradientUnits="userSpaceOnUse" x1="2292.4189" y1="5582.9775" x2="2363.1377" y2="5653.7007" gradientTransform="matrix(1 0 0 -1 -2277.1001 5668.6396)">
				<stop  offset="0" style="stop-color:#BCBEC0"/>
				<stop  offset="1" style="stop-color:#FFFFFF"/>
			</linearGradient>
			<path class="st21" d="M75.1,4c-2.1-2.1-6.1-3.7-9-3.7H35.2c-2.9,0-7,1.7-9,3.7L4.4,25.9c-2,2-3.7,6.1-3.7,9v30.9
				c0,2.9,1.7,7,3.7,9l21.9,21.8c2.1,2.1,6.1,3.7,9,3.7h30.9c2.9,0,7-1.7,9-3.7l21.8-21.8c2.1-2.1,3.7-6.1,3.7-9V34.9
				c0-2.9-1.7-7-3.7-9L75.1,4z"/>
			
				<linearGradient id="SVGID_22_" gradientUnits="userSpaceOnUse" x1="1819.6785" y1="9118.0205" x2="1764.255" y2="9062.5977" gradientTransform="matrix(-1 0 0 1 1842.6334 -9040.0195)">
				<stop  offset="0" style="stop-color:#FFFFFF"/>
				<stop  offset="1" style="stop-color:#BCBEC0"/>
			</linearGradient>
			<path class="st22" d="M30.7,85.8c2.1,2.1,6.1,3.7,9,3.7h21.9c2.9,0,7-1.7,9-3.7l15.5-15.5c2.1-2.1,3.7-6.1,3.7-9V39.3
				c0-2.9-1.7-7-3.7-9L70.6,14.8c-2.1-2.1-6.1-3.7-9-3.7H39.7c-2.9,0-7,1.7-9,3.7L15.2,30.3c-2.1,2.1-3.7,6.1-3.7,9v21.9
				c0,2.9,1.7,7,3.7,9L30.7,85.8z"/>
			<path class="st2" d="M49,69.4c-6.3,0-12.1-3.1-15.7-8.2c-0.2-0.3-0.1-0.7,0.2-1c0.2-0.1,0.5-0.2,0.7,0c2.2,1.2,4.6,1.8,7.1,1.8
				c7.4,0,13.4-5.3,13.4-11.7s-6-11.7-13.4-11.7c-2.5,0-4.9,0.6-7.1,1.8c-0.3,0.2-0.8,0-0.9-0.3c-0.1-0.2-0.1-0.5,0-0.7
				c6-8.7,18-10.8,26.6-4.7s10.8,18,4.7,26.6C61.1,66.4,55.3,69.4,49,69.4L49,69.4z M36.2,62.6c6.8,7.1,18,7.3,25.1,0.5
				c7.1-6.8,7.3-18,0.5-25.1c-6.8-7.1-18-7.3-25.1-0.5c-0.2,0.2-0.3,0.3-0.5,0.5c1.7-0.5,3.4-0.8,5.1-0.8c8.2,0,14.8,5.9,14.8,13.1
				s-6.6,13.1-14.8,13.1C39.6,63.4,37.9,63.2,36.2,62.6z"/>
		</g>
	</g>
	<g>
		<g id="Layer_1_2_">
			
				<linearGradient id="SVGID_23_" gradientUnits="userSpaceOnUse" x1="-1397.994" y1="3431.6885" x2="-1326.9675" y2="3502.7195" gradientTransform="matrix(1 0 0 -1 1412.8199 3617.4995)">
				<stop  offset="0" style="stop-color:#BCBEC0"/>
				<stop  offset="1" style="stop-color:#FFFFFF"/>
			</linearGradient>
			<path class="st23" d="M74.9,104c-2.1-2.1-6.1-3.7-9.1-3.7H34.8c-2.9,0-7,1.7-9,3.7l-22,21.9c-2.1,2-3.7,6.1-3.7,9v30.9
				c0,2.9,1.7,7,3.7,9l22,21.8c2.1,2.1,6.1,3.7,9.1,3.7h31.1c2.9,0,7-1.7,9.1-3.7l22-21.8c2.1-2.1,3.7-6.1,3.7-9v-30.9
				c0-2.9-1.7-7-3.7-9L74.9,104z"/>
			
				<linearGradient id="SVGID_24_" gradientUnits="userSpaceOnUse" x1="4966.0483" y1="11269.2803" x2="4910.3916" y2="11213.6191" gradientTransform="matrix(-1 0 0 1 4988.5537 -11091.1602)">
				<stop  offset="0" style="stop-color:#FFFFFF"/>
				<stop  offset="1" style="stop-color:#BCBEC0"/>
			</linearGradient>
			<path class="st24" d="M30.2,185.8c2.1,2.1,6.1,3.7,9.1,3.7h22.1c2.9,0,7-1.7,9.1-3.7L86,170.3c2.1-2.1,3.7-6.1,3.7-9v-21.9
				c0-2.9-1.7-7-3.7-9l-15.6-15.5c-2.1-2.1-6.1-3.7-9.1-3.7H39.3c-2.9,0-7,1.7-9.1,3.7l-15.6,15.5c-2.1,2.1-3.7,6.1-3.7,9v21.9
				c0,2.9,1.7,7,3.7,9L30.2,185.8z"/>
			<path class="st2" d="M75.7,149.6h-7.6c-0.2-4.2-1.8-8.2-4.7-11.3l5.4-5.3c0.3-0.3,0.3-0.7,0-1c-0.3-0.3-0.7-0.3-1,0l-5.4,5.3
				c-3.1-2.9-7.1-4.5-11.4-4.7v-7.5c0-0.4-0.3-0.7-0.7-0.7c-0.4,0-0.7,0.3-0.7,0.7l0,0v7.5c-4.2,0.2-8.3,1.8-11.4,4.7l-5.4-5.3
				c-0.3-0.3-0.7-0.3-1,0s-0.3,0.7,0,1l5.4,5.3c-2.9,3.1-4.6,7.1-4.7,11.3H25c-0.4,0-0.7,0.3-0.7,0.7c0,0.4,0.3,0.7,0.7,0.7l0,0h7.6
				c0.2,4.2,1.8,8.2,4.7,11.3l-5.4,5.3c-0.3,0.3-0.3,0.7,0,1c0.1,0.1,0.3,0.2,0.5,0.2c0.2,0,0.3-0.1,0.5-0.2l5.4-5.3
				c3.1,2.9,7.2,4.5,11.4,4.7v7.5c0,0.4,0.3,0.7,0.7,0.7c0.4,0,0.7-0.3,0.7-0.7v-7.5c4.2-0.2,8.3-1.8,11.4-4.7l5.4,5.3
				c0.3,0.3,0.7,0.3,1,0c0.3-0.3,0.3-0.7,0-1l-5.4-5.3c2.9-3.1,4.5-7.1,4.7-11.3h7.6c0.4,0,0.7-0.3,0.7-0.7
				C76.4,149.9,76.1,149.6,75.7,149.6L75.7,149.6z M50.3,166.6c-9.1,0-16.4-7.3-16.4-16.3c0-9,7.3-16.3,16.4-16.3
				s16.4,7.3,16.4,16.3C66.7,159.3,59.4,166.6,50.3,166.6z"/>
		</g>
	</g>
</g>
</svg>
