<?xml version="1.0" encoding="utf-8"?>
<!-- Generator: Adobe Illustrator 21.1.0, SVG Export Plug-In . SVG Version: 6.00 Build 0)  -->
<svg version="1.1" id="Layer_1" xmlns="http://www.w3.org/2000/svg" xmlns:xlink="http://www.w3.org/1999/xlink" x="0px" y="0px"
	 viewBox="0 0 300.7 400.7" style="enable-background:new 0 0 300.7 400.7;" xml:space="preserve">
<style type="text/css">
	.st0{fill:url(#SVGID_1_);}
	.st1{fill:url(#SVGID_2_);}
	.st2{fill:#FFFFFF;}
	.st3{fill:url(#SVGID_3_);}
	.st4{fill:url(#SVGID_4_);}
	.st5{fill:url(#SVGID_5_);}
	.st6{fill:url(#SVGID_6_);}
	.st7{fill:url(#SVGID_7_);}
	.st8{fill:url(#SVGID_8_);}
	.st9{fill:url(#SVGID_9_);}
	.st10{fill:url(#SVGID_10_);}
	.st11{fill:url(#SVGID_11_);}
	.st12{fill:url(#SVGID_12_);}
	.st13{fill:url(#SVGID_13_);}
	.st14{fill:url(#SVGID_14_);}
	.st15{fill:url(#SVGID_15_);}
	.st16{fill:url(#SVGID_16_);}
	.st17{fill:url(#SVGID_17_);}
	.st18{fill:url(#SVGID_18_);}
	.st19{fill:url(#SVGID_19_);}
	.st20{fill:url(#SVGID_20_);}
	.st21{fill:url(#SVGID_21_);}
	.st22{fill:url(#SVGID_22_);}
	.st23{fill:url(#SVGID_23_);}
	.st24{fill:url(#SVGID_24_);}
</style>
<g id="Layer_2">
	<g>
		<g>
			<g id="Layer_1_3_">
				
					<linearGradient id="SVGID_1_" gradientUnits="userSpaceOnUse" x1="2392.7197" y1="-4880.9058" x2="2463.2317" y2="-4951.4224" gradientTransform="matrix(1 0 0 1 -2277.1001 4966.6396)">
					<stop  offset="0" style="stop-color:#FF3D98"/>
					<stop  offset="1" style="stop-color:#FFBAE3"/>
				</linearGradient>
				<path class="st0" d="M175.2,4.4c-2.1-2-6.1-3.7-9-3.7h-30.8c-2.9,0-7,1.7-9,3.7l-21.8,21.8c-2,2-3.7,6.1-3.7,8.9v30.7
					c0,2.9,1.7,6.9,3.7,9l21.8,21.7c2.1,2,6.1,3.7,9,3.7h30.8c2.9,0,7-1.7,9-3.7L197,74.8c2.1-2,3.7-6.1,3.7-9V35.1
					c0-2.9-1.7-6.9-3.7-9L175.2,4.4z"/>
				
					<linearGradient id="SVGID_2_" gradientUnits="userSpaceOnUse" x1="1409.3876" y1="-7550.124" x2="1354.1793" y2="-7494.916" gradientTransform="matrix(-1 0 0 -1 1532.6334 -7472.02)">
					<stop  offset="0" style="stop-color:#FFBAE3"/>
					<stop  offset="1" style="stop-color:#FF3D98"/>
				</linearGradient>
				<path class="st1" d="M131,85.8c2.1,2,6.1,3.7,9,3.7h21.8c2.9,0,7-1.7,9-3.7l15.4-15.4c2.1-2,3.7-6.1,3.7-9V39.6
					c0-2.9-1.7-6.9-3.7-9l-15.4-15.4c-2.1-2-6.1-3.7-9-3.7h-21.8c-2.9,0-7,1.7-9,3.7l-15.4,15.4c-2.1,2-3.7,6.1-3.7,9v21.8
					c0,2.9,1.7,6.9,3.7,9L131,85.8z"/>
				<path class="st2" d="M149.2,69.5c-6.3,0-12.1-3.1-15.6-8.2c-0.2-0.3-0.1-0.7,0.2-1c0.2-0.1,0.5-0.2,0.7,0
					c2.2,1.2,4.6,1.8,7.1,1.8c7.4,0,13.3-5.2,13.3-11.7s-6-11.7-13.3-11.7c-2.5,0-4.9,0.6-7.1,1.8c-0.3,0.2-0.8,0-0.9-0.3
					c-0.1-0.2-0.1-0.5,0-0.7c6.1-8.6,17.9-10.7,26.5-4.7c8.7,6,10.8,17.9,4.7,26.5C161.3,66.5,155.5,69.6,149.2,69.5L149.2,69.5z
					 M136.5,62.8c6.8,7,17.9,7.3,25,0.5s7.3-18,0.5-25S144,31,137,37.8c-0.2,0.2-0.3,0.3-0.5,0.5c1.7-0.5,3.4-0.8,5.1-0.8
					c8.2,0,14.7,5.9,14.7,13.1s-6.6,13.1-14.7,13.1C139.8,63.6,138.2,63.3,136.5,62.8z"/>
			</g>
		</g>
	</g>
	<g>
		<g id="Layer_1_4_">
			
				<linearGradient id="SVGID_3_" gradientUnits="userSpaceOnUse" x1="-1297.5037" y1="-2820.1636" x2="-1227.1362" y2="-2890.5356" gradientTransform="matrix(1 0 0 1 1412.8199 3005.4995)">
				<stop  offset="0" style="stop-color:#FF3D98"/>
				<stop  offset="1" style="stop-color:#FFBAE3"/>
			</linearGradient>
			<path class="st3" d="M174.7,104c-2-2.1-6.1-3.7-8.9-3.7h-30.6c-2.9,0-6.8,1.7-8.9,3.7l-21.6,21.8c-2,2-3.7,6.1-3.7,9v30.8
				c0,2.9,1.7,7,3.7,9l21.6,21.7c2,2.1,6.1,3.7,8.9,3.7h30.6c2.9,0,6.8-1.7,8.9-3.7l21.6-21.7c2-2.1,3.7-6.1,3.7-9v-30.8
				c0-2.9-1.7-7-3.7-9L174.7,104z"/>
			
				<linearGradient id="SVGID_4_" gradientUnits="userSpaceOnUse" x1="4555.5718" y1="-9610.9307" x2="4500.4365" y2="-9555.79" gradientTransform="matrix(-1 0 0 -1 4678.5537 -9433.1602)">
				<stop  offset="0" style="stop-color:#FFBAE3"/>
				<stop  offset="1" style="stop-color:#FF3D98"/>
			</linearGradient>
			<path class="st4" d="M130.8,185.5c2,2.1,6.1,3.7,8.9,3.7h21.7c2.9,0,6.8-1.7,8.9-3.7l15.4-15.5c2-2.1,3.7-6.1,3.7-9v-21.8
				c0-2.9-1.7-7-3.7-9l-15.4-15.5c-2-2.1-6.1-3.7-8.9-3.7h-21.7c-2.9,0-6.9,1.7-8.9,3.7l-15.4,15.5c-2,2.1-3.7,6.1-3.7,9v21.8
				c0,2.9,1.7,7,3.7,9L130.8,185.5z"/>
			<path class="st2" d="M175.4,149.5H168c-0.2-4.2-1.8-8.2-4.7-11.3l5.3-5.3c0.3-0.3,0.3-0.7,0-1c-0.3-0.3-0.7-0.3-1,0l-5.3,5.3
				c-3.1-2.9-7-4.5-11.2-4.7V125c0-0.4-0.3-0.7-0.7-0.7s-0.7,0.3-0.7,0.7l0,0v7.5c-4.2,0.2-8.1,1.8-11.2,4.7l-5.3-5.3
				c-0.3-0.3-0.7-0.3-1,0c-0.3,0.3-0.3,0.7,0,1l5.3,5.3c-2.9,3.1-4.5,7.1-4.7,11.3h-7.4c-0.4,0-0.7,0.3-0.7,0.7s0.3,0.7,0.7,0.7l0,0
				h7.4c0.2,4.2,1.8,8.2,4.7,11.3l-5.3,5.3c-0.3,0.3-0.3,0.7,0,1c0.1,0.1,0.3,0.2,0.5,0.2s0.3-0.1,0.5-0.2l5.3-5.3
				c3.1,2.9,7,4.5,11.2,4.7v7.5c0,0.4,0.3,0.7,0.7,0.7s0.7-0.3,0.7-0.7v-7.5c4.2-0.2,8.1-1.8,11.2-4.7l5.3,5.3c0.3,0.3,0.7,0.3,1,0
				c0.3-0.3,0.3-0.7,0-1l-5.3-5.3c2.9-3.1,4.5-7.1,4.7-11.3h7.4c0.4,0,0.7-0.3,0.7-0.7C176.1,149.8,175.8,149.5,175.4,149.5
				L175.4,149.5z M150.5,166.4c-8.9,0-16.2-7.3-16.2-16.3s7.2-16.3,16.2-16.3c8.9,0,16.2,7.3,16.2,16.3
				C166.6,159.1,159.4,166.4,150.5,166.4z"/>
		</g>
	</g>
	<g>
		<g id="Layer_1_5_">
			
				<linearGradient id="SVGID_5_" gradientUnits="userSpaceOnUse" x1="2492.3254" y1="-4971.1138" x2="2563.1741" y2="-5041.9663" gradientTransform="matrix(1 0 0 1 -2277.1001 5056.6396)">
				<stop  offset="0" style="stop-color:#FF8800"/>
				<stop  offset="1" style="stop-color:#FFCC00"/>
			</linearGradient>
			<path class="st5" d="M275.1,3.7C273,1.6,269,0,266.1,0h-30.9c-2.9,0-7,1.7-9,3.7l-21.9,21.9c-2,2-3.7,6.1-3.7,9v31
				c0,2.9,1.7,7,3.7,9l21.9,21.9c2.1,2.1,6.1,3.7,9,3.7h30.9c2.9,0,7-1.7,9-3.7l21.8-21.9c2.1-2.1,3.7-6.1,3.7-9v-31
				c0-2.9-1.7-7-3.7-9L275.1,3.7z"/>
			
				<linearGradient id="SVGID_6_" gradientUnits="userSpaceOnUse" x1="2717.7083" y1="-7459.9448" x2="2662.1912" y2="-7404.4277" gradientTransform="matrix(-1 0 0 -1 2940.6333 -7382.02)">
				<stop  offset="0" style="stop-color:#FFCC00"/>
				<stop  offset="1" style="stop-color:#FF8800"/>
			</linearGradient>
			<path class="st6" d="M230.7,85.7c2.1,2.1,6.1,3.7,9,3.7h21.9c2.9,0,7-1.7,9-3.7l15.5-15.5c2.1-2.1,3.7-6.1,3.7-9v-22
				c0-2.9-1.7-7-3.7-9l-15.5-15.5c-2.1-2.1-6.1-3.7-9-3.7h-21.9c-2.9,0-7,1.7-9,3.7l-15.5,15.5c-2.1,2.1-3.7,6.1-3.7,9v22
				c0,2.9,1.7,7,3.7,9L230.7,85.7z"/>
			<path class="st2" d="M249,69.3c-6.2,0-12.1-3.1-15.7-8.2c-0.2-0.3-0.1-0.7,0.2-1c0.2-0.1,0.5-0.2,0.7,0c2.2,1.2,4.6,1.8,7.1,1.8
				c7.4,0,13.4-5.3,13.4-11.8s-6-11.8-13.4-11.8c-2.5,0-4.9,0.6-7.1,1.8c-0.3,0.2-0.8,0-0.9-0.3c-0.1-0.2-0.1-0.5,0-0.7
				c6-8.7,18-10.8,26.6-4.7c8.7,6.1,10.8,18,4.7,26.7C261.1,66.3,255.3,69.3,249,69.3L249,69.3z M236.2,62.5
				c6.8,7.1,18,7.3,25.1,0.5c7.1-6.8,7.3-18.1,0.5-25.2c-6.8-7.1-18-7.3-25.1-0.5c-0.2,0.2-0.3,0.3-0.5,0.5c1.7-0.5,3.4-0.8,5.1-0.8
				c8.1,0,14.8,5.9,14.8,13.2s-6.6,13.2-14.8,13.2C239.6,63.3,237.9,63,236.2,62.5z"/>
		</g>
	</g>
	<g>
		<g id="Layer_1_6_">
			
				<linearGradient id="SVGID_7_" gradientUnits="userSpaceOnUse" x1="-1198.1417" y1="-2819.9753" x2="-1127.5669" y2="-2890.5549" gradientTransform="matrix(1 0 0 1 1412.8199 3005.4995)">
				<stop  offset="0" style="stop-color:#FF8800"/>
				<stop  offset="1" style="stop-color:#FFCC00"/>
			</linearGradient>
			<path class="st7" d="M274.5,104.2c-2-2-6.1-3.7-9-3.7h-30.8c-2.9,0-7,1.7-9,3.7l-22,21.7c-2,2-3.7,6.1-3.7,9v30.7
				c0,2.9,1.7,6.9,3.7,9l21.9,21.7c2,2,6.1,3.7,9,3.7h30.8c2.9,0,7-1.7,9-3.7l21.8-21.7c2-2,3.7-6.1,3.7-9v-30.7c0-2.9-1.7-7-3.7-9
				L274.5,104.2z"/>
			
				<linearGradient id="SVGID_8_" gradientUnits="userSpaceOnUse" x1="5864.1543" y1="-9611.0635" x2="5808.8516" y2="-9555.7568" gradientTransform="matrix(-1 0 0 -1 6086.5537 -9433.1602)">
				<stop  offset="0" style="stop-color:#FFCC00"/>
				<stop  offset="1" style="stop-color:#FF8800"/>
			</linearGradient>
			<path class="st8" d="M230,185.5c2,2,6.1,3.7,9,3.7h21.9c2.9,0,7-1.7,9-3.7l15.5-15.5c2-2,3.7-6.1,3.7-9v-21.8c0-2.9-1.7-7-3.7-9
				L270.1,115c-2-2-6.1-3.7-9-3.7h-21.9c-2.9,0-7,1.7-9,3.7l-15.5,15.5c-2,2-3.7,6.1-3.7,9v21.8c0,2.9,1.7,6.9,3.7,9L230,185.5z"/>
			<path class="st2" d="M275.3,149.6h-7.6c-0.2-4.2-1.8-8.2-4.7-11.3l5.3-5.3c0.3-0.3,0.3-0.7,0-1c-0.3-0.3-0.7-0.3-1,0l-5.3,5.3
				c-3.1-2.9-7.1-4.5-11.3-4.7v-7.5c0-0.4-0.3-0.7-0.7-0.7s-0.7,0.3-0.7,0.7l0,0v7.5c-4.2,0.2-8.2,1.8-11.3,4.7l-5.3-5.3
				c-0.3-0.3-0.7-0.3-1,0s-0.3,0.7,0,1l5.3,5.3c-2.8,3.1-4.5,7.1-4.7,11.3h-7.6c-0.4,0-0.7,0.3-0.7,0.7c0,0.4,0.3,0.7,0.7,0.7l0,0
				h7.6c0.2,4.2,1.8,8.2,4.7,11.3l-5.3,5.3c-0.3,0.3-0.3,0.7,0,1c0.1,0.1,0.3,0.2,0.5,0.2s0.3-0.1,0.5-0.2l5.3-5.3
				c3.1,2.9,7.2,4.5,11.4,4.7v7.5c0,0.4,0.3,0.7,0.7,0.7c0.4,0,0.7-0.3,0.7-0.7v-7.6c4.2-0.2,8.3-1.8,11.3-4.7l5.3,5.3
				c0.3,0.3,0.7,0.3,1,0c0.3-0.3,0.3-0.7,0-1l-5.3-5.3c2.8-3.1,4.5-7.1,4.6-11.3h7.6c0.4,0,0.7-0.3,0.7-0.7
				C275.9,149.9,275.6,149.6,275.3,149.6L275.3,149.6z M250,166.5c-9,0-16.3-7.3-16.3-16.3c0-9,7.3-16.3,16.3-16.3
				c9,0,16.3,7.3,16.3,16.3C266.3,159.2,259.1,166.4,250,166.5z"/>
		</g>
	</g>
	<g>
		<g id="Layer_1_7_">
			
				<linearGradient id="SVGID_9_" gradientUnits="userSpaceOnUse" x1="2292.4702" y1="-4770.958" x2="2363.4802" y2="-4841.9727" gradientTransform="matrix(1 0 0 1 -2277.1001 5056.6396)">
				<stop  offset="0" style="stop-color:#000000"/>
				<stop  offset="1" style="stop-color:#58595B"/>
			</linearGradient>
			<path class="st9" d="M75.4,203.7c-2.1-2.1-6.1-3.7-9-3.7h-31c-2.9,0-7,1.7-9,3.7l-22,22c-2,2-3.7,6.1-3.7,9v31c0,2.9,1.7,7,3.7,9
				l22,21.9c2.1,2.1,6.1,3.7,9,3.7h31c2.9,0,7-1.7,9-3.7l21.9-22c2.1-2.1,3.7-6.1,3.7-9v-31c0-2.9-1.7-7-3.7-9L75.4,203.7z"/>
			
				<linearGradient id="SVGID_10_" gradientUnits="userSpaceOnUse" x1="5581.6167" y1="-7660.0029" x2="5526.0503" y2="-7604.437" gradientTransform="matrix(-1 0 0 -1 5604.6333 -7382.02)">
				<stop  offset="0" style="stop-color:#58595B"/>
				<stop  offset="1" style="stop-color:#000000"/>
			</linearGradient>
			<path class="st10" d="M30.8,285.8c2.1,2.1,6.1,3.7,9,3.7h22c2.9,0,7-1.7,9-3.7l15.5-15.5c2.1-2.1,3.7-6.1,3.7-9v-22
				c0-2.9-1.7-7-3.7-9l-15.5-15.5c-2.1-2.1-6.1-3.7-9-3.7h-22c-2.9,0-7,1.7-9,3.7l-15.5,15.5c-2.1,2.1-3.7,6.1-3.7,9v22
				c0,2.9,1.7,7,3.7,9L30.8,285.8z"/>
			<path class="st2" d="M49.1,269.3c-6.3,0-12.1-3.1-15.7-8.2c-0.2-0.3-0.1-0.7,0.2-1c0.2-0.1,0.5-0.2,0.7,0
				c2.2,1.2,4.6,1.8,7.1,1.8c7.4,0,13.4-5.3,13.4-11.7c0-6.5-6-11.7-13.4-11.7c-2.5,0-4.9,0.6-7.1,1.8c-0.3,0.2-0.8,0-0.9-0.3
				c-0.1-0.2-0.1-0.5,0-0.7c6.1-8.7,18.1-10.8,26.8-4.7c8.7,6.1,10.8,18.1,4.7,26.7C61.4,266.3,55.5,269.3,49.1,269.3L49.1,269.3z
				 M36.3,262.5c6.8,7.1,18.2,7.3,25.2,0.5c7.1-6.8,7.3-18.1,0.5-25.2c-6.8-7.1-18.2-7.3-25.2-0.5c-0.2,0.2-0.3,0.3-0.5,0.5
				c1.7-0.5,3.4-0.8,5.1-0.8c8.2,0,14.8,5.9,14.8,13.1c0,7.2-6.6,13.1-14.8,13.1C39.7,263.3,38,263.1,36.3,262.5z"/>
		</g>
	</g>
	<g>
		<g id="Layer_1_8_">
			
				<linearGradient id="SVGID_11_" gradientUnits="userSpaceOnUse" x1="-1397.4691" y1="-2619.6479" x2="-1326.5708" y2="-2690.551" gradientTransform="matrix(1 0 0 1 1412.8199 3005.4995)">
				<stop  offset="0" style="stop-color:#000000"/>
				<stop  offset="1" style="stop-color:#58595B"/>
			</linearGradient>
			<path class="st11" d="M75.3,304c-2.1-2.1-6.1-3.7-9-3.7h-31c-2.9,0-7,1.7-9,3.7L4.4,325.9c-2,2-3.7,6.1-3.7,9v31
				c0,2.9,1.7,7,3.7,9l21.9,21.9c2.1,2.1,6.1,3.7,9,3.7h31c2.9,0,7-1.7,9-3.7l21.9-21.9c2.1-2.1,3.7-6.1,3.7-9v-31
				c0-2.9-1.7-7-3.7-9L75.3,304z"/>
			
				<linearGradient id="SVGID_12_" gradientUnits="userSpaceOnUse" x1="8727.502" y1="-9811.4121" x2="8671.9365" y2="-9755.8418" gradientTransform="matrix(-1 0 0 -1 8750.5527 -9433.1602)">
				<stop  offset="0" style="stop-color:#58595B"/>
				<stop  offset="1" style="stop-color:#000000"/>
			</linearGradient>
			<path class="st12" d="M30.8,386c2.1,2.1,6.1,3.7,9,3.7h22c2.9,0,7-1.7,9-3.7l15.5-15.5c2.1-2.1,3.7-6.1,3.7-9v-22
				c0-2.9-1.7-7-3.7-9L70.8,315c-2.1-2.1-6.1-3.7-9-3.7h-22c-2.9,0-7,1.7-9,3.7l-15.5,15.5c-2.1,2.1-3.7,6.1-3.7,9v22
				c0,2.9,1.7,7,3.7,9L30.8,386z"/>
			<path class="st2" d="M76.1,349.7h-7.6c-0.2-4.2-1.8-8.2-4.7-11.3l5.3-5.3c0.3-0.3,0.3-0.7,0-1s-0.7-0.3-1,0l-5.3,5.4
				c-3.1-2.9-7.1-4.5-11.3-4.7v-7.6c0-0.4-0.3-0.7-0.7-0.7s-0.7,0.3-0.7,0.7l0,0v7.6c-4.2,0.2-8.2,1.8-11.3,4.7l-5.3-5.3
				c-0.3-0.3-0.7-0.3-1,0s-0.3,0.7,0,1l5.3,5.3c-2.9,3.1-4.5,7.1-4.7,11.3h-7.6c-0.4,0-0.7,0.3-0.7,0.7s0.3,0.7,0.7,0.7l0,0h7.6
				c0.2,4.2,1.8,8.2,4.7,11.3l-5.3,5.3c-0.3,0.3-0.3,0.7,0,1c0.1,0.1,0.3,0.2,0.5,0.2s0.3-0.1,0.5-0.2l5.3-5.3
				c3.1,2.9,7.1,4.5,11.4,4.7v7.6c0,0.4,0.3,0.7,0.7,0.7s0.7-0.3,0.7-0.7v-7.6c4.2-0.2,8.2-1.8,11.3-4.7l5.3,5.3
				c0.3,0.3,0.7,0.3,1,0s0.3-0.7,0-1l-5.3-5.3c2.9-3.1,4.5-7.1,4.7-11.3h7.6c0.4,0,0.7-0.3,0.7-0.7S76.4,349.7,76.1,349.7
				L76.1,349.7z M50.8,366.8c-9,0-16.3-7.3-16.3-16.3s7.3-16.3,16.3-16.3s16.3,7.3,16.3,16.3C67.1,359.4,59.8,366.8,50.8,366.8z"/>
		</g>
	</g>
	<g>
		<g id="Layer_1_9_">
			
				<linearGradient id="SVGID_13_" gradientUnits="userSpaceOnUse" x1="2392.355" y1="-4771.2427" x2="2462.9441" y2="-4841.8364" gradientTransform="matrix(1 0 0 1 -2277.1001 5056.6396)">
				<stop  offset="0" style="stop-color:#FF1100"/>
				<stop  offset="1" style="stop-color:#FFA785"/>
			</linearGradient>
			<path class="st13" d="M174.8,203.7c-2.1-2-6-3.7-8.9-3.7h-30.6c-2.9,0-6.9,1.7-8.9,3.7l-21.7,21.9c-2,2-3.7,6.1-3.7,9v30.9
				c0,2.9,1.7,6.9,3.7,9l21.7,21.9c2.1,2,6,3.7,8.9,3.7h30.6c2.9,0,6.9-1.7,8.9-3.7l21.6-21.9c2.1-2,3.7-6.1,3.7-9v-30.9
				c0-2.9-1.7-7-3.7-9L174.8,203.7z"/>
			
				<linearGradient id="SVGID_14_" gradientUnits="userSpaceOnUse" x1="4095.7551" y1="-7659.7407" x2="4040.4124" y2="-7604.3989" gradientTransform="matrix(-1 0 0 -1 4218.6333 -7382.02)">
				<stop  offset="0" style="stop-color:#FFA785"/>
				<stop  offset="1" style="stop-color:#FF1100"/>
			</linearGradient>
			<path class="st14" d="M130.8,285.6c2.1,2,6,3.7,8.9,3.7h21.7c2.9,0,6.9-1.7,8.9-3.7l15.3-15.6c2.1-2,3.7-6.1,3.7-9v-22
				c0-2.9-1.7-7-3.7-9l-15.3-15.6c-2.1-2-6-3.7-8.9-3.7h-21.7c-2.9,0-6.9,1.7-8.9,3.7L115.5,230c-2.1,2-3.7,6.1-3.7,9v22
				c0,2.9,1.7,6.9,3.7,9L130.8,285.6z"/>
			<path class="st2" d="M148.9,269.3c-6.2,0-12-3.1-15.5-8.2c-0.2-0.3-0.1-0.7,0.2-1c0.2-0.1,0.5-0.2,0.7,0c2.2,1.2,4.6,1.8,7,1.8
				c7.3,0,13.3-5.3,13.3-11.7c0-6.5-5.9-11.7-13.3-11.7c-2.5,0-4.9,0.6-7,1.8c-0.3,0.2-0.8,0-0.9-0.3c-0.1-0.2-0.1-0.5,0-0.7
				c5.9-8.6,17.8-10.8,26.3-4.7c8.6,6,10.7,18,4.7,26.7C160.9,266.3,155.1,269.3,148.9,269.3L148.9,269.3z M136.2,262.4
				c6.7,7.1,17.8,7.3,24.8,0.5s7.2-18.1,0.5-25.2c-6.7-7.1-17.8-7.3-24.8-0.5c-0.2,0.2-0.3,0.3-0.5,0.5c1.7-0.5,3.4-0.8,5-0.8
				c8.1,0,14.7,5.9,14.7,13.2s-6.5,13.2-14.7,13.2C139.6,263.3,137.8,263,136.2,262.4z"/>
		</g>
	</g>
	<g>
		<g id="Layer_1_10_">
			
				<linearGradient id="SVGID_15_" gradientUnits="userSpaceOnUse" x1="69.9368" y1="-11775.6768" x2="140.524" y2="-11846.2607" gradientTransform="matrix(-1 0 0 -1 255.8333 -11460.7803)">
				<stop  offset="0" style="stop-color:#FF1100"/>
				<stop  offset="1" style="stop-color:#FFA785"/>
			</linearGradient>
			<path class="st15" d="M126.3,396.8c2,2,6.1,3.7,8.9,3.7h30.6c2.9,0,6.9-1.7,8.9-3.7l21.6-21.9c2-2,3.7-6.2,3.7-9.1v-31
				c0-2.9-1.7-7-3.7-9.1l-21.7-21.8c-2-2-6.1-3.7-8.9-3.7h-30.6c-2.9,0-6.9,1.7-8.9,3.7l-21.7,21.9c-2,2-3.7,6.1-3.7,9v31
				c0,2.9,1.7,7,3.7,9.1L126.3,396.8z"/>
			
				<linearGradient id="SVGID_16_" gradientUnits="userSpaceOnUse" x1="5874.2251" y1="-143.3636" x2="5818.7568" y2="-87.8956" gradientTransform="matrix(1 0 0 1 -5695.8999 465.8795)">
				<stop  offset="0" style="stop-color:#FFA785"/>
				<stop  offset="1" style="stop-color:#FF1100"/>
			</linearGradient>
			<path class="st16" d="M170.4,314.6c-2-2-6.1-3.7-8.9-3.7h-21.7c-2.9,0-7,1.7-8.9,3.7l-15.3,15.6c-2,2-3.7,6.2-3.7,9.1v22
				c0,2.9,1.7,7,3.7,9.1l15.3,15.6c2,2,6.1,3.7,8.9,3.7h21.7c2.9,0,6.9-1.7,8.9-3.7l15.3-15.6c2-2,3.7-6.2,3.7-9.1v-22
				c0-2.9-1.7-7-3.7-9.1L170.4,314.6z"/>
			<path class="st2" d="M175.5,349.5h-7.5c-0.2-4.2-1.8-8.3-4.7-11.3l5.3-5.4c0.3-0.3,0.3-0.7,0-1c-0.1-0.1-0.3-0.2-0.5-0.2
				s-0.3,0.1-0.5,0.2l-5.4,5.4c-3.1-2.8-7.1-4.5-11.2-4.8V325c0-0.4-0.3-0.7-0.7-0.7s-0.7,0.3-0.7,0.7l0,0v7.6
				c-4.2,0.2-8.1,1.8-11.2,4.8l-5.3-5.4c-0.3-0.3-0.7-0.3-1,0c-0.3,0.3-0.3,0.7,0,1l5.3,5.4c-2.9,3.1-4.5,7.2-4.7,11.3h-7.5
				c-0.4,0-0.7,0.3-0.7,0.7s0.3,0.7,0.7,0.7l0,0h7.5c0.2,4.2,1.8,8.3,4.7,11.3l-5.3,5.4c-0.3,0.3-0.3,0.7,0,1c0.3,0.3,0.7,0.3,1,0
				l5.3-5.4c3.1,2.8,7.1,4.5,11.2,4.8v7.6c0,0.4,0.3,0.7,0.7,0.7s0.7-0.3,0.7-0.7v-7.6c4.2-0.2,8.1-1.8,11.2-4.8l5.3,5.4
				c0.3,0.3,0.7,0.3,1,0c0.3-0.3,0.3-0.7,0-1l-5.3-5.4c2.8-3.1,4.5-7.2,4.7-11.3h7.5c0.4,0,0.7-0.3,0.7-0.7S175.9,349.5,175.5,349.5
				L175.5,349.5z"/>
		</g>
	</g>
	<g>
		<g id="Layer_1_11_">
			
				<linearGradient id="SVGID_17_" gradientUnits="userSpaceOnUse" x1="2491.9072" y1="-4771.1943" x2="2562.8103" y2="-4842.1021" gradientTransform="matrix(1 0 0 1 -2277.1001 5056.6396)">
				<stop  offset="0" style="stop-color:#330AFF"/>
				<stop  offset="1" style="stop-color:#B9B0FF"/>
			</linearGradient>
			<path class="st17" d="M274.8,203.7c-2.1-2.1-6.1-3.7-9-3.7h-31c-2.9,0-7,1.7-9,3.7l-22,21.9c-2,2-3.7,6.1-3.7,9v30.9
				c0,2.9,1.7,7,3.7,9l22,21.8c2.1,2.1,6.1,3.7,9,3.7h31c2.9,0,7-1.7,9-3.7l21.9-21.8c2.1-2.1,3.7-6.1,3.7-9v-31c0-2.9-1.7-7-3.7-9
				L274.8,203.7z"/>
			
				<linearGradient id="SVGID_18_" gradientUnits="userSpaceOnUse" x1="2718.1543" y1="-8915.7402" x2="2662.6121" y2="-8860.1992" gradientTransform="matrix(-1 0 0 -1 2940.6333 -8638.0195)">
				<stop  offset="0" style="stop-color:#B9B0FF"/>
				<stop  offset="1" style="stop-color:#330AFF"/>
			</linearGradient>
			<path class="st18" d="M230.2,285.4c2.1,2.1,6.1,3.7,9,3.7h22c2.9,0,7-1.7,9-3.7l15.6-15.5c2.1-2.1,3.7-6.1,3.7-9V239
				c0-2.9-1.7-7-3.7-9l-15.6-15.5c-2.1-2.1-6.1-3.7-9-3.7h-22c-2.9,0-7,1.7-9,3.7L214.7,230c-2.1,2.1-3.7,6.1-3.7,9v21.9
				c0,2.9,1.7,7,3.7,9L230.2,285.4z"/>
			<path class="st2" d="M248.6,269.1c-6.3,0-12.1-3.1-15.8-8.2c-0.2-0.3-0.1-0.7,0.2-1c0.2-0.1,0.5-0.2,0.7,0
				c2.2,1.2,4.6,1.8,7.1,1.8c7.4,0,13.5-5.3,13.5-11.7c0-6.5-6-11.7-13.5-11.7c-2.5,0-4.9,0.6-7.1,1.8c-0.3,0.2-0.8,0-0.9-0.3
				c-0.1-0.2-0.1-0.5,0-0.7c6-8.7,18.1-10.8,26.7-4.7c8.7,6,10.8,18,4.7,26.6C260.7,266.1,254.8,269.1,248.6,269.1L248.6,269.1z
				 M235.7,262.3c6.8,7.1,18.1,7.3,25.2,0.5c7.1-6.8,7.3-18,0.5-25.1c-6.8-7.1-18.1-7.3-25.2-0.5c-0.2,0.2-0.3,0.3-0.5,0.5
				c1.7-0.5,3.4-0.8,5.1-0.8c8.2,0,14.9,5.9,14.9,13.1c0,7.2-6.6,13.1-14.9,13.1C239.2,263.1,237.4,262.8,235.7,262.3z"/>
		</g>
	</g>
	<g>
		<g id="Layer_1_12_">
			
				<linearGradient id="SVGID_19_" gradientUnits="userSpaceOnUse" x1="-1197.9364" y1="-2619.5388" x2="-1126.8583" y2="-2690.6216" gradientTransform="matrix(1 0 0 1 1412.8199 3005.4995)">
				<stop  offset="0" style="stop-color:#330AFF"/>
				<stop  offset="1" style="stop-color:#B9B0FF"/>
			</linearGradient>
			<path class="st19" d="M275,303.9c-2.1-2.1-6.1-3.7-9-3.7h-31.1c-2.9,0-7,1.7-9,3.7l-22,22c-2,2-3.7,6.1-3.7,9V366
				c0,2.9,1.7,7,3.7,9l22,21.9c2.1,2.1,6.1,3.7,9,3.7h31.1c2.9,0,7-1.7,9-3.7l21.9-21.9c2.1-2.1,3.7-6.1,3.7-9V335
				c0-2.9-1.7-7-3.7-9L275,303.9z"/>
			
				<linearGradient id="SVGID_20_" gradientUnits="userSpaceOnUse" x1="5864.0015" y1="-11067.4023" x2="5808.3223" y2="-11011.7178" gradientTransform="matrix(-1 0 0 -1 6086.5537 -10689.1602)">
				<stop  offset="0" style="stop-color:#B9B0FF"/>
				<stop  offset="1" style="stop-color:#330AFF"/>
			</linearGradient>
			<path class="st20" d="M230.3,386c2.1,2.1,6.1,3.7,9,3.7h22c2.9,0,7-1.7,9-3.7l15.6-15.6c2.1-2.1,3.7-6.1,3.7-9v-22
				c0-2.9-1.7-7-3.7-9l-15.6-15.6c-2.1-2.1-6.1-3.7-9-3.7h-22c-2.9,0-7,1.7-9,3.7l-15.6,15.6c-2.1,2.1-3.7,6.1-3.7,9v22
				c0,2.9,1.7,7,3.7,9L230.3,386z"/>
			<path class="st2" d="M275.8,349.7h-7.5c-0.2-4.2-1.8-8.2-4.7-11.4l5.3-5.3c0.3-0.3,0.3-0.7,0-1c-0.3-0.3-0.7-0.3-1,0l-5.3,5.3
				c-3.1-2.9-7.1-4.5-11.4-4.7v-7.5c0-0.4-0.3-0.7-0.7-0.7s-0.7,0.3-0.7,0.7l0,0v7.5c-4.2,0.2-8.2,1.8-11.4,4.7l-5.3-5.3
				c-0.3-0.3-0.7-0.3-1,0c-0.3,0.3-0.3,0.7,0,1l5.3,5.3c-2.9,3.1-4.5,7.1-4.7,11.4h-7.5c-0.4,0-0.7,0.3-0.7,0.7
				c0,0.4,0.3,0.7,0.7,0.7l0,0h7.5c0.2,4.2,1.8,8.2,4.7,11.4l-5.3,5.3c-0.3,0.3-0.3,0.7,0,1c0.1,0.1,0.3,0.2,0.5,0.2
				c0.2,0,0.3-0.1,0.5-0.2l5.3-5.3c3.1,2.9,7.1,4.5,11.4,4.7v7.5c0,0.4,0.3,0.7,0.7,0.7s0.7-0.3,0.7-0.7v-7.5
				c4.2-0.2,8.2-1.8,11.4-4.7l5.3,5.3c0.3,0.3,0.7,0.3,1,0c0.3-0.3,0.3-0.7,0-1l-5.3-5.3c2.9-3.1,4.5-7.1,4.7-11.4h7.5
				c0.4,0,0.7-0.3,0.7-0.7C276.5,350,276.2,349.7,275.8,349.7L275.8,349.7z M250.4,366.8c-9,0-16.4-7.3-16.4-16.4
				c0-9,7.3-16.4,16.4-16.4s16.4,7.3,16.4,16.4C266.8,359.5,259.5,366.8,250.4,366.8z"/>
		</g>
	</g>
</g>
<g id="Layer_1_13_">
	<g>
		<g id="Layer_1_1_">
			
				<linearGradient id="SVGID_21_" gradientUnits="userSpaceOnUse" x1="2292.3984" y1="-4971.2231" x2="2363.155" y2="-5041.9844" gradientTransform="matrix(1 0 0 1 -2277.1001 5056.6396)">
				<stop  offset="0" style="stop-color:#BCBEC0"/>
				<stop  offset="1" style="stop-color:#FFFFFF"/>
			</linearGradient>
			<path class="st21" d="M75.1,3.7C73,1.6,69,0,66.1,0H35.2c-2.9,0-7,1.7-9,3.7L4.4,25.6c-2,2-3.7,6.1-3.7,9v30.9c0,2.9,1.7,7,3.7,9
				l21.9,21.8c2.1,2.1,6.1,3.7,9,3.7h30.9c2.9,0,7-1.7,9-3.7L97,74.5c2.1-2.1,3.7-6.1,3.7-9V34.6c0-2.9-1.7-7-3.7-9L75.1,3.7z"/>
			
				<linearGradient id="SVGID_22_" gradientUnits="userSpaceOnUse" x1="1509.713" y1="-8715.7617" x2="1454.2539" y2="-8660.3027" gradientTransform="matrix(-1 0 0 -1 1532.6334 -8638.0195)">
				<stop  offset="0" style="stop-color:#FFFFFF"/>
				<stop  offset="1" style="stop-color:#BCBEC0"/>
			</linearGradient>
			<path class="st22" d="M30.7,85.5c2.1,2.1,6.1,3.7,9,3.7h21.9c2.9,0,7-1.7,9-3.7L86.1,70c2.1-2.1,3.7-6.1,3.7-9V39
				c0-2.9-1.7-7-3.7-9L70.6,14.5c-2.1-2.1-6.1-3.7-9-3.7H39.7c-2.9,0-7,1.7-9,3.7L15.2,30c-2.1,2.1-3.7,6.1-3.7,9v21.9
				c0,2.9,1.7,7,3.7,9L30.7,85.5z"/>
			<path class="st2" d="M49,69.1c-6.3,0-12.1-3.1-15.7-8.2c-0.2-0.3-0.1-0.7,0.2-1c0.2-0.1,0.5-0.2,0.7,0c2.2,1.2,4.6,1.8,7.1,1.8
				c7.4,0,13.4-5.3,13.4-11.7s-6-11.7-13.4-11.7c-2.5,0-4.9,0.6-7.1,1.8c-0.3,0.2-0.8,0-0.9-0.3c-0.1-0.2-0.1-0.5,0-0.7
				c6-8.7,18-10.8,26.6-4.7s10.8,18,4.7,26.6C61.1,66.1,55.3,69.1,49,69.1L49,69.1z M36.2,62.3c6.8,7.1,18,7.3,25.1,0.5
				s7.3-18,0.5-25.1s-18-7.3-25.1-0.5c-0.2,0.2-0.3,0.3-0.5,0.5c1.7-0.5,3.4-0.8,5.1-0.8c8.2,0,14.8,5.9,14.8,13.1
				s-6.6,13.1-14.8,13.1C39.6,63.1,37.9,62.9,36.2,62.3z"/>
		</g>
	</g>
	<g>
		<g id="Layer_1_2_">
			
				<linearGradient id="SVGID_23_" gradientUnits="userSpaceOnUse" x1="-1397.9222" y1="-2820.1589" x2="-1326.8191" y2="-2891.2666" gradientTransform="matrix(1 0 0 1 1412.8199 3005.4995)">
				<stop  offset="0" style="stop-color:#BCBEC0"/>
				<stop  offset="1" style="stop-color:#FFFFFF"/>
			</linearGradient>
			<path class="st23" d="M74.9,103.4c-2.1-2.1-6.1-3.7-9.1-3.7h-31c-2.9,0-7,1.7-9,3.7l-22,21.9c-2.1,2-3.7,6.1-3.7,9v30.9
				c0,2.9,1.7,7,3.7,9l22,21.8c2.1,2.1,6.1,3.7,9.1,3.7H66c2.9,0,7-1.7,9.1-3.7l22-21.8c2.1-2.1,3.7-6.1,3.7-9v-30.9
				c0-2.9-1.7-7-3.7-9L74.9,103.4z"/>
			
				<linearGradient id="SVGID_24_" gradientUnits="userSpaceOnUse" x1="4656.0791" y1="-10866.7764" x2="4600.4268" y2="-10811.1201" gradientTransform="matrix(-1 0 0 -1 4678.5537 -10689.1602)">
				<stop  offset="0" style="stop-color:#FFFFFF"/>
				<stop  offset="1" style="stop-color:#BCBEC0"/>
			</linearGradient>
			<path class="st24" d="M30.2,185.2c2.1,2.1,6.1,3.7,9.1,3.7h22.1c2.9,0,7-1.7,9.1-3.7L86,169.7c2.1-2.1,3.7-6.1,3.7-9v-21.9
				c0-2.9-1.7-7-3.7-9l-15.6-15.5c-2.1-2.1-6.1-3.7-9.1-3.7h-22c-2.9,0-7,1.7-9.1,3.7l-15.6,15.5c-2.1,2.1-3.7,6.1-3.7,9v21.9
				c0,2.9,1.7,7,3.7,9L30.2,185.2z"/>
			<path class="st2" d="M75.7,149h-7.6c-0.2-4.2-1.8-8.2-4.7-11.3l5.4-5.3c0.3-0.3,0.3-0.7,0-1s-0.7-0.3-1,0l-5.4,5.3
				c-3.1-2.9-7.1-4.5-11.4-4.7v-7.5c0-0.4-0.3-0.7-0.7-0.7s-0.7,0.3-0.7,0.7l0,0v7.5c-4.2,0.2-8.3,1.8-11.4,4.7l-5.4-5.3
				c-0.3-0.3-0.7-0.3-1,0s-0.3,0.7,0,1l5.4,5.3c-2.9,3.1-4.6,7.1-4.7,11.3H25c-0.4,0-0.7,0.3-0.7,0.7c0,0.4,0.3,0.7,0.7,0.7l0,0h7.6
				c0.2,4.2,1.8,8.2,4.7,11.3l-5.4,5.3c-0.3,0.3-0.3,0.7,0,1c0.1,0.1,0.3,0.2,0.5,0.2s0.3-0.1,0.5-0.2l5.4-5.3
				c3.1,2.9,7.2,4.5,11.4,4.7v7.5c0,0.4,0.3,0.7,0.7,0.7s0.7-0.3,0.7-0.7v-7.5c4.2-0.2,8.3-1.8,11.4-4.7l5.4,5.3
				c0.3,0.3,0.7,0.3,1,0c0.3-0.3,0.3-0.7,0-1l-5.4-5.3c2.9-3.1,4.5-7.1,4.7-11.3h7.6c0.4,0,0.7-0.3,0.7-0.7
				C76.4,149.3,76.1,149,75.7,149L75.7,149z M50.3,166c-9.1,0-16.4-7.3-16.4-16.3s7.3-16.3,16.4-16.3s16.4,7.3,16.4,16.3
				C66.7,158.7,59.4,166,50.3,166z"/>
		</g>
	</g>
</g>
</svg>
