<svg id="Layer_1" data-name="Layer 1" xmlns="http://www.w3.org/2000/svg" xmlns:xlink="http://www.w3.org/1999/xlink" viewBox="0 0 783.42 117.66"><defs><style>.cls-1{fill:url(#linear-gradient);}</style><linearGradient id="linear-gradient" x1="391.71" y1="3.71" x2="391.71" y2="119.39" gradientUnits="userSpaceOnUse"><stop offset="0" stop-color="#36005f"/><stop offset="1" stop-color="#36005f" stop-opacity="0"/></linearGradient></defs><path class="cls-1" d="M87,54.45c66.21-4.76,133.91-3,200.36-3.86,7.32-.09,14.73-.19,21.79-1.51,22.55-4.25,36-19.49,53.45-30.12,37.9-23,96.9-23.54,143.47-9.76,16.48,4.88,32.12,11.36,49.58,14.25,20.86,3.46,42.71,1.55,64.18,1.3,56.92-.68,117.09,12.18,152.61,42.54,8,6.85,14.79,16.38,8.58,24.06-2.34,2.9-6.24,5.05-10.21,7-39.11,18.81-90.31,20.28-138.12,19-80.16-2.1-159.7-7.59-240-7.32-123.31.42-247.73,1.72-368-19.7C11.3,87.94-5.45,80.05,1.72,72.05,4,69.54,8.09,68.14,12,67,36,59.88,61.19,56.31,87,54.45Z"/></svg>