<svg id="Layer_1" data-name="Layer 1" xmlns="http://www.w3.org/2000/svg" xmlns:xlink="http://www.w3.org/1999/xlink" viewBox="0 0 921 162.34"><defs><style>.cls-1{fill:url(#linear-gradient);}</style><linearGradient id="linear-gradient" x1="460.5" y1="-21.52" x2="460.5" y2="142.58" gradientUnits="userSpaceOnUse"><stop offset="0" stop-color="#36005f"/><stop offset="1" stop-color="#36005f" stop-opacity="0"/></linearGradient></defs><path class="cls-1" d="M390.05,22.1c4.64,2.68,9,5.53,13.18,8.5,19.31,13.83,33.56,30.16,46.94,46.57A1033.84,1033.84,0,0,1,590,69.62c19.16.26,46.28-1,62.06,11.9,5.05,4.11,8,9.77,14.07,12.71,9.63,4.67,23,4.44,33.52,5.7,48.82,5.86,98,7.81,147,10.58,11.92.67,73.41-1,74.32,15.3.19,3.26-1.55,6.39-3.92,8.63a33.18,33.18,0,0,1-8.25,5.21c-15.49,7.74-35.65,6.34-52.7,7.24-20.31,1.07-40.65,1.54-61,1.68-40,.29-80-.72-120.06-1C567.16,146.85,458.88,144,351.3,151c-56,3.66-111.57,10-167.8,11.14S69.37,158.89,19.57,142.28c-9.11-3-18.92-7.48-19.54-14-.64-6.75,8.88-12,17.9-15.58,24-9.57,51-16,79-18.67,36.61-3.54,44.56-36.84,69.78-53.77,29-19.48,67.55-33.43,109.18-38.39,18-2.15,36.7-2.71,54.62-.27A163.35,163.35,0,0,1,390.05,22.1Z"/></svg>