<svg id="Layer_1" data-name="Layer 1" xmlns="http://www.w3.org/2000/svg" xmlns:xlink="http://www.w3.org/1999/xlink" viewBox="0 0 1296.95 145.14"><defs><style>.cls-1{fill:url(#linear-gradient);}</style><linearGradient id="linear-gradient" x1="648.47" y1="-19.68" x2="648.47" y2="126.42" gradientUnits="userSpaceOnUse"><stop offset="0" stop-color="#36005f"/><stop offset="1" stop-color="#36005f" stop-opacity="0"/></linearGradient></defs><path class="cls-1" d="M1051.69.11c30.71.88,59.6,7.42,86.82,25.55,7.91,5.27,15.46,11.31,24.3,14.83,17,6.76,41,9.69,59.17,8.58,15.45-1,31.14-4,46.22-.47s29.63,16.13,28.71,31.57c-.56,9.19-6.41,17.28-13.25,23.45-26.28,23.67-65.28,24.59-100.65,24.21l-129.62-1.4c-34.56-.38-69.3-.74-103.46,4.51-19.17,2.94-38,7.64-57.23,10.44-31.79,4.63-64.09,4-96.2,3.17-205-5.43-410-20-614.89-11.07-36.85,1.62-74,4-110.45-1.59a203.71,203.71,0,0,1-50.17-14C14.29,115-1.72,109.42.15,99.63.85,96,3.49,93,6.27,90.52c15.33-13.65,37-17.51,57.52-18,31.52-.73,62.74-.28,94.2-1.43l173-6.33c52.17-1.91,104.4-3.81,156.54-1.44C571.1,67.13,655,81.91,738,71c27.71-3.64,54.94-10.17,81.85-17.64,26.42-7.34,50.21-17.07,75.62-26.8,42-16.07,85.1-23.39,129.76-26C1034.21.06,1043-.14,1051.69.11Z"/></svg>