<svg id="Layer_1" data-name="Layer 1" xmlns="http://www.w3.org/2000/svg" xmlns:xlink="http://www.w3.org/1999/xlink" viewBox="0 0 817.1 189.86"><defs><style>.cls-1{fill:url(#linear-gradient);}</style><linearGradient id="linear-gradient" x1="453.38" y1="-58.27" x2="376.59" y2="271.2" gradientUnits="userSpaceOnUse"><stop offset="0" stop-color="#4e0096"/><stop offset="0.75" stop-color="#f8656b"/><stop offset="0.78" stop-color="#ff6969"/><stop offset="1" stop-color="#ff8585"/></linearGradient></defs><path class="cls-1" d="M813.94,147.85c2.7,2.54,4,5.66,2.54,8.5-1.67,3.19-6.57,5.46-11.83,6.51s-10.9,1.07-16.44,1.09C770.4,164,752.45,164,735,162c-34.29-4-70.93,4.12-103.76,9.95-47.48,8.43-95.55,18.14-145.63,17.89-80.36-.41-152.2-25.68-229.8-34.67-74.65-8.64-157.4-1.33-227.95-20.41C15.24,131.38,1.89,126,.27,117.72-6,86,98.14,91,126.62,89.65c5.56-.26,11.37-.58,16.07-2.39s7.67-5,10.26-8c17.18-20.06,28.62-42.36,53.22-59.37s69-26.9,99.77-14.08c11.28,4.69,20.61,12.21,34.23,13.05,8.09.5,15.93-1.54,23.59-3.17,47.87-10.17,104.13-4.4,143.75,14.74,4.07,2,8,4.09,12.87,5.3s10.17,1.41,15.4,1.65c25.37,1.2,51.58,4.2,72,13.39s33.12,26,24.09,40.39c-2.65,4.22-6.88,9.23-2.31,12.8,2,1.53,5.1,2.3,8.13,2.92C659.9,111.41,684,111,707,113.75s47.13,10.13,54.7,23.54c-.32-.57,22.26.12,24.09.23,11,.66,19.35,3.75,26.55,9A17,17,0,0,1,813.94,147.85Z"/></svg>