<svg id="Layer_1" data-name="Layer 1" xmlns="http://www.w3.org/2000/svg" xmlns:xlink="http://www.w3.org/1999/xlink" viewBox="0 0 1080 1920"><defs><style>.cls-1{fill:none;}.cls-2{clip-path:url(#clip-path);}.cls-3{fill:url(#linear-gradient);}.cls-4{fill:url(#linear-gradient-2);}.cls-5{fill:url(#linear-gradient-3);}.cls-6{fill:url(#linear-gradient-4);}.cls-7{fill:url(#linear-gradient-5);}.cls-8{fill:url(#linear-gradient-6);}.cls-9{fill:url(#linear-gradient-7);}.cls-10{fill:url(#linear-gradient-8);}.cls-11{fill:url(#linear-gradient-9);}.cls-12{fill:url(#linear-gradient-10);}.cls-13{fill:url(#linear-gradient-11);}.cls-14{fill:url(#linear-gradient-12);}.cls-15{fill:url(#linear-gradient-13);}.cls-16{fill:url(#linear-gradient-14);}.cls-17{fill:url(#linear-gradient-15);}.cls-18{fill:url(#linear-gradient-16);}.cls-19{fill:url(#linear-gradient-17);}.cls-20{fill:url(#linear-gradient-18);}.cls-21{fill:url(#linear-gradient-19);}.cls-22{fill:url(#linear-gradient-20);}.cls-23{fill:url(#linear-gradient-21);}.cls-24{fill:url(#linear-gradient-22);}.cls-25{fill:url(#linear-gradient-23);}.cls-26{fill:url(#linear-gradient-24);}.cls-27{fill:url(#linear-gradient-25);}.cls-28{fill:url(#linear-gradient-26);}.cls-29{fill:url(#linear-gradient-27);}.cls-30{fill:url(#linear-gradient-28);}.cls-31{fill:url(#linear-gradient-29);}.cls-32{fill:url(#linear-gradient-30);}.cls-33{fill:url(#linear-gradient-31);}.cls-34{fill:url(#linear-gradient-32);}.cls-35{fill:url(#linear-gradient-33);}.cls-36{fill:url(#linear-gradient-34);}.cls-37{fill:url(#linear-gradient-35);}.cls-38{fill:url(#linear-gradient-36);}.cls-39{fill:url(#linear-gradient-37);}.cls-40{fill:url(#linear-gradient-38);}.cls-41{fill:url(#linear-gradient-39);}.cls-42{fill:url(#linear-gradient-40);}.cls-43{fill:url(#linear-gradient-41);}.cls-44{fill:url(#linear-gradient-42);}.cls-45{fill:url(#linear-gradient-43);}.cls-46{fill:url(#linear-gradient-44);}.cls-47{fill:url(#linear-gradient-45);}.cls-48{fill:url(#linear-gradient-46);}.cls-49{fill:url(#linear-gradient-47);}.cls-50{fill:url(#linear-gradient-48);}.cls-51{fill:url(#linear-gradient-49);}.cls-52{fill:url(#linear-gradient-50);}.cls-53{fill:url(#linear-gradient-51);}.cls-54{fill:url(#linear-gradient-52);}.cls-55{fill:url(#linear-gradient-53);}.cls-56{fill:url(#linear-gradient-54);}.cls-57{fill:url(#linear-gradient-55);}.cls-58{fill:url(#linear-gradient-56);}.cls-59{fill:url(#linear-gradient-57);}.cls-60{fill:url(#linear-gradient-58);}.cls-61{fill:url(#linear-gradient-59);}.cls-62{fill:url(#linear-gradient-60);}.cls-63{fill:url(#linear-gradient-61);}.cls-64{fill:url(#linear-gradient-62);}.cls-65{fill:url(#linear-gradient-63);}.cls-66{fill:url(#linear-gradient-64);}.cls-67{fill:url(#linear-gradient-65);}.cls-68{fill:url(#linear-gradient-66);}.cls-69{fill:url(#linear-gradient-67);}.cls-70{fill:url(#linear-gradient-68);}</style><clipPath id="clip-path"><rect class="cls-1" width="1080" height="1920"/></clipPath><linearGradient id="linear-gradient" x1="-9658" y1="-9947.82" x2="-9658" y2="-11798.11" gradientTransform="translate(10198 11822)" gradientUnits="userSpaceOnUse"><stop offset="0" stop-color="#4e0096"/><stop offset="0.61" stop-color="#f8656b"/><stop offset="0.63" stop-color="#ff6969"/><stop offset="1" stop-color="#ff8585"/></linearGradient><linearGradient id="linear-gradient-2" x1="15.42" y1="973.33" x2="15.42" y2="-111.79" gradientUnits="userSpaceOnUse"><stop offset="0" stop-color="#fff"/><stop offset="1" stop-color="#fff" stop-opacity="0"/></linearGradient><linearGradient id="linear-gradient-3" x1="11.22" y1="973.33" x2="11.22" y2="-111.79" xlink:href="#linear-gradient-2"/><linearGradient id="linear-gradient-4" x1="-0.98" y1="973.33" x2="-0.98" y2="-111.79" xlink:href="#linear-gradient-2"/><linearGradient id="linear-gradient-5" x1="913.53" y1="973.33" x2="913.53" y2="-111.79" xlink:href="#linear-gradient-2"/><linearGradient id="linear-gradient-6" x1="1016.13" y1="973.33" x2="1016.13" y2="-111.79" xlink:href="#linear-gradient-2"/><linearGradient id="linear-gradient-7" x1="176.41" y1="973.33" x2="176.41" y2="-111.79" xlink:href="#linear-gradient-2"/><linearGradient id="linear-gradient-8" x1="89.83" y1="973.33" x2="89.83" y2="-111.79" xlink:href="#linear-gradient-2"/><linearGradient id="linear-gradient-9" x1="83.51" y1="973.33" x2="83.51" y2="-111.79" xlink:href="#linear-gradient-2"/><linearGradient id="linear-gradient-10" x1="31.81" y1="973.33" x2="31.81" y2="-111.79" xlink:href="#linear-gradient-2"/><linearGradient id="linear-gradient-11" x1="146.77" y1="973.33" x2="146.77" y2="-111.79" xlink:href="#linear-gradient-2"/><linearGradient id="linear-gradient-12" x1="23.07" y1="973.33" x2="23.07" y2="-111.79" xlink:href="#linear-gradient-2"/><linearGradient id="linear-gradient-13" x1="412.69" y1="973.33" x2="412.69" y2="-111.79" xlink:href="#linear-gradient-2"/><linearGradient id="linear-gradient-14" x1="381.9" y1="973.33" x2="381.9" y2="-111.79" xlink:href="#linear-gradient-2"/><linearGradient id="linear-gradient-15" x1="368.96" y1="973.33" x2="368.96" y2="-111.79" xlink:href="#linear-gradient-2"/><linearGradient id="linear-gradient-16" x1="309.27" y1="973.33" x2="309.27" y2="-111.79" xlink:href="#linear-gradient-2"/><linearGradient id="linear-gradient-17" x1="288.78" y1="973.33" x2="288.78" y2="-111.79" xlink:href="#linear-gradient-2"/><linearGradient id="linear-gradient-18" x1="594.06" y1="973.33" x2="594.06" y2="-111.79" xlink:href="#linear-gradient-2"/><linearGradient id="linear-gradient-19" x1="387.87" y1="973.33" x2="387.87" y2="-111.79" xlink:href="#linear-gradient-2"/><linearGradient id="linear-gradient-20" x1="294.68" y1="973.33" x2="294.68" y2="-111.79" xlink:href="#linear-gradient-2"/><linearGradient id="linear-gradient-21" x1="742.52" y1="973.33" x2="742.52" y2="-111.79" xlink:href="#linear-gradient-2"/><linearGradient id="linear-gradient-22" x1="1027.48" y1="973.33" x2="1027.48" y2="-111.79" xlink:href="#linear-gradient-2"/><linearGradient id="linear-gradient-23" x1="985.47" y1="973.33" x2="985.47" y2="-111.79" xlink:href="#linear-gradient-2"/><linearGradient id="linear-gradient-24" x1="515.8" y1="973.33" x2="515.8" y2="-111.79" xlink:href="#linear-gradient-2"/><linearGradient id="linear-gradient-25" x1="737.46" y1="973.33" x2="737.46" y2="-111.79" xlink:href="#linear-gradient-2"/><linearGradient id="linear-gradient-26" x1="960.35" y1="973.33" x2="960.35" y2="-111.79" xlink:href="#linear-gradient-2"/><linearGradient id="linear-gradient-27" x1="1004.08" y1="973.33" x2="1004.08" y2="-111.79" xlink:href="#linear-gradient-2"/><linearGradient id="linear-gradient-28" x1="778.99" y1="973.33" x2="778.99" y2="-111.79" gradientTransform="matrix(1, 0, 0, 1, 0, 0)" xlink:href="#linear-gradient"/><linearGradient id="linear-gradient-29" x1="985.17" y1="973.33" x2="985.17" y2="-111.79" xlink:href="#linear-gradient-2"/><linearGradient id="linear-gradient-30" x1="-4.51" y1="973.33" x2="-4.51" y2="-111.79" xlink:href="#linear-gradient-2"/><linearGradient id="linear-gradient-31" x1="122.01" y1="973.33" x2="122.01" y2="-111.79" xlink:href="#linear-gradient-2"/><linearGradient id="linear-gradient-32" x1="577.6" y1="973.33" x2="577.6" y2="-111.79" xlink:href="#linear-gradient-2"/><linearGradient id="linear-gradient-33" x1="202.1" y1="973.33" x2="202.1" y2="-111.79" xlink:href="#linear-gradient-2"/><linearGradient id="linear-gradient-34" x1="644.26" y1="973.33" x2="644.26" y2="-111.79" xlink:href="#linear-gradient-2"/><linearGradient id="linear-gradient-35" x1="130.72" y1="973.33" x2="130.72" y2="-111.79" xlink:href="#linear-gradient-2"/><linearGradient id="linear-gradient-36" x1="744.12" y1="973.33" x2="744.12" y2="-111.79" xlink:href="#linear-gradient-2"/><linearGradient id="linear-gradient-37" x1="163.7" y1="973.33" x2="163.7" y2="-111.79" xlink:href="#linear-gradient-2"/><linearGradient id="linear-gradient-38" x1="9.28" y1="973.33" x2="9.28" y2="-111.79" xlink:href="#linear-gradient-2"/><linearGradient id="linear-gradient-39" x1="132.91" y1="973.33" x2="132.91" y2="-111.79" xlink:href="#linear-gradient-2"/><linearGradient id="linear-gradient-40" x1="796.2" y1="973.33" x2="796.2" y2="-111.79" xlink:href="#linear-gradient-2"/><linearGradient id="linear-gradient-41" x1="18.45" y1="973.33" x2="18.45" y2="-111.79" xlink:href="#linear-gradient-2"/><linearGradient id="linear-gradient-42" x1="885.62" y1="973.33" x2="885.62" y2="-111.79" xlink:href="#linear-gradient-2"/><linearGradient id="linear-gradient-43" x1="420.67" y1="973.33" x2="420.67" y2="-111.79" xlink:href="#linear-gradient-2"/><linearGradient id="linear-gradient-44" x1="288.79" y1="973.33" x2="288.79" y2="-111.79" xlink:href="#linear-gradient-2"/><linearGradient id="linear-gradient-45" x1="53.59" y1="973.33" x2="53.59" y2="-111.79" xlink:href="#linear-gradient-2"/><linearGradient id="linear-gradient-46" x1="180.8" y1="973.33" x2="180.8" y2="-111.79" xlink:href="#linear-gradient-2"/><linearGradient id="linear-gradient-47" x1="167.93" y1="973.33" x2="167.93" y2="-111.79" xlink:href="#linear-gradient-2"/><linearGradient id="linear-gradient-48" x1="983.52" y1="973.33" x2="983.52" y2="-111.79" xlink:href="#linear-gradient-2"/><linearGradient id="linear-gradient-49" x1="1040.24" y1="973.33" x2="1040.24" y2="-111.79" xlink:href="#linear-gradient-2"/><linearGradient id="linear-gradient-50" x1="510.43" y1="973.33" x2="510.43" y2="-111.79" xlink:href="#linear-gradient-2"/><linearGradient id="linear-gradient-51" x1="323.7" y1="973.33" x2="323.7" y2="-111.79" xlink:href="#linear-gradient-2"/><linearGradient id="linear-gradient-52" x1="371.25" y1="973.33" x2="371.25" y2="-111.79" xlink:href="#linear-gradient-2"/><linearGradient id="linear-gradient-53" x1="554.64" y1="973.33" x2="554.64" y2="-111.79" xlink:href="#linear-gradient-2"/><linearGradient id="linear-gradient-54" x1="650.95" y1="973.33" x2="650.95" y2="-111.79" xlink:href="#linear-gradient-2"/><linearGradient id="linear-gradient-55" x1="599.37" y1="973.33" x2="599.37" y2="-111.79" xlink:href="#linear-gradient-2"/><linearGradient id="linear-gradient-56" x1="416.44" y1="973.33" x2="416.44" y2="-111.79" xlink:href="#linear-gradient-2"/><linearGradient id="linear-gradient-57" x1="637.01" y1="973.33" x2="637.01" y2="-111.79" xlink:href="#linear-gradient-2"/><linearGradient id="linear-gradient-58" x1="671.18" y1="973.33" x2="671.18" y2="-111.79" xlink:href="#linear-gradient-2"/><linearGradient id="linear-gradient-59" x1="726.93" y1="973.33" x2="726.93" y2="-111.79" xlink:href="#linear-gradient-2"/><linearGradient id="linear-gradient-60" x1="751.28" y1="973.33" x2="751.28" y2="-111.79" xlink:href="#linear-gradient-2"/><linearGradient id="linear-gradient-61" x1="679.89" y1="973.33" x2="679.89" y2="-111.79" xlink:href="#linear-gradient-2"/><linearGradient id="linear-gradient-62" x1="811.5" y1="973.33" x2="811.5" y2="-111.79" xlink:href="#linear-gradient-2"/><linearGradient id="linear-gradient-63" x1="932.6" y1="973.33" x2="932.6" y2="-111.79" xlink:href="#linear-gradient-2"/><linearGradient id="linear-gradient-64" x1="870.85" y1="973.33" x2="870.85" y2="-111.79" xlink:href="#linear-gradient-2"/><linearGradient id="linear-gradient-65" x1="1047.64" y1="973.33" x2="1047.64" y2="-111.79" xlink:href="#linear-gradient-2"/><linearGradient id="linear-gradient-66" x1="815.49" y1="973.33" x2="815.49" y2="-111.79" xlink:href="#linear-gradient-2"/><linearGradient id="linear-gradient-67" x1="948.02" y1="973.33" x2="948.02" y2="-111.79" xlink:href="#linear-gradient-2"/><linearGradient id="linear-gradient-68" x1="1006.12" y1="973.33" x2="1006.12" y2="-111.79" xlink:href="#linear-gradient-2"/></defs><g class="cls-2"><rect class="cls-3" width="1080" height="1920" transform="translate(1080 1920) rotate(180)"/><path class="cls-4" d="M13.32,97h0a2.1,2.1,0,1,0,2.1-2.23A2.17,2.17,0,0,0,13.32,97Z"/><path class="cls-5" d="M9.12,203.27h0a2.17,2.17,0,0,0,2.1,2.22,2.23,2.23,0,0,0,0-4.45,2.18,2.18,0,0,0-2.1,2.23Z"/><path class="cls-6" d="M-3.08,493.65h0A2.17,2.17,0,0,0-1,495.87a2.17,2.17,0,0,0,2.1-2.22A2.17,2.17,0,0,0-1,491.43a2.17,2.17,0,0,0-2.1,2.22Z"/><path class="cls-7" d="M915.63,816.14a2.1,2.1,0,1,0-2.1,2.22,2.18,2.18,0,0,0,2.1-2.22Z"/><path class="cls-8" d="M1025.58,850.07c0-5.45-4.3-10-9.45-10s-9.45,4.55-9.45,10,4.3,10,9.45,10,9.45-4.55,9.45-10Z"/><path class="cls-9" d="M173.26,646.21h0a3.16,3.16,0,1,0,3.15-3.34,3.28,3.28,0,0,0-3.15,3.34Z"/><path class="cls-10" d="M87.36,675.51h0a2.1,2.1,0,1,0,4.2,0,2.8,2.8,0,0,0-.08-.59,2.32,2.32,0,0,0,.83-1.77,2.1,2.1,0,1,0-4.2,0,2.8,2.8,0,0,0,.08.59,2.32,2.32,0,0,0-.83,1.77Z"/><path class="cls-11" d="M81.41,769.12h0a2.1,2.1,0,1,0,2.1-2.22,2.19,2.19,0,0,0-2.1,2.22Z"/><path class="cls-12" d="M29.71,784.45h0a2.1,2.1,0,1,0,2.1-2.22,2.18,2.18,0,0,0-2.1,2.22Z"/><path class="cls-13" d="M143.62,795.58h0a3.16,3.16,0,1,0,3.15-3.34,3.28,3.28,0,0,0-3.15,3.34Z"/><path class="cls-14" d="M21.9,43.19a1.31,1.31,0,0,0,1.82.56,1.46,1.46,0,0,0,.53-1.93,1.31,1.31,0,0,0-1.82-.56,1.46,1.46,0,0,0-.53,1.93Z"/><path class="cls-15" d="M410.17,536.44a2.82,2.82,0,0,0,3.91,1.2,3.16,3.16,0,0,0,1.13-4.14,2.81,2.81,0,0,0-3.91-1.2,3.16,3.16,0,0,0-1.13,4.14Z"/><path class="cls-16" d="M379.37,511.9a2.82,2.82,0,0,0,3.92,1.2,3.16,3.16,0,0,0,1.13-4.14,2.82,2.82,0,0,0-3.91-1.2,3.18,3.18,0,0,0-1.14,4.14Z"/><path class="cls-17" d="M366.43,445.79a2.82,2.82,0,0,0,3.92,1.2,3.17,3.17,0,0,0,1.13-4.14,2.81,2.81,0,0,0-3.91-1.2,3.18,3.18,0,0,0-1.14,4.14Z"/><path class="cls-18" d="M306.74,450.59a2.82,2.82,0,0,0,3.91,1.2,3.17,3.17,0,0,0,1.14-4.14,2.82,2.82,0,0,0-3.91-1.21,3.18,3.18,0,0,0-1.14,4.15Z"/><path class="cls-19" d="M286.26,436.37a2.82,2.82,0,0,0,3.91,1.2,3.18,3.18,0,0,0,1.14-4.14,2.82,2.82,0,0,0-3.92-1.2,3.16,3.16,0,0,0-1.13,4.14Z"/><path class="cls-20" d="M591.53,783a2.82,2.82,0,0,0,3.91,1.2,3.17,3.17,0,0,0,1.14-4.14,2.82,2.82,0,0,0-3.91-1.21,3.18,3.18,0,0,0-1.14,4.15Z"/><path class="cls-21" d="M385.35,364.09a2.81,2.81,0,0,0,3.91,1.2,3.16,3.16,0,0,0,1.13-4.14,2.81,2.81,0,0,0-3.91-1.2,3.16,3.16,0,0,0-1.13,4.14Z"/><path class="cls-22" d="M292.16,236a2.81,2.81,0,0,0,3.91,1.21,3.17,3.17,0,0,0,1.14-4.14,2.81,2.81,0,0,0-3.91-1.21,3.16,3.16,0,0,0-1.14,4.14Z"/><path class="cls-23" d="M734.84,69h0a7.69,7.69,0,1,0,7.68-8.14A8,8,0,0,0,734.84,69Z"/><path class="cls-24" d="M1025.46,145.44h0a2,2,0,1,0,2-2.13,2.09,2.09,0,0,0-2,2.13Z"/><path class="cls-25" d="M984.12,149.6h0a1.35,1.35,0,1,0,1.35-1.42,1.39,1.39,0,0,0-1.35,1.42Z"/><path class="cls-26" d="M512.92,192.58h0a2.88,2.88,0,1,0,2.88-3.05,3,3,0,0,0-2.88,3.05Z"/><path class="cls-27" d="M733.62,264.85h0a3.85,3.85,0,1,0,3.84-4.07,4,4,0,0,0-3.84,4.07Z"/><path class="cls-28" d="M962.88,181.81h0a3.17,3.17,0,0,0-1.14-4.14,2.81,2.81,0,0,0-3.91,1.2A3.17,3.17,0,0,0,959,183a2.82,2.82,0,0,0,3.91-1.2Z"/><path class="cls-29" d="M1006.61,91.16h0a3.17,3.17,0,0,0-1.14-4.14,2.81,2.81,0,0,0-3.91,1.2,3.17,3.17,0,0,0,1.14,4.14,2.81,2.81,0,0,0,3.91-1.2Z"/><path class="cls-30" d="M781.51,428.4h0a3.18,3.18,0,0,0-1.14-4.15,2.81,2.81,0,0,0-3.91,1.21,3.17,3.17,0,0,0,1.14,4.14,2.82,2.82,0,0,0,3.91-1.2Z"/><path class="cls-31" d="M987.69,9.46h0a3.16,3.16,0,0,0-1.13-4.14,2.81,2.81,0,0,0-3.91,1.2,3.16,3.16,0,0,0,1.13,4.14,2.81,2.81,0,0,0,3.91-1.2Z"/><path class="cls-32" d="M.92,74.08a7.45,7.45,0,0,0-10.86,0,8.56,8.56,0,0,0,0,11.5,7.44,7.44,0,0,0,10.86,0,8.56,8.56,0,0,0,0-11.5Z"/><path class="cls-33" d="M124.05,4.8a2.79,2.79,0,0,0-4.08,0,3.22,3.22,0,0,0,0,4.32,2.79,2.79,0,0,0,4.08,0,3.22,3.22,0,0,0,0-4.32Z"/><path class="cls-34" d="M579.64,37.62a2.78,2.78,0,0,0-4.07,0,3.22,3.22,0,0,0,0,4.32,2.78,2.78,0,0,0,4.07,0,3.22,3.22,0,0,0,0-4.32Z"/><path class="cls-35" d="M204.14-5.09a2.78,2.78,0,0,0-4.07,0,3.21,3.21,0,0,0,0,4.31,2.78,2.78,0,0,0,4.07,0,3.19,3.19,0,0,0,0-4.31Z"/><path class="cls-36" d="M647,63.94a3.72,3.72,0,0,0-5.43,0,4.28,4.28,0,0,0,0,5.75,3.72,3.72,0,0,0,5.43,0,4.26,4.26,0,0,0,0-5.75Z"/><path class="cls-37" d="M132.75,87.73a2.78,2.78,0,0,0-4.07,0,3.22,3.22,0,0,0,0,4.32,2.78,2.78,0,0,0,4.07,0,3.2,3.2,0,0,0,0-4.32Z"/><path class="cls-38" d="M747.3,8.27a4.35,4.35,0,0,0-6.37,0,5,5,0,0,0,0,6.74,4.37,4.37,0,0,0,6.37,0,5,5,0,0,0,0-6.74Z"/><path class="cls-39" d="M165.73,105.1a2.78,2.78,0,0,0-4.07,0,3.21,3.21,0,0,0,0,4.31,2.78,2.78,0,0,0,4.07,0,3.21,3.21,0,0,0,0-4.31Z"/><path class="cls-40" d="M11.18,286.19a2.6,2.6,0,0,0-3.8,0,3,3,0,0,0,0,4,2.6,2.6,0,0,0,3.8,0,3,3,0,0,0,0-4Z"/><path class="cls-41" d="M135.63,187.34a3.72,3.72,0,0,0-5.43,0,4.27,4.27,0,0,0,0,5.76,3.72,3.72,0,0,0,5.43,0,4.29,4.29,0,0,0,0-5.76Z"/><path class="cls-42" d="M800.45,56.31a5.82,5.82,0,0,0-8.49,0,6.68,6.68,0,0,0,0,9,5.81,5.81,0,0,0,8.49,0,6.7,6.7,0,0,0,0-9Z"/><path class="cls-43" d="M19.81,400.84a1.86,1.86,0,0,0-2.72,0,2.13,2.13,0,0,0,0,2.87,1.86,1.86,0,0,0,2.72,0,2.13,2.13,0,0,0,0-2.87Z"/><path class="cls-44" d="M893.26,143.12a10.47,10.47,0,0,0-15.27,0,12,12,0,0,0,0,16.18,10.47,10.47,0,0,0,15.27,0,12,12,0,0,0,0-16.18Z"/><path class="cls-45" d="M426.77,144.28a8.36,8.36,0,0,0-12.21,0,9.63,9.63,0,0,0,0,12.94,8.38,8.38,0,0,0,12.21,0,9.63,9.63,0,0,0,0-12.94Z"/><path class="cls-46" d="M294.9,310a8.38,8.38,0,0,0-12.22,0,9.63,9.63,0,0,0,0,12.94,8.39,8.39,0,0,0,12.22,0,9.64,9.64,0,0,0,0-13Z"/><path class="cls-47" d="M54.94,523.27a1.86,1.86,0,0,0-2.71,0,2.12,2.12,0,0,0,0,2.88,1.86,1.86,0,0,0,2.71,0,2.12,2.12,0,0,0,0-2.88Z"/><path class="cls-48" d="M182.84,443.28a2.79,2.79,0,0,0-4.08,0,3.19,3.19,0,0,0,0,4.31,2.78,2.78,0,0,0,4.07,0,3.21,3.21,0,0,0,0-4.31Z"/><path class="cls-49" d="M170,469.86a2.78,2.78,0,0,0-4.07,0,3.18,3.18,0,0,0,0,4.31,2.78,2.78,0,0,0,4.07,0,3.21,3.21,0,0,0,0-4.31Z"/><path class="cls-50" d="M986.7,216.18a4.34,4.34,0,0,0-6.36,0,5,5,0,0,0,0,6.74,4.35,4.35,0,0,0,6.36,0,5,5,0,0,0,0-6.74Z"/><path class="cls-51" d="M1046.34,282.87a8.38,8.38,0,0,0-12.21,0,9.64,9.64,0,0,0,0,12.95,8.38,8.38,0,0,0,12.21,0,9.64,9.64,0,0,0,0-12.95Z"/><path class="cls-52" d="M513,412a3.47,3.47,0,0,0-5.09,0,4,4,0,0,0,0,5.39,3.49,3.49,0,0,0,5.09,0,4,4,0,0,0,0-5.39Z"/><path class="cls-53" d="M325.74,781.87a2.79,2.79,0,0,0-4.07,0,3.2,3.2,0,0,0,0,4.32,2.78,2.78,0,0,0,4.07,0,3.21,3.21,0,0,0,0-4.31Z"/><path class="cls-54" d="M373.28,748.37a2.78,2.78,0,0,0-4.07,0,3.21,3.21,0,0,0,0,4.31,2.78,2.78,0,0,0,4.07,0,3.19,3.19,0,0,0,0-4.31Z"/><path class="cls-55" d="M556,620.25a1.86,1.86,0,0,0-2.72,0,2.13,2.13,0,0,0,0,2.87,1.86,1.86,0,0,0,2.72,0,2.13,2.13,0,0,0,0-2.87Z"/><path class="cls-56" d="M653,574.21a2.78,2.78,0,0,0-4.07,0,3.18,3.18,0,0,0,0,4.31,2.78,2.78,0,0,0,4.07,0,3.21,3.21,0,0,0,0-4.31Z"/><path class="cls-57" d="M601.4,631.71a2.78,2.78,0,0,0-4.07,0,3.21,3.21,0,0,0,0,4.31,2.78,2.78,0,0,0,4.07,0,3.18,3.18,0,0,0,0-4.31Z"/><path class="cls-58" d="M421.87,836.22a7.45,7.45,0,0,0-10.86,0,8.57,8.57,0,0,0,0,11.51,7.45,7.45,0,0,0,10.86,0,8.59,8.59,0,0,0,0-11.51Z"/><path class="cls-59" d="M639,648a2.78,2.78,0,0,0-4.07,0,3.21,3.21,0,0,0,0,4.31,2.78,2.78,0,0,0,4.07,0,3.18,3.18,0,0,0,0-4.31Z"/><path class="cls-60" d="M673.22,708.43a2.79,2.79,0,0,0-4.08,0,3.22,3.22,0,0,0,0,4.32,2.79,2.79,0,0,0,4.08,0,3.22,3.22,0,0,0,0-4.32Z"/><path class="cls-61" d="M729,689.73a2.78,2.78,0,0,0-4.07,0,3.21,3.21,0,0,0,0,4.31,2.78,2.78,0,0,0,4.07,0,3.18,3.18,0,0,0,0-4.31Z"/><path class="cls-62" d="M753.31,698.54a2.78,2.78,0,0,0-4.07,0,3.21,3.21,0,0,0,0,4.31,2.78,2.78,0,0,0,4.07,0,3.19,3.19,0,0,0,0-4.31Z"/><path class="cls-63" d="M681.92,791.36a2.78,2.78,0,0,0-4.07,0,3.22,3.22,0,0,0,0,4.32,2.79,2.79,0,0,0,4.07,0,3.2,3.2,0,0,0,0-4.32Z"/><path class="cls-64" d="M813.54,892.32a2.79,2.79,0,0,0-4.08,0,3.21,3.21,0,0,0,0,4.31,2.79,2.79,0,0,0,4.08,0,3.21,3.21,0,0,0,0-4.31Z"/><path class="cls-65" d="M934.69,249.15a2.21,2.21,0,0,0-1.87-2.44,2.15,2.15,0,0,0-2.31,2,2.22,2.22,0,0,0,1.87,2.45,2.15,2.15,0,0,0,2.31-2Z"/><path class="cls-66" d="M872.94,527.23a2.2,2.2,0,0,0-1.87-2.44,2.14,2.14,0,0,0-2.31,2,2.22,2.22,0,0,0,1.87,2.45,2.15,2.15,0,0,0,2.31-2Z"/><path class="cls-67" d="M1049,586.46a1.41,1.41,0,0,0-1.19-1.56,1.37,1.37,0,0,0-1.48,1.26,1.41,1.41,0,0,0,1.19,1.57,1.38,1.38,0,0,0,1.48-1.27Z"/><path class="cls-68" d="M820.7,337.87a5.55,5.55,0,0,0-4.66-6.12,5.39,5.39,0,0,0-5.77,4.94,5.54,5.54,0,0,0,4.66,6.12,5.39,5.39,0,0,0,5.77-4.94Z"/><path class="cls-69" d="M951.36,682.55a3.53,3.53,0,0,0-3-3.91,3.43,3.43,0,0,0-3.7,3.16,3.55,3.55,0,0,0,3,3.92,3.45,3.45,0,0,0,3.7-3.17Z"/><path class="cls-70" d="M1008.21,469.37a2.21,2.21,0,0,0-1.86-2.45,2.15,2.15,0,0,0-2.31,2,2.21,2.21,0,0,0,1.86,2.45,2.16,2.16,0,0,0,2.31-2Z"/></g></svg>