<svg id="Layer_1" data-name="Layer 1" xmlns="http://www.w3.org/2000/svg" xmlns:xlink="http://www.w3.org/1999/xlink" viewBox="0 0 802.57 244.36"><defs><style>.cls-1{fill:none;}.cls-2{clip-path:url(#clip-path);}.cls-3{fill:url(#linear-gradient);}.cls-4{fill:url(#linear-gradient-2);}</style><clipPath id="clip-path"><rect class="cls-1" x="1275.29" y="-450.82" width="1080" height="1920"/></clipPath><linearGradient id="linear-gradient" x1="737.2" y1="522.51" x2="737.2" y2="-562.61" gradientUnits="userSpaceOnUse"><stop offset="0" stop-color="#fff"/><stop offset="1" stop-color="#fff" stop-opacity="0"/></linearGradient><linearGradient id="linear-gradient-2" x1="393.75" y1="-27.17" x2="406.06" y2="275.94" gradientUnits="userSpaceOnUse"><stop offset="0" stop-color="#4e0096"/><stop offset="0.73" stop-color="#f8656b"/><stop offset="0.76" stop-color="#ff6969"/><stop offset="1" stop-color="#ff8585"/></linearGradient></defs><g class="cls-2"><path class="cls-3" d="M735.1,26.81h0a2.1,2.1,0,1,0,2.1-2.23,2.18,2.18,0,0,0-2.1,2.23Z"/></g><path class="cls-4" d="M286.68,24.26c27.94-11.78,56.89-21.49,87-23.74,55.22-4.12,108.85,17,160.19,37.77,16.14,6.52,32.39,13.1,47,22.52,9.53,6.13,18.29,13.41,27.89,19.43,37.34,23.38,88.13,27.76,131,29.32,23.43.85,51.31,3.25,60.14,13.07,5.86,6.52.67,13.88-4.53,20.51l-26.62,33.94c-4.46,5.67-9,11.44-16.92,16.29-14.56,8.92-38.55,13.61-62.09,16.76-53.15,7.12-109.52,8.09-162.3,15.78-21.7,3.16-36.18,9.75-57.06,13.23-26.29,4.38-57.21,5.14-84.95,5.22-49,.13-97.72-3.3-146.71-3.75-24.81-.23-50.52.24-73.42-4.08C138.17,231.4,113,217.84,85.73,213.4c-12-2-24.2-2-36.32-3a252.27,252.27,0,0,1-33.14-4.82c-5.21-1.12-10.89-2.75-13.79-7.22a17.81,17.81,0,0,1-2.33-8c-2.26-23.33,21.6-40.79,41.91-45.57,17.82-4.2,36.46-2.87,54.6-5.33,23.85-3.22,46.3-12.88,68.17-22.9,11.58-5.3,23.42-11,32-20.38,7.06-7.73,11.45-17.5,17.66-25.94,13.91-18.91,35.9-29.92,57.33-39.51Q279.21,27.42,286.68,24.26Z"/></svg>