<svg id="Layer_1" data-name="Layer 1" xmlns="http://www.w3.org/2000/svg" xmlns:xlink="http://www.w3.org/1999/xlink" viewBox="0 0 895.88 192.57"><defs><style>.cls-1{fill:url(#linear-gradient);}</style><linearGradient id="linear-gradient" x1="445.63" y1="230.22" x2="455.56" y2="-97.44" gradientUnits="userSpaceOnUse"><stop offset="0" stop-color="#4e0096"/><stop offset="0.61" stop-color="#f8656b"/><stop offset="0.63" stop-color="#ff6969"/><stop offset="1" stop-color="#ff8585"/></linearGradient></defs><path class="cls-1" d="M218.05,173.76c35.06,5.67,70.45,10.19,106,10.3a347.34,347.34,0,0,0,50-3.41c18.26-2.6,35.62-.17,53.73,2.59a768.83,768.83,0,0,0,100.84,8.57c27.84.53,61.68,3.53,87.88-7.66a27.75,27.75,0,0,1,7.9-2.61c3.55-.47,7.66,0,11.54.4,18.8,2,37.79,3.41,56.68,4.09,17.66.63,35.28-.16,52.77.93,36.63,2.29,76.63.73,110.56-2.89,12.57-1.34,25.31-3.28,33-7.48,14.29-7.82,4.9-21.24-15.08-28.87-34.59-13.21-72.26-3.95-104.83-22.59C754.34,116.69,741,106,726,97.91c-21.72-11.68-46.94-17.8-65.11-34.46-8.32-7.63-14.7-17.09-22.29-25.43-26-28.58-66.85-42.82-105-36.57C499,7.14,467,28.42,431.9,26.93,409.75,26,389,16,367,13,313.9,5.87,262.07,38.61,219.34,66c-9.62,6.16-19.51,13-24.51,23.33-1.83,3.74-44.14,3.63-51.72,6.43-7,2.6-15.68,6.77-19.29,13.81-3.37,6.58-.5,13-10.55,13.8-35.82,2.84-72.75-.17-106.85,11.14-3,1-6.51,2.87-6.42,6,.09,2.79,3,4.52,5.56,5.62,34.88,14.84,80.19,11.93,117.35,11,6.47-.16,13.18-.4,19.59.65,5.11.84,9.5,2.43,14,3.82,12.49,3.83,26.64,6.33,40.65,8.72Q207.59,172.05,218.05,173.76Z"/></svg>