<svg id="Layer_1" data-name="Layer 1" xmlns="http://www.w3.org/2000/svg" viewBox="0 0 400 120"><defs><style>.cls-1{fill:#fff;}</style></defs><path class="cls-1" d="M113.19,63H100.41V74.4H97.13V49.31h3.28v11h12.78v-11h3.27V74.4h-3.27Z"/><path class="cls-1" d="M121.47,49.24a2.2,2.2,0,1,1,2.23,2.23A2.19,2.19,0,0,1,121.47,49.24Zm.54,5.44h3.27V74.4H122Z"/><path class="cls-1" d="M139,54.35a8.11,8.11,0,0,1,7.34,3.93v-3.6h3.31V74.83c0,5.44-3.63,9.29-9.43,9.29-5.18,0-8.89-2.63-9.54-6.84h3.24c.72,2.38,3.06,4,6.3,4,3.49,0,6.12-2.23,6.12-6.45V70.7a8.25,8.25,0,0,1-7.34,4c-5.29,0-9.36-4.14-9.36-10.26S133.71,54.35,139,54.35Zm.65,2.85c-3.6,0-6.66,2.62-6.66,7.27s3.06,7.38,6.66,7.38,6.69-2.7,6.69-7.35S143.25,57.2,139.65,57.2Z"/><path class="cls-1" d="M155.2,47.77h3.27v9.75a7.43,7.43,0,0,1,6.52-3.2c4.39,0,7.88,2.8,7.88,8.46V74.4h-3.24V63.24c0-4-2.19-6.08-5.51-6.08s-5.65,2.09-5.65,6.34V74.4H155.2Z"/><path class="cls-1" d="M195.81,74.65c-5,0-8.61-2.8-8.68-6.94h3.49c.22,2.08,1.69,4.17,5.19,4.17,3.16,0,5-1.8,5-4.17,0-6.77-13.57-2.45-13.57-11.77,0-4.14,3.34-6.95,8.31-6.95,4.79,0,7.92,2.63,8.31,6.44h-3.6c-.21-1.69-1.79-3.6-4.85-3.63-2.7-.07-4.83,1.33-4.83,4,0,6.48,13.54,2.45,13.54,11.73C204.16,71.13,201.24,74.65,195.81,74.65Z"/><path class="cls-1" d="M217.37,54.35c4.89,0,8.1,2.52,9.11,6.66H223a5.38,5.38,0,0,0-5.58-3.89c-3.6,0-6.26,2.56-6.26,7.38S213.77,72,217.37,72c2.92,0,4.86-1.41,5.58-3.89h3.53c-1,3.92-4.22,6.66-9.11,6.66-5.62,0-9.61-4-9.61-10.23S211.75,54.35,217.37,54.35Z"/><path class="cls-1" d="M239.44,74.73c-5.58,0-9.83-4-9.83-10.23s4.39-10.15,10-10.15,10,3.93,10,10.15A9.78,9.78,0,0,1,239.44,74.73Zm0-2.88c3.42,0,6.76-2.34,6.76-7.35s-3.27-7.3-6.66-7.3S233,59.54,233,64.5,236,71.85,239.44,71.85Z"/><path class="cls-1" d="M257.15,74.4h-3.28V54.68h3.28v3.2c1.12-2.2,3.24-3.56,6.37-3.56V57.7h-.86c-3.13,0-5.51,1.4-5.51,6Z"/><path class="cls-1" d="M275.83,74.73c-5.61,0-9.75-4-9.75-10.23s4-10.15,9.75-10.15a9,9,0,0,1,9.47,9.43,18.19,18.19,0,0,1-.11,2H269.43a6.2,6.2,0,0,0,6.4,6.2,5.44,5.44,0,0,0,5.55-3.64h3.52C283.9,71.92,280.73,74.73,275.83,74.73ZM269.46,63.1h12.46c0-3.85-2.85-6-6.23-6C272.48,57.12,269.82,59.25,269.46,63.1Z"/><path class="cls-1" d="M296.6,74.73c-4.6,0-7.84-2.52-8.06-6.12h3.38c.19,1.9,1.88,3.35,4.65,3.35,2.59,0,4-1.3,4-2.92,0-4.39-11.66-1.84-11.66-9.18,0-3,2.84-5.51,7.23-5.51s7.24,2.34,7.45,6.19h-3.27c-.15-2-1.66-3.42-4.29-3.42-2.41,0-3.85,1.16-3.85,2.74,0,4.68,11.45,2.12,11.59,9.18C303.8,72.28,301,74.73,296.6,74.73Z"/><path class="cls-1" d="M377.69,120H22.3A22.32,22.32,0,0,1,0,97.7V22.3A22.33,22.33,0,0,1,22.3,0H377.69A22.33,22.33,0,0,1,400,22.3V97.7A22.32,22.32,0,0,1,377.69,120ZM22.3,2A20.33,20.33,0,0,0,2,22.3V97.7A20.33,20.33,0,0,0,22.3,118H377.69A20.32,20.32,0,0,0,398,97.7V22.3A20.32,20.32,0,0,0,377.69,2Z"/></svg>