<svg id="Layer_1" data-name="Layer 1" xmlns="http://www.w3.org/2000/svg" xmlns:xlink="http://www.w3.org/1999/xlink" viewBox="0 0 600 123.63"><defs><style>.cls-1{fill:url(#linear-gradient);}.cls-2{opacity:0.3;}.cls-3{fill:url(#linear-gradient-2);}.cls-4{fill:url(#linear-gradient-3);}.cls-5{fill:url(#linear-gradient-4);}.cls-6{fill:url(#linear-gradient-5);}.cls-7{fill:url(#linear-gradient-6);}.cls-8{fill:url(#linear-gradient-7);}.cls-9{fill:url(#linear-gradient-8);}.cls-10{fill:#fff;}</style><linearGradient id="linear-gradient" x1="299.35" y1="126.65" x2="299.35" y2="5.13" gradientTransform="translate(0.61 0.82) rotate(-0.03)" gradientUnits="userSpaceOnUse"><stop offset="0" stop-color="#f10"/><stop offset="0.22" stop-color="#ff3d98"/><stop offset="0.54" stop-color="#f80"/><stop offset="0.83" stop-color="#40ecff"/><stop offset="1" stop-color="#b9b0ff"/></linearGradient><linearGradient id="linear-gradient-2" x1="15" y1="63.95" x2="107.51" y2="63.95" gradientUnits="userSpaceOnUse"><stop offset="0" stop-color="#36005f"/><stop offset="1"/></linearGradient><linearGradient id="linear-gradient-3" x1="117.33" y1="63.91" x2="196.65" y2="63.91" xlink:href="#linear-gradient-2"/><linearGradient id="linear-gradient-4" x1="198.04" y1="63.85" x2="275.37" y2="63.85" xlink:href="#linear-gradient-2"/><linearGradient id="linear-gradient-5" x1="282.4" y1="63.82" x2="308.87" y2="63.82" xlink:href="#linear-gradient-2"/><linearGradient id="linear-gradient-6" x1="318.7" y1="63.78" x2="411.21" y2="63.78" xlink:href="#linear-gradient-2"/><linearGradient id="linear-gradient-7" x1="421.03" y1="63.73" x2="504.17" y2="63.73" xlink:href="#linear-gradient-2"/><linearGradient id="linear-gradient-8" x1="513.98" y1="63.68" x2="585" y2="63.68" xlink:href="#linear-gradient-2"/></defs><path class="cls-1" d="M209.39,107.14a20.89,20.89,0,0,0,20,15h14.67a20.91,20.91,0,0,0,20-15h4.19a20.92,20.92,0,0,0,20,15H303A20.92,20.92,0,0,0,322,109.89c10.5,9,25,13.58,43,13.57s32.49-4.6,43-13.66A20.9,20.9,0,0,0,427,122h14.68a20.89,20.89,0,0,0,20-15h1.48l4.43,6.23a20.93,20.93,0,0,0,17,8.76H498.3a20.71,20.71,0,0,0,13.14-4.69,20.29,20.29,0,0,0,2.65,1.17,78,78,0,0,0,12.3,3.19,113.28,113.28,0,0,0,20.11,1.71c16.15,0,28.51-3.42,37.79-10.44,10.29-7.78,15.72-18.85,15.71-32a48.21,48.21,0,0,0-3.44-18.76,35.89,35.89,0,0,0-9.56-13,20.68,20.68,0,0,0,7.91-16.37V23.52a20.81,20.81,0,0,0-16-20.3c-2.94-.7-6.26-1.32-9.88-1.87A118,118,0,0,0,551.63,0C536,0,523.93,3.2,514.87,9.73a20.83,20.83,0,0,0-16.64-8.29H483.56a20.91,20.91,0,0,0-20,15h-1.6l-4.45-6.23a20.93,20.93,0,0,0-17-8.75H426.9A20.88,20.88,0,0,0,408,13.62C397.5,4.64,383,.1,364.92.11s-32.6,4.55-43.06,13.52A20.87,20.87,0,0,0,302.94,1.55H288.26a20.62,20.62,0,0,0-9.39,2.26,20.62,20.62,0,0,0-9.4-2.25l-65.57,0a20.84,20.84,0,0,0-14.64,6c-7-4-15.49-6-25.26-6l-40.8,0a20.89,20.89,0,0,0-18.93,12.14C93.81,4.81,79.34.27,61.22.28,42.1.29,27.07,5.35,16.5,15.3H15v1.53C5,27.15,0,42.41,0,62.27,0,81.64,5.07,96.67,15,107v1.67H16.7c10.62,9.94,25.61,15,44.59,15,18.05,0,32.5-4.6,43-13.65a20.89,20.89,0,0,0,19,12.21h14.67a20.89,20.89,0,0,0,20-15Z"/><g class="cls-2"><path class="cls-3" d="M26.69,99.48Q15,88.31,15,64.26,15,39.53,26.58,28.4T61.23,17.28q23.06,0,34.66,11.15t11.62,35.78q0,23.91-11.65,35.16T61.28,110.63Q38.36,110.65,26.69,99.48ZM76,82.44q4.56-5.7,4.56-18.22Q80.51,51,76,45.39T61.24,39.77Q51,39.77,46.48,45.4T42,64.25q0,12.51,4.58,18.2t14.7,5.69Q71.4,88.13,76,82.44Z"/><path class="cls-4" d="M117.33,24.53a5.88,5.88,0,0,1,5.88-5.88l40.8,0q16,0,24.33,9.27t8.31,24a35,35,0,0,1-4.07,17A29.33,29.33,0,0,1,181,80.62a35.35,35.35,0,0,1-17.51,4.23h-13.8a5.89,5.89,0,0,0-5.88,5.89V103.3a5.88,5.88,0,0,1-5.88,5.88H123.26a5.87,5.87,0,0,1-5.88-5.87Zm40.1,40.07c3.93,0,7-1.15,9.06-3.45s3.16-5.36,3.16-9.21q0-6.18-2.89-9.63t-8.65-3.44h-8.46a5.87,5.87,0,0,0-5.87,5.88v14a5.89,5.89,0,0,0,5.89,5.88Z"/><path class="cls-5" d="M217.61,38.28H203.93A5.88,5.88,0,0,1,198,32.41V24.48a5.88,5.88,0,0,1,5.87-5.88l65.57,0a5.89,5.89,0,0,1,5.89,5.88v7.92a5.88,5.88,0,0,1-5.87,5.89H255.81a5.89,5.89,0,0,0-5.88,5.89l0,59.1a5.87,5.87,0,0,1-5.87,5.88H229.41a5.88,5.88,0,0,1-5.88-5.87l0-59.11A5.88,5.88,0,0,0,217.61,38.28Z"/><path class="cls-6" d="M288.27,18.55H303a5.88,5.88,0,0,1,5.88,5.88l0,78.79a5.86,5.86,0,0,1-5.87,5.88H288.33a5.89,5.89,0,0,1-5.89-5.88l0-78.78A5.88,5.88,0,0,1,288.27,18.55Z"/><path class="cls-7" d="M330.39,99.3Q318.71,88.14,318.7,64.09q0-24.75,11.57-35.86T364.93,17.1q23.06,0,34.66,11.16T411.21,64q0,23.89-11.65,35.15T365,110.46Q342.06,110.48,330.39,99.3Zm49.27-17q4.56-5.69,4.56-18.21,0-13.21-4.51-18.84T364.94,39.6q-10.26,0-14.76,5.63t-4.49,18.84q0,12.53,4.58,18.21T365,88Q375.1,88,379.66,82.26Z"/><path class="cls-8" d="M426.91,18.47h13.58a5.87,5.87,0,0,1,4.79,2.46L467,51.42A5.88,5.88,0,0,0,477.71,48l0-23.68a5.89,5.89,0,0,1,5.88-5.89h14.67a5.88,5.88,0,0,1,5.88,5.88l.05,78.79a5.88,5.88,0,0,1-5.88,5.88H484.57a5.88,5.88,0,0,1-4.79-2.47L458.16,76.19a5.88,5.88,0,0,0-10.67,3.42l0,23.52a5.88,5.88,0,0,1-5.88,5.88H427a5.89,5.89,0,0,1-5.89-5.88l0-78.78A5.89,5.89,0,0,1,426.91,18.47Z"/><path class="cls-9" d="M529.06,108.89a63.19,63.19,0,0,1-9.94-2.56,5.82,5.82,0,0,1-3.84-5.51v-9.3A5.89,5.89,0,0,1,523,86c2.07.66,4.22,1.26,6.45,1.78a62.43,62.43,0,0,0,14.34,1.82q7.59,0,10.9-1.34t3.3-5.27a5.61,5.61,0,0,0-1.62-4.15A13.52,13.52,0,0,0,551.68,76q-3.06-1.19-9.69-3.25l-.32-.09a33,33,0,0,1-3.21-.94,59.1,59.1,0,0,1-14.56-6.46,20.86,20.86,0,0,1-7.6-8.5A29.61,29.61,0,0,1,514,44.3q0-13.36,9.55-20.33t28.11-7a101.32,101.32,0,0,1,15.12,1.18q4.83.74,8.64,1.63a5.87,5.87,0,0,1,4.51,5.72V34.8a5.88,5.88,0,0,1-7.49,5.65,61.1,61.1,0,0,0-16.55-2.37,41.59,41.59,0,0,0-11.17,1.14A4.73,4.73,0,0,0,541,44.14a4.86,4.86,0,0,0,1.55,3.79,13.15,13.15,0,0,0,4.71,2.46q3.16,1.05,10.76,3,10.83,2.94,16.67,7.09A22.61,22.61,0,0,1,582.75,70,33.26,33.26,0,0,1,585,82.92q0,12.66-9.76,20t-28.75,7.4A98.22,98.22,0,0,1,529.06,108.89Z"/></g><path class="cls-10" d="M26.68,92.48Q15,81.31,15,57.26,15,32.53,26.57,21.4T61.22,10.28q23.07,0,34.67,11.15t11.62,35.78q0,23.91-11.65,35.16T61.28,103.64Q38.36,103.64,26.68,92.48ZM76,75.44q4.58-5.7,4.56-18.21Q80.51,44,76,38.39T61.24,32.77Q51,32.78,46.48,38.4T42,57.25q0,12.51,4.58,18.2t14.69,5.69Q71.39,81.14,76,75.44Z"/><path class="cls-10" d="M117.33,17.53a5.88,5.88,0,0,1,5.88-5.88l40.79,0q16,0,24.33,9.27t8.31,24a34.84,34.84,0,0,1-4.06,17A29.36,29.36,0,0,1,181,73.62a35.31,35.31,0,0,1-17.5,4.23h-13.8a5.88,5.88,0,0,0-5.88,5.88V96.3a5.89,5.89,0,0,1-5.88,5.89H123.26a5.88,5.88,0,0,1-5.89-5.87ZM157.42,57.6q5.91,0,9.07-3.45t3.16-9.21q0-6.18-2.89-9.63t-8.65-3.44h-8.46a5.88,5.88,0,0,0-5.88,5.88v14a5.88,5.88,0,0,0,5.88,5.88Z"/><path class="cls-10" d="M217.61,31.28H203.92A5.88,5.88,0,0,1,198,25.41V17.49a5.89,5.89,0,0,1,5.88-5.89l65.57,0a5.88,5.88,0,0,1,5.88,5.88v7.92a5.89,5.89,0,0,1-5.88,5.89H255.8a5.87,5.87,0,0,0-5.87,5.88l0,59.1a5.89,5.89,0,0,1-5.88,5.89H229.41a5.87,5.87,0,0,1-5.88-5.87l0-59.11A5.87,5.87,0,0,0,217.61,31.28Z"/><path class="cls-10" d="M288.27,11.55h14.67a5.88,5.88,0,0,1,5.89,5.87l0,78.79a5.88,5.88,0,0,1-5.88,5.88H288.32a5.88,5.88,0,0,1-5.88-5.88l-.05-78.78A5.89,5.89,0,0,1,288.27,11.55Z"/><path class="cls-10" d="M330.38,92.3q-11.67-11.16-11.69-35.21,0-24.75,11.58-35.86T364.92,10.1q23.06,0,34.67,11.16T411.21,57q0,23.91-11.65,35.16T365,103.46Q342.06,103.48,330.38,92.3Zm49.27-17q4.56-5.69,4.56-18.21,0-13.21-4.51-18.83T364.93,32.6q-10.26,0-14.76,5.63t-4.48,18.85q0,12.51,4.58,18.2T365,81Q375.09,81,379.65,75.26Z"/><path class="cls-10" d="M426.9,11.48h13.59a5.88,5.88,0,0,1,4.79,2.46L467,44.43A5.88,5.88,0,0,0,477.7,41V17.33a5.88,5.88,0,0,1,5.87-5.89h14.68a5.88,5.88,0,0,1,5.88,5.88l0,78.79a5.86,5.86,0,0,1-5.87,5.88H484.56a5.89,5.89,0,0,1-4.79-2.47L458.16,69.19a5.88,5.88,0,0,0-10.67,3.42V96.13a5.87,5.87,0,0,1-5.87,5.88H427a5.88,5.88,0,0,1-5.88-5.87L421,17.36A5.88,5.88,0,0,1,426.9,11.48Z"/><path class="cls-10" d="M529.05,101.89a62.39,62.39,0,0,1-9.94-2.56,5.82,5.82,0,0,1-3.84-5.51V84.53A5.89,5.89,0,0,1,523,79c2.07.66,4.22,1.26,6.44,1.78a62,62,0,0,0,14.35,1.82q7.59,0,10.89-1.34a5.14,5.14,0,0,0,3.3-5.27,5.61,5.61,0,0,0-1.62-4.15A13.43,13.43,0,0,0,551.67,69q-3.06-1.17-9.68-3.25l-.32-.09a31.45,31.45,0,0,1-3.22-.94,59,59,0,0,1-14.55-6.46,20.73,20.73,0,0,1-7.6-8.5A29.57,29.57,0,0,1,514,37.3q0-13.36,9.55-20.33t28.12-7a101.15,101.15,0,0,1,15.11,1.19q4.83.72,8.64,1.62a5.89,5.89,0,0,1,4.52,5.72V27.8a5.89,5.89,0,0,1-7.5,5.65,60.62,60.62,0,0,0-16.54-2.36,41.34,41.34,0,0,0-11.18,1.13A4.73,4.73,0,0,0,541,37.14a4.85,4.85,0,0,0,1.55,3.8,13.32,13.32,0,0,0,4.71,2.45q3.16,1.06,10.76,3,10.83,2.94,16.66,7.09A22.6,22.6,0,0,1,582.74,63,33.25,33.25,0,0,1,585,75.92q0,12.66-9.76,20t-28.75,7.4A97.41,97.41,0,0,1,529.05,101.89Z"/></svg>