<svg id="Layer_1" data-name="Layer 1" xmlns="http://www.w3.org/2000/svg" viewBox="0 0 400 120"><defs><style>.cls-1{fill:#fff;}</style></defs><path class="cls-1" d="M144.42,74.65a12.37,12.37,0,0,1-12.6-12.81A12.37,12.37,0,0,1,144.42,49C151.51,49,157,54.32,157,61.84S151.51,74.65,144.42,74.65Zm0-2.84c5.29,0,9.25-3.85,9.25-10s-4-10-9.25-10-9.26,3.81-9.26,10S139.12,71.81,144.42,71.81Z"/><path class="cls-1" d="M172,54.35c5.29,0,9.36,4,9.36,10.12S177.28,74.73,172,74.73a8.55,8.55,0,0,1-7.38-4v13h-3.27V54.68h3.27v3.63A8.33,8.33,0,0,1,172,54.35Zm-.68,2.85c-3.57,0-6.7,2.73-6.7,7.3s3.13,7.35,6.7,7.35S178,69.11,178,64.47,174.94,57.2,171.31,57.2Z"/><path class="cls-1" d="M186.39,57.38h-2.55v-2.7h2.55v-5h3.28v5h5.15v2.7h-5.15V69c0,2,.72,2.63,2.73,2.63h2.42V74.4h-3c-3.49,0-5.47-1.44-5.47-5.4Z"/><path class="cls-1" d="M198.24,49.24a2.2,2.2,0,1,1,2.23,2.23A2.19,2.19,0,0,1,198.24,49.24Zm.54,5.44h3.27V74.4h-3.27Z"/><path class="cls-1" d="M216.23,74.73c-5.57,0-9.82-4-9.82-10.23s4.39-10.15,10-10.15,10,3.93,10,10.15A9.78,9.78,0,0,1,216.23,74.73Zm0-2.88c3.42,0,6.77-2.34,6.77-7.35s-3.27-7.3-6.66-7.3-6.58,2.34-6.58,7.3S212.82,71.85,216.23,71.85Z"/><path class="cls-1" d="M245.11,63.24c0-4-2.2-6.08-5.51-6.08S234,59.25,234,63.5V74.4h-3.28V54.68H234v2.8a7.27,7.27,0,0,1,6.33-3.16c4.57,0,8.07,2.8,8.07,8.46V74.4h-3.24Z"/><path class="cls-1" d="M260.7,74.73c-4.61,0-7.85-2.52-8.07-6.12H256c.18,1.9,1.87,3.35,4.64,3.35,2.59,0,4-1.3,4-2.92,0-4.39-11.66-1.84-11.66-9.18,0-3,2.84-5.51,7.23-5.51s7.24,2.34,7.45,6.19h-3.27c-.15-2-1.66-3.42-4.29-3.42-2.41,0-3.85,1.16-3.85,2.74,0,4.68,11.45,2.12,11.59,9.18C267.89,72.28,265.05,74.73,260.7,74.73Z"/><path class="cls-1" d="M377.69,120H22.3A22.32,22.32,0,0,1,0,97.7V22.3A22.33,22.33,0,0,1,22.3,0H377.69A22.33,22.33,0,0,1,400,22.3V97.7A22.32,22.32,0,0,1,377.69,120ZM22.3,2A20.33,20.33,0,0,0,2,22.3V97.7A20.33,20.33,0,0,0,22.3,118H377.69A20.32,20.32,0,0,0,398,97.7V22.3A20.32,20.32,0,0,0,377.69,2Z"/></svg>