<svg xmlns="http://www.w3.org/2000/svg" xmlns:xlink="http://www.w3.org/1999/xlink" viewBox="0 0 540 113.92"><defs><style>.cls-1{isolation:isolate;}.cls-2{fill:url(#linear-gradient);}.cls-3{opacity:0.3;mix-blend-mode:multiply;}.cls-4{fill:url(#linear-gradient-2);}.cls-5{fill:url(#linear-gradient-3);}.cls-6{fill:url(#linear-gradient-4);}.cls-7{fill:url(#linear-gradient-5);}.cls-8{fill:url(#linear-gradient-6);}.cls-9{fill:url(#linear-gradient-7);}.cls-10{fill:#fff;}</style><linearGradient id="linear-gradient" x1="270" y1="117.24" x2="270" y2="-1.2" gradientUnits="userSpaceOnUse"><stop offset="0" stop-color="#f10"/><stop offset="0.22" stop-color="#ff3d98"/><stop offset="0.54" stop-color="#f80"/><stop offset="0.83" stop-color="#40ecff"/><stop offset="1" stop-color="#b9b0ff"/></linearGradient><linearGradient id="linear-gradient-2" x1="11" y1="58.94" x2="90.28" y2="58.94" gradientUnits="userSpaceOnUse"><stop offset="0" stop-color="#36005f"/><stop offset="1"/></linearGradient><linearGradient id="linear-gradient-3" x1="97.66" y1="58.94" x2="188.75" y2="58.94" xlink:href="#linear-gradient-2"/><linearGradient id="linear-gradient-4" x1="191.91" y1="59.63" x2="277.52" y2="59.63" xlink:href="#linear-gradient-2"/><linearGradient id="linear-gradient-5" x1="286.66" y1="58.94" x2="357.65" y2="58.94" xlink:href="#linear-gradient-2"/><linearGradient id="linear-gradient-6" x1="367.49" y1="58.94" x2="436.09" y2="58.94" xlink:href="#linear-gradient-2"/><linearGradient id="linear-gradient-7" x1="444.52" y1="58.94" x2="529" y2="58.94" xlink:href="#linear-gradient-2"/></defs><g class="cls-1"><g id="Layer_1" data-name="Layer 1"><path class="cls-2" d="M229.34,64.46V19.14a17.88,17.88,0,0,0-18-17.75H198.89a17.88,17.88,0,0,0-18,17.75V43L169.17,12.78A18.07,18.07,0,0,0,152.4,1.39H134a18.08,18.08,0,0,0-16.78,11.39L99.28,59a47.51,47.51,0,0,0,2-13.87c0-12.43-3.74-22.85-11.1-31C82.5,5.69,71.56,1.39,57.67,1.39H18A17.88,17.88,0,0,0,0,19.14V94.78a17.89,17.89,0,0,0,18,17.76H30.45a17.89,17.89,0,0,0,18-17.76V88.51H57.1A46.64,46.64,0,0,0,80,83,40,40,0,0,0,95.85,67.17Q96.44,66.1,97,65l-9.1,23.42a17.57,17.57,0,0,0,2,16.41,18,18,0,0,0,14.81,7.7h12.63A18.09,18.09,0,0,0,134,101.19l3-7.68h12.24l3.11,7.79a17.89,17.89,0,0,0,16.72,11.24h12.66a17.89,17.89,0,0,0,16-9.64c9.66,7.31,22.11,11,37,11a67.44,67.44,0,0,0,26.73-5.06,45.23,45.23,0,0,0,16.06-11.33,17.75,17.75,0,0,0,11.62,12.15,76.25,76.25,0,0,0,10.54,2.61h0a111,111,0,0,0,19.39,1.63c15.25,0,26.82-3.1,35.38-9.48a39.06,39.06,0,0,0,3.37-2.83,18,18,0,0,0,16.58,10.93h54.65a18,18,0,0,0,11.19-3.89,18.07,18.07,0,0,0,11.2,3.89H485c17.33,0,31-4.66,40.49-13.85S540,75.58,540,57.52c0-18.8-4.88-33-14.5-42.29S502.34,1.39,485,1.39H451.5a18.06,18.06,0,0,0-11.2,3.88,18,18,0,0,0-11.19-3.88H374.46a18,18,0,0,0-14.78,7.69,18,18,0,0,0-10.16-6.24c-2.53-.57-5.37-1.08-8.44-1.54A115.31,115.31,0,0,0,324.33,0c-14.89,0-26.21,2.93-34.58,9a37.22,37.22,0,0,0-3.05,2.46,18,18,0,0,0-16.15-10H258.07a17.88,17.88,0,0,0-18,17.75V64.46"/><g class="cls-3"><path class="cls-4" d="M11,21.11a6.92,6.92,0,0,1,7-6.88h39.7q16,0,24.32,9.16t8.29,23.74A34.1,34.1,0,0,1,86.2,63.94,29.13,29.13,0,0,1,74.61,75.46,35.54,35.54,0,0,1,57.1,79.63H37.42V96.76a6.93,6.93,0,0,1-7,6.89H18a6.93,6.93,0,0,1-7-6.89ZM51.06,59.63q5.91,0,9.07-3.4a12.87,12.87,0,0,0,3.16-9.1q0-6.1-2.88-9.51t-8.65-3.4H37.42V59.63Z"/><path class="cls-5" d="M134,14.23H152.4a7,7,0,0,1,6.51,4.42l29.37,75.64a6.9,6.9,0,0,1-6.51,9.36H169.11a7,7,0,0,1-6.49-4.36L158.51,89A7,7,0,0,0,152,84.63H134.28a7,7,0,0,0-6.51,4.4l-4,10.21a7,7,0,0,1-6.5,4.41H104.64a6.9,6.9,0,0,1-6.51-9.36L127.5,18.65A7,7,0,0,1,134,14.23Zm19.24,51.65L143.13,39.64,133,65.88Z"/><path class="cls-6" d="M203.65,95.66q-11.73-9.36-11.74-26.45V21.11a6.93,6.93,0,0,1,7-6.88h12.48a6.92,6.92,0,0,1,7,6.88V66.43q0,16.39,16.45,16.39T251.1,66.43V21.11a6.92,6.92,0,0,1,7-6.88h12.48a6.92,6.92,0,0,1,7,6.88v48.1q0,11.39-5.34,19.44a33.26,33.26,0,0,1-15,12.22A56.18,56.18,0,0,1,234.79,105Q215.4,105,203.65,95.66Z"/><path class="cls-7" d="M301.7,103.58a66.51,66.51,0,0,1-9-2.22,6.91,6.91,0,0,1-4.76-6.54V87.89a7,7,0,0,1,9-6.59q2.51.77,5.18,1.38a63,63,0,0,0,14.34,1.81q7.59,0,10.9-1.32a5.09,5.09,0,0,0,3.3-5.21,5.51,5.51,0,0,0-1.62-4.1,13.5,13.5,0,0,0-4.71-2.77q-3-1.17-9.65-3.21l-.38-.1a31.35,31.35,0,0,1-3.18-.93,58.63,58.63,0,0,1-14.55-6.39,20.6,20.6,0,0,1-7.59-8.4,28.73,28.73,0,0,1-2.32-12.29q0-13.19,9.56-20.06t28.11-6.87A102.44,102.44,0,0,1,339.44,14c2.82.42,5.37.88,7.67,1.39a6.92,6.92,0,0,1,5.48,6.73V29a6.94,6.94,0,0,1-8.69,6.67,61.13,61.13,0,0,0-15.35-2,41.89,41.89,0,0,0-11.18,1.12,4.68,4.68,0,0,0-3.72,4.86,4.74,4.74,0,0,0,1.55,3.74,13.35,13.35,0,0,0,4.7,2.44q3.17,1,10.76,3,10.81,2.91,16.66,7a22.4,22.4,0,0,1,8.08,9.38A32.46,32.46,0,0,1,357.65,78q0,12.5-9.77,19.79T319.13,105A99.2,99.2,0,0,1,301.7,103.58Z"/><path class="cls-8" d="M374.46,14.23h54.65a6.93,6.93,0,0,1,7,6.88v6.22a6.93,6.93,0,0,1-7,6.89H400.89a6.93,6.93,0,0,0-7,6.89v.8a6.93,6.93,0,0,0,7,6.89h23a6.94,6.94,0,0,1,7,6.89v6.49a6.94,6.94,0,0,1-7,6.89h-23a6.93,6.93,0,0,0-7,6.89v.8a6.93,6.93,0,0,0,7,6.89h28.22a6.94,6.94,0,0,1,7,6.89v6.22a6.94,6.94,0,0,1-7,6.89H374.46a6.93,6.93,0,0,1-7-6.89V21.11A6.92,6.92,0,0,1,374.46,14.23Z"/><path class="cls-9" d="M444.52,21.11a6.93,6.93,0,0,1,7-6.88H485q21.64,0,32.82,10.76T529,59.49q0,22.64-11.17,33.4T485,103.65H451.5a6.94,6.94,0,0,1-7-6.89Zm37.11,62.54a27.42,27.42,0,0,0,11.39-2,13.66,13.66,0,0,0,6.68-7.22Q502,69.22,502,59.49t-2.1-15.34a13.64,13.64,0,0,0-6.54-7.71q-4.42-2.22-11.74-2.22H471V83.65Z"/></g><path class="cls-10" d="M11,16.18a6.93,6.93,0,0,1,7-6.89h39.7q16,0,24.32,9.16T90.28,42.2A34.08,34.08,0,0,1,86.2,59,29,29,0,0,1,74.61,70.52,35.54,35.54,0,0,1,57.1,74.69H37.42V91.82a6.93,6.93,0,0,1-7,6.89H18a6.93,6.93,0,0,1-7-6.89ZM51.06,54.69q5.91,0,9.07-3.4a12.86,12.86,0,0,0,3.16-9.09q0-6.12-2.88-9.51t-8.65-3.41H37.42V54.69Z"/><path class="cls-10" d="M134,9.29H152.4a7,7,0,0,1,6.51,4.42l29.37,75.64a6.9,6.9,0,0,1-6.51,9.36H169.11a7,7,0,0,1-6.49-4.36l-4.11-10.3A7,7,0,0,0,152,79.69H134.28a7,7,0,0,0-6.51,4.4l-4,10.22a7,7,0,0,1-6.5,4.4H104.64a6.9,6.9,0,0,1-6.51-9.36L127.5,13.71A7,7,0,0,1,134,9.29Zm19.24,51.65L143.13,34.7,133,60.94Z"/><path class="cls-10" d="M203.65,90.73q-11.73-9.37-11.74-26.46V16.18a6.94,6.94,0,0,1,7-6.89h12.48a6.93,6.93,0,0,1,7,6.89V61.5q0,16.38,16.45,16.38T251.1,61.5V16.18a6.93,6.93,0,0,1,7-6.89h12.48a6.93,6.93,0,0,1,7,6.89V64.27q0,11.4-5.34,19.44a33.19,33.19,0,0,1-15,12.22,56.18,56.18,0,0,1-22.35,4.17Q215.4,100.1,203.65,90.73Z"/><path class="cls-10" d="M301.7,98.64a65.05,65.05,0,0,1-9-2.22,6.9,6.9,0,0,1-4.76-6.54V83a7,7,0,0,1,9-6.58q2.51.75,5.18,1.37a63,63,0,0,0,14.34,1.81q7.59,0,10.9-1.32a5.08,5.08,0,0,0,3.3-5.21A5.49,5.49,0,0,0,329,68.93a13.5,13.5,0,0,0-4.71-2.78q-3-1.16-9.65-3.21l-.38-.1a31.35,31.35,0,0,1-3.18-.93,59,59,0,0,1-14.55-6.38,20.73,20.73,0,0,1-7.59-8.4,28.76,28.76,0,0,1-2.32-12.29q0-13.2,9.56-20.07T324.33,7.9a102.44,102.44,0,0,1,15.11,1.18c2.82.42,5.37.88,7.67,1.39a6.93,6.93,0,0,1,5.48,6.73v6.88a6.94,6.94,0,0,1-8.69,6.67,61.11,61.11,0,0,0-15.35-2,42,42,0,0,0-11.18,1.11,4.68,4.68,0,0,0-3.72,4.86,4.77,4.77,0,0,0,1.55,3.75,13.52,13.52,0,0,0,4.7,2.43q3.17,1,10.76,3,10.81,2.93,16.66,7a22.37,22.37,0,0,1,8.08,9.37A32.49,32.49,0,0,1,357.65,73q0,12.49-9.77,19.79t-28.75,7.29A99.2,99.2,0,0,1,301.7,98.64Z"/><path class="cls-10" d="M374.46,9.29h54.65a6.93,6.93,0,0,1,7,6.89v6.21a6.93,6.93,0,0,1-7,6.89H400.89a6.93,6.93,0,0,0-7,6.89V37a6.93,6.93,0,0,0,7,6.89h23a6.94,6.94,0,0,1,7,6.89v6.5a6.94,6.94,0,0,1-7,6.89h-23a6.93,6.93,0,0,0-7,6.89v.8a6.93,6.93,0,0,0,7,6.89h28.22a6.93,6.93,0,0,1,7,6.89v6.21a6.93,6.93,0,0,1-7,6.89H374.46a6.93,6.93,0,0,1-7-6.89V16.18A6.93,6.93,0,0,1,374.46,9.29Z"/><path class="cls-10" d="M444.52,16.18a6.93,6.93,0,0,1,7-6.89H485q21.64,0,32.82,10.76T529,54.55q0,22.64-11.17,33.4T485,98.71H451.5a6.93,6.93,0,0,1-7-6.89Zm37.11,62.54a27.25,27.25,0,0,0,11.39-2,13.66,13.66,0,0,0,6.68-7.22Q502,64.28,502,54.55t-2.1-15.34a13.7,13.7,0,0,0-6.54-7.71c-2.95-1.47-6.87-2.22-11.74-2.22H471V78.72Z"/></g></g></svg>