<svg id="Layer_1" data-name="Layer 1" xmlns="http://www.w3.org/2000/svg" viewBox="0 0 400 120"><defs><style>.cls-1{fill:#fff;}</style></defs><path class="cls-1" d="M67.09,74.65c-5,0-8.6-2.8-8.68-6.94h3.5c.21,2.08,1.69,4.17,5.18,4.17,3.17,0,5-1.8,5-4.17,0-6.77-13.57-2.45-13.57-11.77,0-4.14,3.35-6.95,8.31-6.95,4.79,0,7.92,2.63,8.32,6.44h-3.6c-.22-1.69-1.8-3.6-4.86-3.63-2.7-.07-4.82,1.33-4.82,4,0,6.48,13.53,2.45,13.53,11.73C75.44,71.13,72.52,74.65,67.09,74.65Z"/><path class="cls-1" d="M81,57.38H78.43v-2.7H81v-5h3.27v5h5.15v2.7H84.26V69c0,2,.72,2.63,2.74,2.63h2.41V74.4h-3C83,74.4,81,73,81,69Z"/><path class="cls-1" d="M101.5,54.35a8.17,8.17,0,0,1,7.35,3.93v-3.6h3.31V74.4h-3.31V70.73a8.26,8.26,0,0,1-7.38,4c-5.26,0-9.32-4.14-9.32-10.26S96.21,54.35,101.5,54.35Zm.65,2.85c-3.6,0-6.66,2.62-6.66,7.27s3.06,7.38,6.66,7.38,6.7-2.7,6.7-7.35S105.75,57.2,102.15,57.2Z"/><path class="cls-1" d="M121,74.4h-3.27V54.68H121v3.2c1.12-2.2,3.24-3.56,6.37-3.56V57.7h-.86c-3.13,0-5.51,1.4-5.51,6Z"/><path class="cls-1" d="M131.85,57.38H129.3v-2.7h2.55v-5h3.28v5h5.15v2.7h-5.15V69c0,2,.72,2.63,2.73,2.63h2.42V74.4h-3c-3.49,0-5.47-1.44-5.47-5.4Z"/><path class="cls-1" d="M168.28,63.24c0-4-2.19-6.08-5.5-6.08s-5.66,2.09-5.66,6.34V74.4h-3.27V54.68h3.27v2.8a7.29,7.29,0,0,1,6.34-3.16c4.57,0,8.06,2.8,8.06,8.46V74.4h-3.24Z"/><path class="cls-1" d="M185.42,74.73c-5.62,0-9.76-4-9.76-10.23s4-10.15,9.76-10.15a9,9,0,0,1,9.47,9.43,18.19,18.19,0,0,1-.11,2H179a6.21,6.21,0,0,0,6.41,6.2A5.43,5.43,0,0,0,191,68.32h3.53C193.48,71.92,190.31,74.73,185.42,74.73ZM179.05,63.1H191.5c0-3.85-2.84-6-6.22-6C182.07,57.12,179.41,59.25,179.05,63.1Z"/><path class="cls-1" d="M196.87,54.68h3.35l4.53,16.56,4.9-16.56H213l4.79,16.59,4.47-16.59h3.23L219.33,74.4H216L211.2,58.74,206.44,74.4h-3.38Z"/><path class="cls-1" d="M246.47,54.35a8.13,8.13,0,0,1,7.35,3.93v-3.6h3.31V74.83c0,5.44-3.64,9.29-9.43,9.29-5.18,0-8.89-2.63-9.54-6.84h3.24c.72,2.38,3.06,4,6.3,4,3.49,0,6.12-2.23,6.12-6.45V70.7a8.26,8.26,0,0,1-7.35,4c-5.29,0-9.35-4.14-9.35-10.26S241.18,54.35,246.47,54.35Zm.65,2.85c-3.6,0-6.66,2.62-6.66,7.27s3.06,7.38,6.66,7.38,6.7-2.7,6.7-7.35S250.72,57.2,247.12,57.2Z"/><path class="cls-1" d="M270.81,54.35a8.17,8.17,0,0,1,7.34,3.93v-3.6h3.31V74.4h-3.31V70.73a8.23,8.23,0,0,1-7.38,4c-5.25,0-9.32-4.14-9.32-10.26S265.52,54.35,270.81,54.35Zm.65,2.85c-3.6,0-6.66,2.62-6.66,7.27s3.06,7.38,6.66,7.38,6.69-2.7,6.69-7.35S275.06,57.2,271.46,57.2Z"/><path class="cls-1" d="M315.48,63.24c0-4-2.16-6.08-5.4-6.08s-5.57,2.12-5.57,6.37V74.4h-3.24V63.24c0-4-2.16-6.08-5.4-6.08s-5.58,2.12-5.58,6.37V74.4H287V54.68h3.28v2.84a7.11,7.11,0,0,1,6.22-3.2,7.43,7.43,0,0,1,7.24,4.39,7.3,7.3,0,0,1,7-4.39c4.5,0,8,2.8,8,8.46V74.4h-3.24Z"/><path class="cls-1" d="M332.62,74.73c-5.61,0-9.75-4-9.75-10.23s4-10.15,9.75-10.15a9,9,0,0,1,9.47,9.43,18.19,18.19,0,0,1-.11,2H326.21a6.22,6.22,0,0,0,6.41,6.2,5.44,5.44,0,0,0,5.55-3.64h3.52C340.69,71.92,337.52,74.73,332.62,74.73ZM326.25,63.1h12.46c0-3.85-2.85-6-6.23-6C329.28,57.12,326.61,59.25,326.25,63.1Z"/><path class="cls-1" d="M377.69,120H22.3A22.32,22.32,0,0,1,0,97.7V22.3A22.33,22.33,0,0,1,22.3,0H377.69A22.33,22.33,0,0,1,400,22.3V97.7A22.32,22.32,0,0,1,377.69,120ZM22.3,2A20.33,20.33,0,0,0,2,22.3V97.7A20.33,20.33,0,0,0,22.3,118H377.69A20.32,20.32,0,0,0,398,97.7V22.3A20.32,20.32,0,0,0,377.69,2Z"/></svg>