<svg id="Layer_1" data-name="Layer 1" xmlns="http://www.w3.org/2000/svg" viewBox="0 0 400 120"><defs><style>.cls-1{fill:#fff;}</style></defs><path class="cls-1" d="M70.74,49.31c5.91,0,8.71,3.28,8.71,7.38a7.06,7.06,0,0,1-6,7.2l6.3,10.51H75.85l-6-10.26h-4V74.4H62.64V49.31Zm0,2.7H65.92v9.51h4.82c3.71,0,5.33-2,5.33-4.83S74.49,52,70.74,52Z"/><path class="cls-1" d="M93.06,74.73c-5.61,0-9.75-4-9.75-10.23s4-10.15,9.75-10.15a9,9,0,0,1,9.47,9.43,18.19,18.19,0,0,1-.11,2H86.65A6.21,6.21,0,0,0,93.06,72a5.45,5.45,0,0,0,5.55-3.64h3.52C101.12,71.92,98,74.73,93.06,74.73ZM86.69,63.1H99.14c0-3.85-2.84-6-6.22-6C89.71,57.12,87.05,59.25,86.69,63.1Z"/><path class="cls-1" d="M107.57,57.38H105v-2.7h2.55v-5h3.28v5H116v2.7h-5.14V69c0,2,.72,2.63,2.73,2.63H116V74.4H113c-3.49,0-5.47-1.44-5.47-5.4Z"/><path class="cls-1" d="M137.45,74.4h-3.28V71.49a7.25,7.25,0,0,1-6.3,3.2c-4.53,0-8.1-2.81-8.1-8.46V54.68H123V65.8c0,4,2.2,6,5.51,6s5.65-2.09,5.65-6.34V54.68h3.28Z"/><path class="cls-1" d="M146.27,74.4H143V54.68h3.28v3.2c1.12-2.2,3.24-3.56,6.37-3.56V57.7h-.86c-3.13,0-5.51,1.4-5.51,6Z"/><path class="cls-1" d="M170.86,63.24c0-4-2.2-6.08-5.51-6.08s-5.65,2.09-5.65,6.34V74.4h-3.28V54.68h3.28v2.8A7.27,7.27,0,0,1,166,54.32c4.57,0,8.07,2.8,8.07,8.46V74.4h-3.24Z"/><path class="cls-1" d="M189.79,57.38h-2.55v-2.7h2.55v-5h3.28v5h5.15v2.7h-5.15V69c0,2,.72,2.63,2.73,2.63h2.42V74.4h-2.95c-3.5,0-5.48-1.44-5.48-5.4Z"/><path class="cls-1" d="M210.78,74.73c-5.58,0-9.83-4-9.83-10.23s4.4-10.15,10-10.15,10,3.93,10,10.15A9.78,9.78,0,0,1,210.78,74.73Zm0-2.88c3.42,0,6.77-2.34,6.77-7.35s-3.28-7.3-6.66-7.3-6.59,2.34-6.59,7.3S207.36,71.85,210.78,71.85Z"/><path class="cls-1" d="M243,54.35a8.13,8.13,0,0,1,7.35,3.93v-3.6h3.31V74.83c0,5.44-3.64,9.29-9.43,9.29-5.18,0-8.89-2.63-9.54-6.84h3.24c.72,2.38,3.06,4,6.3,4,3.49,0,6.12-2.23,6.12-6.45V70.7a8.26,8.26,0,0,1-7.35,4c-5.29,0-9.35-4.14-9.35-10.26S237.67,54.35,243,54.35Zm.65,2.85c-3.6,0-6.66,2.62-6.66,7.27s3.06,7.38,6.66,7.38,6.7-2.7,6.7-7.35S247.21,57.2,243.61,57.2Z"/><path class="cls-1" d="M267.3,54.35a8.17,8.17,0,0,1,7.34,3.93v-3.6H278V74.4h-3.32V70.73a8.23,8.23,0,0,1-7.38,4c-5.25,0-9.32-4.14-9.32-10.26S262,54.35,267.3,54.35ZM268,57.2c-3.6,0-6.66,2.62-6.66,7.27s3.06,7.38,6.66,7.38,6.69-2.7,6.69-7.35S271.55,57.2,268,57.2Z"/><path class="cls-1" d="M312,63.24c0-4-2.16-6.08-5.4-6.08S301,59.28,301,63.53V74.4h-3.24V63.24c0-4-2.16-6.08-5.4-6.08s-5.58,2.12-5.58,6.37V74.4H283.5V54.68h3.28v2.84a7.11,7.11,0,0,1,6.22-3.2,7.43,7.43,0,0,1,7.24,4.39,7.3,7.3,0,0,1,7-4.39c4.5,0,8,2.8,8,8.46V74.4H312Z"/><path class="cls-1" d="M329.11,74.73c-5.61,0-9.75-4-9.75-10.23s4-10.15,9.75-10.15a9,9,0,0,1,9.47,9.43,18.19,18.19,0,0,1-.11,2H322.71a6.2,6.2,0,0,0,6.4,6.2,5.44,5.44,0,0,0,5.55-3.64h3.52C337.18,71.92,334,74.73,329.11,74.73ZM322.74,63.1H335.2c0-3.85-2.85-6-6.23-6C325.76,57.12,323.1,59.25,322.74,63.1Z"/><path class="cls-1" d="M377.69,120H22.3A22.32,22.32,0,0,1,0,97.7V22.3A22.33,22.33,0,0,1,22.3,0H377.69A22.33,22.33,0,0,1,400,22.3V97.7A22.32,22.32,0,0,1,377.69,120ZM22.3,2A20.33,20.33,0,0,0,2,22.3V97.7A20.33,20.33,0,0,0,22.3,118H377.69A20.32,20.32,0,0,0,398,97.7V22.3A20.32,20.32,0,0,0,377.69,2Z"/></svg>