<svg id="Layer_1" data-name="Layer 1" xmlns="http://www.w3.org/2000/svg" xmlns:xlink="http://www.w3.org/1999/xlink" viewBox="0 0 400 120"><defs><style>.cls-1{fill:url(#linear-gradient);}.cls-2{fill:#fff;}</style><linearGradient id="linear-gradient" x1="200" y1="106.85" x2="200" y2="-12.94" gradientUnits="userSpaceOnUse"><stop offset="0" stop-color="#f10"/><stop offset="0.22" stop-color="#ff3d98"/><stop offset="0.54" stop-color="#f80"/><stop offset="0.83" stop-color="#40ecff"/><stop offset="1" stop-color="#b9b0ff"/></linearGradient></defs><rect class="cls-1" width="400" height="120" rx="21.3"/><path class="cls-2" d="M92.77,74.4H81V49.13H92.38c5.15,0,8.21,2.56,8.21,6.55a5.74,5.74,0,0,1-4.29,5.76,6.14,6.14,0,0,1,4.86,6.09C101.16,71.7,98.1,74.4,92.77,74.4ZM91.19,54.07h-4v5.29h4c2,0,3.13-.9,3.13-2.63S93.21,54.07,91.19,54.07Zm.43,9.79H87.16v5.58h4.53c2.06,0,3.24-.94,3.24-2.74S93.67,63.86,91.62,63.86Z"/><path class="cls-2" d="M112.36,54a7,7,0,0,1,6.19,3.13V54.32h6.16V74.4h-6.16V71.56a7.12,7.12,0,0,1-6.23,3.13c-4.89,0-8.82-4-8.82-10.37S107.43,54,112.36,54Zm1.8,5.36c-2.31,0-4.39,1.73-4.39,4.93s2.08,5,4.39,5,4.39-1.77,4.39-5S116.5,59.39,114.16,59.39Z"/><path class="cls-2" d="M138,54c5,0,8.6,2.77,9.64,7.56h-6.55a3.17,3.17,0,0,0-3.2-2.31c-2.2,0-3.71,1.73-3.71,5.08s1.51,5.08,3.71,5.08a3.12,3.12,0,0,0,3.2-2.31h6.55c-1,4.65-4.6,7.56-9.64,7.56-5.91,0-10.08-4-10.08-10.33S132.12,54,138,54Z"/><path class="cls-2" d="M151,47.77h6.16V62.49l6.08-8.17h7.59L162.43,64.4l8.43,10h-7.63L157.11,66V74.4H151Z"/><path class="cls-2" d="M181.8,59.43h-2.45V54.32h2.45v-4.9H188v4.9h4v5.11h-4v8.06c0,1.19.5,1.69,1.87,1.69H192V74.4h-3.13c-4.17,0-7.09-1.76-7.09-7Z"/><path class="cls-2" d="M204.59,74.69c-5.9,0-10.37-4-10.37-10.33S198.79,54,204.66,54s10.44,4,10.44,10.33S210.49,74.69,204.59,74.69Zm0-5.33c2.2,0,4.25-1.62,4.25-5s-2-5-4.18-5-4.17,1.58-4.17,5S202.36,69.36,204.59,69.36Z"/><path class="cls-2" d="M253.69,63.5c0-2.63-1.51-4.07-3.85-4.07S246,60.87,246,63.5V74.4h-6.12V63.5c0-2.63-1.51-4.07-3.85-4.07s-3.86,1.44-3.86,4.07V74.4H226V54.32h6.15v2.52A7.09,7.09,0,0,1,238,54.1a7.5,7.5,0,0,1,6.84,3.74,8.08,8.08,0,0,1,6.77-3.74c5,0,8.17,3.17,8.17,8.57V74.4h-6.12Z"/><path class="cls-2" d="M271.76,54a7,7,0,0,1,6.2,3.13V54.32h6.15V74.4H278V71.56a7.12,7.12,0,0,1-6.23,3.13c-4.9,0-8.82-4-8.82-10.37S266.83,54,271.76,54Zm1.8,5.36c-2.3,0-4.39,1.73-4.39,4.93s2.09,5,4.39,5,4.4-1.77,4.4-5S275.9,59.39,273.56,59.39Z"/><path class="cls-2" d="M288,48.92a3.67,3.67,0,1,1,3.67,3.31A3.41,3.41,0,0,1,288,48.92Zm.58,5.4h6.15V74.4h-6.15Z"/><path class="cls-2" d="M313.05,63.5c0-2.74-1.51-4.25-3.85-4.25s-3.85,1.51-3.85,4.25V74.4H299.2V54.32h6.15V57a7.39,7.39,0,0,1,6.09-2.88c4.64,0,7.73,3.17,7.73,8.57V74.4h-6.12Z"/></svg>