<svg id="Layer_1" data-name="Layer 1" xmlns="http://www.w3.org/2000/svg" xmlns:xlink="http://www.w3.org/1999/xlink" viewBox="0 0 400 120"><defs><style>.cls-1{fill:url(#linear-gradient);}.cls-2{fill:#fff;}</style><linearGradient id="linear-gradient" x1="200" y1="106.85" x2="200" y2="-12.94" gradientUnits="userSpaceOnUse"><stop offset="0" stop-color="#f10"/><stop offset="0.22" stop-color="#ff3d98"/><stop offset="0.54" stop-color="#f80"/><stop offset="0.83" stop-color="#40ecff"/><stop offset="1" stop-color="#b9b0ff"/></linearGradient></defs><rect class="cls-1" width="400" height="120" rx="21.3"/><path class="cls-2" d="M62.21,47.73c6.54,0,9.81,3.76,9.81,8.4a7.77,7.77,0,0,1-5.93,7.71L72.24,74.4H64.91L59.36,64.33H57.81V74.4h-6.5V47.73Zm-.38,5.4h-4v6.61h4c2.43,0,3.57-1.26,3.57-3.35S64.26,53.13,61.83,53.13Z"/><path class="cls-2" d="M85.51,74.71c-6.23,0-10.72-4.18-10.72-10.91S79.2,52.9,85.51,52.9,96.07,57,96.07,63.46a17.88,17.88,0,0,1-.11,1.9H81.25c.23,2.77,1.94,4.07,4,4.07a3.46,3.46,0,0,0,3.38-2.06h6.92C94.55,71.51,90.79,74.71,85.51,74.71Zm-4.22-13h8.13c0-2.32-1.82-3.65-4-3.65A4,4,0,0,0,81.29,61.75Z"/><path class="cls-2" d="M100.52,58.6H97.93V53.2h2.59V48H107V53.2h4.26v5.4H107v8.51c0,1.25.54,1.78,2,1.78h2.32V74.4H108c-4.4,0-7.48-1.86-7.48-7.37Z"/><path class="cls-2" d="M135.85,74.4h-6.49V71.51a7.71,7.71,0,0,1-6.42,3.12c-4.9,0-8.21-3.38-8.21-9V53.2h6.46V64.71c0,2.89,1.63,4.49,4.06,4.49s4.11-1.6,4.11-4.49V53.2h6.49Z"/><path class="cls-2" d="M147,74.4h-6.5V53.2H147v3.54A7.89,7.89,0,0,1,153.68,53v6.88h-1.79c-3.08,0-4.86,1.07-4.86,4.71Z"/><path class="cls-2" d="M171.42,62.89c0-2.89-1.59-4.48-4.06-4.48s-4.07,1.59-4.07,4.48V74.4h-6.5V53.2h6.5V56a7.78,7.78,0,0,1,6.42-3c4.9,0,8.17,3.35,8.17,9.05V74.4h-6.46Z"/><path class="cls-2" d="M191.49,58.6H188.9V53.2h2.59V48H198V53.2h4.25v5.4H198v8.51c0,1.25.53,1.78,2,1.78h2.32V74.4H199c-4.4,0-7.48-1.86-7.48-7.37Z"/><path class="cls-2" d="M215.54,74.71c-6.23,0-10.94-4.18-10.94-10.91s4.82-10.9,11-10.9,11,4.18,11,10.9S221.77,74.71,215.54,74.71Zm0-5.63c2.32,0,4.48-1.71,4.48-5.28s-2.12-5.28-4.4-5.28-4.41,1.67-4.41,5.28S213.19,69.08,215.54,69.08Z"/><path class="cls-2" d="M246.21,52.9a7.34,7.34,0,0,1,6.53,3.3v-3h6.5V74.36c0,5.67-3.27,10.49-10.6,10.49-6.31,0-10.41-3.19-11-8.24h6.42c.42,1.59,2,2.62,4.25,2.62,2.47,0,4.41-1.29,4.41-4.87v-3a7.51,7.51,0,0,1-6.53,3.35c-5.21,0-9.35-4.26-9.35-10.95S241,52.9,246.21,52.9Zm1.9,5.66c-2.44,0-4.64,1.82-4.64,5.2s2.2,5.28,4.64,5.28,4.63-1.86,4.63-5.24S250.58,58.56,248.11,58.56Z"/><path class="cls-2" d="M272,52.9a7.38,7.38,0,0,1,6.53,3.3v-3H285V74.4h-6.5v-3A7.49,7.49,0,0,1,272,74.71c-5.17,0-9.31-4.26-9.31-10.95S266.8,52.9,272,52.9Zm1.9,5.66c-2.43,0-4.64,1.82-4.64,5.2S271.48,69,273.91,69s4.63-1.86,4.63-5.24S276.38,58.56,273.91,58.56Z"/><path class="cls-2" d="M319,62.89c0-2.77-1.59-4.29-4.06-4.29s-4.07,1.52-4.07,4.29V74.4h-6.46V62.89c0-2.77-1.59-4.29-4.06-4.29s-4.07,1.52-4.07,4.29V74.4h-6.5V53.2h6.5v2.66a7.49,7.49,0,0,1,6.2-2.89,7.91,7.91,0,0,1,7.21,4,8.55,8.55,0,0,1,7.15-4c5.24,0,8.62,3.35,8.62,9.05V74.4H319Z"/><path class="cls-2" d="M339.42,74.71c-6.23,0-10.71-4.18-10.71-10.91s4.4-10.9,10.71-10.9S350,57,350,63.46a17.88,17.88,0,0,1-.11,1.9H335.16c.23,2.77,1.94,4.07,4,4.07a3.46,3.46,0,0,0,3.38-2.06h6.92C348.46,71.51,344.7,74.71,339.42,74.71Zm-4.22-13h8.13c0-2.32-1.82-3.65-4-3.65A4,4,0,0,0,335.2,61.75Z"/></svg>