<svg xmlns="http://www.w3.org/2000/svg" xmlns:xlink="http://www.w3.org/1999/xlink" viewBox="0 0 616 256.69"><defs><style>.cls-1{isolation:isolate;}.cls-2{fill:url(#linear-gradient);}.cls-14,.cls-3{opacity:0.3;mix-blend-mode:multiply;}.cls-4{fill:url(#linear-gradient-2);}.cls-5{fill:url(#linear-gradient-3);}.cls-6{fill:url(#linear-gradient-4);}.cls-7{fill:url(#linear-gradient-5);}.cls-8{fill:url(#linear-gradient-6);}.cls-9{fill:url(#linear-gradient-7);}.cls-10{fill:url(#linear-gradient-8);}.cls-11{fill:url(#linear-gradient-9);}.cls-12{fill:#fff;}.cls-13{fill:url(#linear-gradient-10);}.cls-14{fill:url(#linear-gradient-11);}.cls-15{fill:url(#linear-gradient-12);}.cls-16{fill:url(#linear-gradient-13);}.cls-17{fill:url(#linear-gradient-14);}</style><linearGradient id="linear-gradient" x1="308" y1="252.79" x2="308" y2="130.17" gradientUnits="userSpaceOnUse"><stop offset="0" stop-color="#f10"/><stop offset="0.22" stop-color="#ff3d98"/><stop offset="0.54" stop-color="#f80"/><stop offset="0.83" stop-color="#40ecff"/><stop offset="1" stop-color="#b9b0ff"/></linearGradient><linearGradient id="linear-gradient-2" x1="15.01" y1="196.95" x2="83.14" y2="196.95" gradientUnits="userSpaceOnUse"><stop offset="0" stop-color="#36005f"/><stop offset="1"/></linearGradient><linearGradient id="linear-gradient-3" x1="90.18" y1="196.95" x2="116.64" y2="196.95" xlink:href="#linear-gradient-2"/><linearGradient id="linear-gradient-4" x1="129.31" y1="196.95" x2="212.5" y2="196.95" xlink:href="#linear-gradient-2"/><linearGradient id="linear-gradient-5" x1="225.17" y1="196.95" x2="251.63" y2="196.95" xlink:href="#linear-gradient-2"/><linearGradient id="linear-gradient-6" x1="261.48" y1="196.95" x2="332.56" y2="196.95" xlink:href="#linear-gradient-2"/><linearGradient id="linear-gradient-7" x1="342.42" y1="196.95" x2="426.59" y2="196.95" xlink:href="#linear-gradient-2"/><linearGradient id="linear-gradient-8" x1="439.26" y1="196.95" x2="507.95" y2="196.95" xlink:href="#linear-gradient-2"/><linearGradient id="linear-gradient-9" x1="516.39" y1="196.95" x2="600.99" y2="196.95" xlink:href="#linear-gradient-2"/><linearGradient id="linear-gradient-10" x1="303" y1="119.6" x2="303" y2="-3.03" xlink:href="#linear-gradient"/><linearGradient id="linear-gradient-11" x1="211.22" y1="63.75" x2="302.43" y2="63.75" xlink:href="#linear-gradient-2"/><linearGradient id="linear-gradient-12" x1="116.42" y1="63.75" x2="201.02" y2="63.75" xlink:href="#linear-gradient-2"/><linearGradient id="linear-gradient-13" x1="311.93" y1="63.75" x2="408.21" y2="63.75" xlink:href="#linear-gradient-2"/><linearGradient id="linear-gradient-14" x1="420.88" y1="63.75" x2="489.57" y2="63.75" xlink:href="#linear-gradient-2"/></defs><g class="cls-1"><g id="Layer_1" data-name="Layer 1"><path class="cls-2" d="M616,195.51c0-19.7-5.06-34.82-15-45v-.9h-.89c-10.31-10-24.84-15-43.17-15H527.09a25.56,25.56,0,0,0-14.73,4.65,25,25,0,0,0-14.55-4.65H446.65a22.31,22.31,0,0,0-13.73,4.71,22.26,22.26,0,0,0-13.72-4.71H407.52a22.44,22.44,0,0,0-21.15,15h-3.73a22.46,22.46,0,0,0-21.15-15H349.81a22.33,22.33,0,0,0-15.37,6.12,22.47,22.47,0,0,0-9.51-4.64c-2.54-.56-5.35-1.07-8.36-1.53a118.28,118.28,0,0,0-17.36-1.36c-15.8,0-27.9,3.22-37,9.84l-.3.23a22.37,22.37,0,0,0-17.68-8.66H232.56a22.31,22.31,0,0,0-13.73,4.71,22.26,22.26,0,0,0-13.72-4.71H193.43a22.44,22.44,0,0,0-21.15,15h-2l-4-5.61a22.45,22.45,0,0,0-18.25-9.4H136.7A22.26,22.26,0,0,0,123,139.32a22.31,22.31,0,0,0-13.73-4.71H97.57a22.24,22.24,0,0,0-10.91,2.84,22.24,22.24,0,0,0-10.91-2.84H22.4A22.43,22.43,0,0,0,0,157v75.87a22.43,22.43,0,0,0,22.4,22.4H34.09a22.43,22.43,0,0,0,21.14-15H76.42a22.44,22.44,0,0,0,21.15,15h11.68A22.31,22.31,0,0,0,123,250.57a22.26,22.26,0,0,0,13.72,4.71h11.68a22.44,22.44,0,0,0,21.15-15h1.88l4,5.61a22.42,22.42,0,0,0,18.25,9.4h11.46a22.26,22.26,0,0,0,13.72-4.71,22.31,22.31,0,0,0,13.73,4.71h11.68a22.31,22.31,0,0,0,14.23-5.11,22.61,22.61,0,0,0,4.65,2.14A80.84,80.84,0,0,0,273.87,255,113.4,113.4,0,0,0,294,256.69c16.17,0,28.54-3.41,37.83-10.42h0a22.37,22.37,0,0,0,18,9h11.68a22.46,22.46,0,0,0,21.15-15h3.73a22.44,22.44,0,0,0,21.15,15H419.2a22.26,22.26,0,0,0,13.72-4.71,22.31,22.31,0,0,0,13.73,4.71h51.16a25,25,0,0,0,14.55-4.65,25.56,25.56,0,0,0,14.73,4.65h29.84c18.34,0,32.86-5.05,43.17-15H601v-.89C610.94,229.22,616,214.48,616,195.51Z"/><g class="cls-3"><path class="cls-4" d="M22.4,151.62H75.75A7.39,7.39,0,0,1,83.14,159v4.93a7.39,7.39,0,0,1-7.39,7.39H48.87a7.39,7.39,0,0,0-7.39,7.39v.84A7.39,7.39,0,0,0,48.87,187H70.4a7.39,7.39,0,0,1,7.39,7.39v5.21a7.39,7.39,0,0,1-7.39,7.39H48.87a7.39,7.39,0,0,0-7.39,7.39v20.55a7.39,7.39,0,0,1-7.39,7.39H22.4A7.39,7.39,0,0,1,15,234.88V159A7.39,7.39,0,0,1,22.4,151.62Z"/><path class="cls-5" d="M97.57,151.62h11.68a7.39,7.39,0,0,1,7.39,7.39v75.87a7.39,7.39,0,0,1-7.39,7.39H97.57a7.39,7.39,0,0,1-7.39-7.39V159A7.39,7.39,0,0,1,97.57,151.62Z"/><path class="cls-6" d="M136.7,151.62H148a7.41,7.41,0,0,1,6,3.1l32,44.9V159a7.39,7.39,0,0,1,7.39-7.39h11.68A7.39,7.39,0,0,1,212.5,159v75.87a7.39,7.39,0,0,1-7.39,7.39H193.65a7.4,7.4,0,0,1-6-3.1l-31.86-44.76v40.47a7.39,7.39,0,0,1-7.39,7.39H136.7a7.39,7.39,0,0,1-7.39-7.39V159A7.39,7.39,0,0,1,136.7,151.62Z"/><path class="cls-7" d="M232.56,151.62h11.68a7.39,7.39,0,0,1,7.39,7.39v75.87a7.39,7.39,0,0,1-7.39,7.39H232.56a7.39,7.39,0,0,1-7.39-7.39V159A7.39,7.39,0,0,1,232.56,151.62Z"/><path class="cls-8" d="M276.54,242.2a65.48,65.48,0,0,1-8.75-2.16,7.36,7.36,0,0,1-5-7v-6.19a7.4,7.4,0,0,1,9.55-7.06c1.51.45,3.07.86,4.67,1.24a62.55,62.55,0,0,0,14.35,1.83q7.6,0,10.91-1.34t3.31-5.28a5.61,5.61,0,0,0-1.62-4.15,13.53,13.53,0,0,0-4.71-2.82q-3.06-1.17-9.66-3.24l-.4-.12A31.35,31.35,0,0,1,286,205a58.9,58.9,0,0,1-14.56-6.47A20.87,20.87,0,0,1,263.8,190a29.64,29.64,0,0,1-2.32-12.46q0-13.36,9.57-20.34t28.16-7a103,103,0,0,1,15.13,1.19c2.69.41,5.14.85,7.36,1.34a7.39,7.39,0,0,1,5.8,7.22v6.13a7.39,7.39,0,0,1-9.21,7.15,60.32,60.32,0,0,0-14.86-1.92,41.38,41.38,0,0,0-11.19,1.13,4.73,4.73,0,0,0-3.73,4.92,4.84,4.84,0,0,0,1.55,3.8,13.31,13.31,0,0,0,4.71,2.47q3.17,1,10.77,3,10.83,3,16.68,7.11a22.62,22.62,0,0,1,8.09,9.5,33.37,33.37,0,0,1,2.25,12.95q0,12.68-9.78,20.06T294,243.68A97.53,97.53,0,0,1,276.54,242.2Z"/><path class="cls-9" d="M349.81,151.62h11.68a7.39,7.39,0,0,1,7.39,7.39v19a7.39,7.39,0,0,0,7.39,7.39h16.47a7.39,7.39,0,0,0,7.39-7.39V159a7.39,7.39,0,0,1,7.39-7.39H419.2a7.39,7.39,0,0,1,7.39,7.39v75.87a7.39,7.39,0,0,1-7.39,7.39H407.52a7.39,7.39,0,0,1-7.39-7.39v-19a7.39,7.39,0,0,0-7.39-7.39H376.27a7.39,7.39,0,0,0-7.39,7.39v19a7.39,7.39,0,0,1-7.39,7.39H349.81a7.39,7.39,0,0,1-7.39-7.39V159A7.39,7.39,0,0,1,349.81,151.62Z"/><path class="cls-10" d="M446.65,151.62h51.16A10.14,10.14,0,0,1,508,161.76h0a10.13,10.13,0,0,1-10.14,10.13h-24.7a7.39,7.39,0,0,0-7.39,7.39h0a7.39,7.39,0,0,0,7.39,7.39H492.6a10.14,10.14,0,0,1,10.14,10.14v.28a10.13,10.13,0,0,1-10.14,10.13H473.11a7.39,7.39,0,0,0-7.39,7.39h0a7.39,7.39,0,0,0,7.39,7.39h24.7A10.14,10.14,0,0,1,508,232.14h0a10.14,10.14,0,0,1-10.14,10.13H446.65a7.39,7.39,0,0,1-7.39-7.39V159A7.39,7.39,0,0,1,446.65,151.62Z"/><path class="cls-11" d="M516.39,162.32a10.7,10.7,0,0,1,10.7-10.7h29.84q21.68,0,32.87,10.91t11.19,35q0,23-11.19,33.85t-32.87,10.91H527.09a10.7,10.7,0,0,1-10.7-10.7ZM553.55,222a27.11,27.11,0,0,0,11.4-2,13.75,13.75,0,0,0,6.69-7.32q2.33-5.28,2.32-15.13T571.85,182a13.79,13.79,0,0,0-6.55-7.82q-4.42-2.25-11.75-2.25h-10.7V222Z"/></g><path class="cls-12" d="M22.4,145.62H75.75A7.39,7.39,0,0,1,83.14,153v4.92a7.39,7.39,0,0,1-7.39,7.39H48.87a7.39,7.39,0,0,0-7.39,7.39v.85A7.39,7.39,0,0,0,48.87,181H70.4a7.39,7.39,0,0,1,7.39,7.39v5.21a7.39,7.39,0,0,1-7.39,7.39H48.87a7.39,7.39,0,0,0-7.39,7.39v20.55a7.39,7.39,0,0,1-7.39,7.39H22.4A7.39,7.39,0,0,1,15,228.88V153A7.39,7.39,0,0,1,22.4,145.62Z"/><path class="cls-12" d="M97.57,145.62h11.68a7.39,7.39,0,0,1,7.39,7.39v75.87a7.39,7.39,0,0,1-7.39,7.39H97.57a7.39,7.39,0,0,1-7.39-7.39V153A7.39,7.39,0,0,1,97.57,145.62Z"/><path class="cls-12" d="M136.7,145.62H148a7.39,7.39,0,0,1,6,3.1l32,44.9V153a7.39,7.39,0,0,1,7.39-7.39h11.68A7.39,7.39,0,0,1,212.5,153v75.87a7.39,7.39,0,0,1-7.39,7.39H193.65a7.38,7.38,0,0,1-6-3.11l-31.86-44.75v40.47a7.39,7.39,0,0,1-7.39,7.39H136.7a7.39,7.39,0,0,1-7.39-7.39V153A7.39,7.39,0,0,1,136.7,145.62Z"/><path class="cls-12" d="M232.56,145.62h11.68a7.39,7.39,0,0,1,7.39,7.39v75.87a7.39,7.39,0,0,1-7.39,7.39H232.56a7.39,7.39,0,0,1-7.39-7.39V153A7.39,7.39,0,0,1,232.56,145.62Z"/><path class="cls-12" d="M276.54,236.2a68.7,68.7,0,0,1-8.75-2.16,7.37,7.37,0,0,1-5-7v-6.18a7.4,7.4,0,0,1,9.55-7.07c1.51.45,3.07.86,4.67,1.24a62.55,62.55,0,0,0,14.35,1.83q7.6,0,10.91-1.34t3.31-5.27a5.64,5.64,0,0,0-1.62-4.16,13.67,13.67,0,0,0-4.71-2.81q-3.06-1.19-9.66-3.25l-.4-.11A30.87,30.87,0,0,1,286,199a58.53,58.53,0,0,1-14.56-6.47A20.74,20.74,0,0,1,263.8,184a29.63,29.63,0,0,1-2.32-12.45q0-13.38,9.57-20.34t28.16-7a101.68,101.68,0,0,1,15.13,1.2q4,.6,7.36,1.34a7.38,7.38,0,0,1,5.8,7.22v6.12a7.38,7.38,0,0,1-9.21,7.15,60.32,60.32,0,0,0-14.86-1.92,41.38,41.38,0,0,0-11.19,1.13,4.73,4.73,0,0,0-3.73,4.93,4.87,4.87,0,0,0,1.55,3.8,13.15,13.15,0,0,0,4.71,2.46q3.17,1.05,10.77,3,10.83,3,16.68,7.11a22.51,22.51,0,0,1,8.09,9.5,33.33,33.33,0,0,1,2.25,12.95q0,12.66-9.78,20.05T294,237.67A98.49,98.49,0,0,1,276.54,236.2Z"/><path class="cls-12" d="M349.81,145.62h11.68a7.39,7.39,0,0,1,7.39,7.39v19a7.39,7.39,0,0,0,7.39,7.39h16.47a7.39,7.39,0,0,0,7.39-7.39V153a7.39,7.39,0,0,1,7.39-7.39H419.2a7.39,7.39,0,0,1,7.39,7.39v75.87a7.39,7.39,0,0,1-7.39,7.39H407.52a7.39,7.39,0,0,1-7.39-7.39v-19a7.39,7.39,0,0,0-7.39-7.39H376.27a7.39,7.39,0,0,0-7.39,7.39v19a7.39,7.39,0,0,1-7.39,7.39H349.81a7.39,7.39,0,0,1-7.39-7.39V153A7.39,7.39,0,0,1,349.81,145.62Z"/><path class="cls-12" d="M446.65,145.62h51.16A10.14,10.14,0,0,1,508,155.75h0a10.14,10.14,0,0,1-10.14,10.14h-24.7a7.39,7.39,0,0,0-7.39,7.39h0a7.39,7.39,0,0,0,7.39,7.39H492.6a10.13,10.13,0,0,1,10.14,10.13v.28a10.14,10.14,0,0,1-10.14,10.14H473.11a7.39,7.39,0,0,0-7.39,7.39h0a7.39,7.39,0,0,0,7.39,7.39h24.7A10.13,10.13,0,0,1,508,226.13h0a10.14,10.14,0,0,1-10.14,10.14H446.65a7.39,7.39,0,0,1-7.39-7.39V153A7.39,7.39,0,0,1,446.65,145.62Z"/><path class="cls-12" d="M516.39,156.32a10.7,10.7,0,0,1,10.7-10.7h29.84q21.68,0,32.87,10.91t11.19,35q0,23-11.19,33.86t-32.87,10.91H527.09a10.7,10.7,0,0,1-10.7-10.7ZM553.55,216a27.11,27.11,0,0,0,11.4-2,13.75,13.75,0,0,0,6.69-7.32Q574,201.36,574,191.5T571.85,176a13.77,13.77,0,0,0-6.55-7.81q-4.42-2.25-11.75-2.25h-10.7V216Z"/><path class="cls-13" d="M482.9,1.41H427.55a21.62,21.62,0,0,0-13,4.34,21.59,21.59,0,0,0-13-4.34H386.77a21.84,21.84,0,0,0-19.51,12.2l-1.36,2.81H354.41L353,13.56A21.83,21.83,0,0,0,333.53,1.41H318.61a21.73,21.73,0,0,0-20.64,15H286.91l-.34-.89A22.13,22.13,0,0,0,266,1.41H247.62a22.13,22.13,0,0,0-20.54,14.12l-.34.89L213.88,42.33l-3.94-24.49a22.29,22.29,0,0,0-16.26-15.1A113.74,113.74,0,0,0,167.8,0c-12.94,0-26.21,2.19-37.64,8.53-4.94,2.73-9.24,5.26-12.78,9.65-4.17,5.18-8.26,10.49-10.86,16.66a71.37,71.37,0,0,0-5.11,27.75A69.89,69.89,0,0,0,106.13,89c9.81,24.1,35.37,34.48,59.84,34.48a96,96,0,0,0,24.31-2.82,75.3,75.3,0,0,0,12.85-4.58,22,22,0,0,0,15.08,6h12.65A22.13,22.13,0,0,0,251.37,108l.37-1h10.13l.43,1.09a21.87,21.87,0,0,0,20.46,13.92h12.68a21.93,21.93,0,0,0,11.63-3.33,21.57,21.57,0,0,0,11.54,3.33h13.11a21.71,21.71,0,0,0,20.62-15H367.8a21.72,21.72,0,0,0,20.62,15h13.12a21.53,21.53,0,0,0,13-4.34,21.56,21.56,0,0,0,13,4.34H482.9a21.7,21.7,0,0,0,21.68-21.68V93.47a21.63,21.63,0,0,0-8.27-17,21.51,21.51,0,0,0,3.06-11.1V58.14A21.51,21.51,0,0,0,496.31,47a21.62,21.62,0,0,0,8.27-17V23.09A21.71,21.71,0,0,0,482.9,1.41Z"/><path class="cls-14" d="M247.62,18.42H266a7,7,0,0,1,6.52,4.49L302,99.59a7,7,0,0,1-6.52,9.48H282.76a7,7,0,0,1-6.49-4.42l-4.12-10.44a7,7,0,0,0-6.5-4.42H247.89a7,7,0,0,0-6.51,4.46l-4,10.36a7,7,0,0,1-6.51,4.46H218.21a7,7,0,0,1-6.52-9.48L241.1,22.91A7,7,0,0,1,247.62,18.42Zm19.27,52.37L256.75,44.18,246.62,70.79Z"/><g class="cls-3"><path class="cls-15" d="M129.16,98.66q-12.73-11.84-12.74-34.07,0-22.94,13.16-35.26T167.8,17a98.55,98.55,0,0,1,22.45,2.34,7.36,7.36,0,0,1,5.7,7.15V34a7.31,7.31,0,0,1-8.73,7.2,88.13,88.13,0,0,0-17.59-1.62q-13.23,0-19.71,6t-6.47,19.07q0,12.1,5.56,17.74T166,88a48.54,48.54,0,0,0,6.65-.46,7.35,7.35,0,0,0,6.3-7.27h0a7.33,7.33,0,0,0-7.33-7.33h-3.36a7.33,7.33,0,0,1-7.33-7.33V63.9a7.33,7.33,0,0,1,7.33-7.33h25.46A7.33,7.33,0,0,1,201,63.9V97.84a7.34,7.34,0,0,1-4.22,6.64,60.72,60.72,0,0,1-10.35,3.68A80.64,80.64,0,0,1,166,110.48Q141.89,110.48,129.16,98.66Z"/><path class="cls-16" d="M318.61,18.42h14.92a6.68,6.68,0,0,1,6,3.74l14.68,30a6.67,6.67,0,0,0,12,0l14.58-30a6.66,6.66,0,0,1,6-3.76h14.77a6.68,6.68,0,0,1,6.67,6.68v77.3a6.67,6.67,0,0,1-6.67,6.67H388.42a6.67,6.67,0,0,1-6.67-6.67V63.75L369.08,89.83a6.68,6.68,0,0,1-6,3.76h-5.88a6.67,6.67,0,0,1-6-3.74l-12.8-26.1V102.4a6.68,6.68,0,0,1-6.68,6.67H318.61a6.68,6.68,0,0,1-6.68-6.67V25.1A6.68,6.68,0,0,1,318.61,18.42Z"/><path class="cls-17" d="M427.55,18.42H482.9a6.68,6.68,0,0,1,6.67,6.68V32a6.67,6.67,0,0,1-6.67,6.67H454a6.67,6.67,0,0,0-6.67,6.67V46.8A6.67,6.67,0,0,0,454,53.47h23.68a6.67,6.67,0,0,1,6.67,6.67v7.21A6.67,6.67,0,0,1,477.69,74H454a6.68,6.68,0,0,0-6.67,6.68v1.43A6.67,6.67,0,0,0,454,88.8H482.9a6.68,6.68,0,0,1,6.67,6.68v6.92a6.67,6.67,0,0,1-6.67,6.67H427.55a6.67,6.67,0,0,1-6.67-6.67V25.1A6.67,6.67,0,0,1,427.55,18.42Z"/></g><path class="cls-12" d="M129.16,92.65q-12.73-11.82-12.74-34.06,0-23,13.16-35.26T167.8,11a98.55,98.55,0,0,1,22.45,2.34,7.37,7.37,0,0,1,5.7,7.16V28a7.31,7.31,0,0,1-8.73,7.19,88.13,88.13,0,0,0-17.59-1.62q-13.23,0-19.71,6t-6.47,19.08q0,12.1,5.56,17.73T166,82a47,47,0,0,0,6.65-.46,7.34,7.34,0,0,0,6.3-7.27h0a7.33,7.33,0,0,0-7.33-7.33h-3.36a7.33,7.33,0,0,1-7.33-7.33V57.89a7.33,7.33,0,0,1,7.33-7.33h25.46A7.33,7.33,0,0,1,201,57.89V91.83a7.36,7.36,0,0,1-4.22,6.65,60.74,60.74,0,0,1-10.35,3.67A80.64,80.64,0,0,1,166,104.47Q141.89,104.47,129.16,92.65Z"/><path class="cls-12" d="M247.62,12.42H266a7,7,0,0,1,6.52,4.48L302,93.58a7,7,0,0,1-6.52,9.49H282.76a7,7,0,0,1-6.49-4.43l-4.12-10.43a7,7,0,0,0-6.5-4.43H247.89a7,7,0,0,0-6.51,4.47l-4,10.35a7,7,0,0,1-6.51,4.47H218.21a7,7,0,0,1-6.52-9.49L241.1,16.9A7,7,0,0,1,247.62,12.42Zm19.27,52.36-10.14-26.6-10.13,26.6Z"/><path class="cls-12" d="M318.61,12.42h14.92a6.66,6.66,0,0,1,6,3.74l14.68,30a6.67,6.67,0,0,0,12,0l14.58-30a6.66,6.66,0,0,1,6-3.75h14.77a6.67,6.67,0,0,1,6.67,6.67v77.3a6.68,6.68,0,0,1-6.67,6.68H388.42a6.68,6.68,0,0,1-6.67-6.68V57.74L369.08,83.83a6.69,6.69,0,0,1-6,3.75h-5.88a6.68,6.68,0,0,1-6-3.73L338.4,57.74V96.39a6.68,6.68,0,0,1-6.68,6.68H318.61a6.68,6.68,0,0,1-6.68-6.68V19.09A6.68,6.68,0,0,1,318.61,12.42Z"/><path class="cls-12" d="M427.55,12.42H482.9a6.67,6.67,0,0,1,6.67,6.67V26a6.67,6.67,0,0,1-6.67,6.67H454a6.67,6.67,0,0,0-6.67,6.67v1.43A6.68,6.68,0,0,0,454,47.47h23.68a6.67,6.67,0,0,1,6.67,6.67v7.21A6.67,6.67,0,0,1,477.69,68H454a6.67,6.67,0,0,0-6.67,6.67v1.44A6.67,6.67,0,0,0,454,82.8H482.9a6.67,6.67,0,0,1,6.67,6.67v6.92a6.68,6.68,0,0,1-6.67,6.68H427.55a6.67,6.67,0,0,1-6.67-6.68V19.09A6.67,6.67,0,0,1,427.55,12.42Z"/></g></g></svg>