<svg id="Layer_1" data-name="Layer 1" xmlns="http://www.w3.org/2000/svg" xmlns:xlink="http://www.w3.org/1999/xlink" viewBox="0 0 400 120"><defs><style>.cls-1{fill:url(#linear-gradient);}.cls-2{fill:#fff;}</style><linearGradient id="linear-gradient" x1="200" y1="106.85" x2="200" y2="-12.94" gradientUnits="userSpaceOnUse"><stop offset="0" stop-color="#f10"/><stop offset="0.22" stop-color="#ff3d98"/><stop offset="0.54" stop-color="#f80"/><stop offset="0.83" stop-color="#40ecff"/><stop offset="1" stop-color="#b9b0ff"/></linearGradient></defs><rect class="cls-1" width="400" height="120" rx="21.3"/><path class="cls-2" d="M100.63,74.67c-5.74,0-10.22-2.85-10.41-8.25h6.91a3.06,3.06,0,0,0,3.31,3c1.9,0,3.12-.95,3.12-2.5,0-4.94-13.34-2.28-13.26-11.74,0-5.06,4.14-7.87,9.72-7.87,5.82,0,9.73,2.89,10,8h-7a2.88,2.88,0,0,0-3.08-2.77c-1.56,0-2.74.76-2.74,2.43,0,4.63,13.19,2.54,13.19,11.47C110.36,71,106.86,74.67,100.63,74.67Z"/><path class="cls-2" d="M115.38,58.6h-2.59V53.2h2.59V48h6.49V53.2h4.26v5.4h-4.26v8.51c0,1.25.53,1.78,2,1.78h2.32V74.4h-3.31c-4.41,0-7.48-1.86-7.48-7.37Z"/><path class="cls-2" d="M137.83,52.9a7.38,7.38,0,0,1,6.54,3.3v-3h6.49V74.4h-6.49v-3a7.51,7.51,0,0,1-6.58,3.31c-5.16,0-9.3-4.26-9.3-10.95S132.63,52.9,137.83,52.9Zm1.9,5.66c-2.43,0-4.63,1.82-4.63,5.2S137.3,69,139.73,69s4.64-1.86,4.64-5.24S142.2,58.56,139.73,58.56Z"/><path class="cls-2" d="M162.08,74.4h-6.5V53.2h6.5v3.53A7.9,7.9,0,0,1,168.72,53v6.88h-1.78c-3.08,0-4.86,1.07-4.86,4.71Z"/><path class="cls-2" d="M172.87,58.6h-2.59V53.2h2.59V48h6.49V53.2h4.26v5.4h-4.26v8.51c0,1.25.54,1.78,2,1.78h2.32V74.4h-3.31c-4.4,0-7.48-1.86-7.48-7.37Z"/><path class="cls-2" d="M220.21,56.17H213a5.58,5.58,0,0,0-5.24-2.74c-4.18,0-7,3-7,7.6,0,4.94,2.82,7.83,7.49,7.83a6.39,6.39,0,0,0,6.46-4.72h-8.25V59.36h14.14v6a13.06,13.06,0,0,1-12.84,9.19c-8,0-13.61-5.58-13.61-13.56s5.59-13.6,13.57-13.6C214.17,47.43,218.81,50.69,220.21,56.17Z"/><path class="cls-2" d="M232.34,52.9a7.38,7.38,0,0,1,6.53,3.3v-3h6.5V74.4h-6.5v-3a7.5,7.5,0,0,1-6.57,3.31c-5.17,0-9.31-4.26-9.31-10.95S227.13,52.9,232.34,52.9Zm1.9,5.66c-2.44,0-4.64,1.82-4.64,5.2S231.8,69,234.24,69s4.63-1.86,4.63-5.24S236.71,58.56,234.24,58.56Z"/><path class="cls-2" d="M279.3,62.89c0-2.77-1.59-4.29-4.07-4.29s-4.06,1.52-4.06,4.29V74.4h-6.46V62.89c0-2.77-1.59-4.29-4.07-4.29s-4.06,1.52-4.06,4.29V74.4h-6.5V53.2h6.5v2.66A7.47,7.47,0,0,1,262.77,53a7.93,7.93,0,0,1,7.22,4,8.54,8.54,0,0,1,7.14-4c5.25,0,8.63,3.35,8.63,9.05V74.4H279.3Z"/><path class="cls-2" d="M299.75,74.71c-6.23,0-10.72-4.18-10.72-10.91s4.41-10.9,10.72-10.9,10.56,4.1,10.56,10.56a17.88,17.88,0,0,1-.11,1.9H295.49c.23,2.77,1.94,4.07,4,4.07a3.46,3.46,0,0,0,3.38-2.06h6.92C308.79,71.51,305,74.71,299.75,74.71Zm-4.22-13h8.13c0-2.32-1.82-3.65-4-3.65A4,4,0,0,0,295.53,61.75Z"/></svg>