<svg id="Layer_1" data-name="Layer 1" xmlns="http://www.w3.org/2000/svg" viewBox="0 0 400 120"><defs><style>.cls-1{fill:#fff;}</style></defs><path class="cls-1" d="M94.39,74.4H85V49.31h9c5.3,0,8,2.88,8,6.37a5.87,5.87,0,0,1-4.39,5.8,6.27,6.27,0,0,1,5,6.19C102.56,71.45,99.58,74.4,94.39,74.4ZM93.75,52H88.31v8.14h5.51c3.06,0,4.82-1.51,4.82-4.07S97,52,93.75,52ZM94,62.85H88.31V71.7h5.8c3.24,0,5.18-1.62,5.18-4.35S97.2,62.85,94,62.85Z"/><path class="cls-1" d="M115.24,54.35a8.17,8.17,0,0,1,7.34,3.93v-3.6h3.31V74.4h-3.31V70.73a8.25,8.25,0,0,1-7.38,4c-5.25,0-9.32-4.14-9.32-10.26S110,54.35,115.24,54.35Zm.65,2.85c-3.6,0-6.66,2.62-6.66,7.27s3.06,7.38,6.66,7.38,6.69-2.7,6.69-7.35S119.49,57.2,115.89,57.2Z"/><path class="cls-1" d="M139.83,54.35c4.89,0,8.09,2.52,9.1,6.66H145.4a5.37,5.37,0,0,0-5.57-3.89c-3.6,0-6.27,2.56-6.27,7.38S136.23,72,139.83,72c2.91,0,4.85-1.41,5.57-3.89h3.53c-1,3.92-4.21,6.66-9.1,6.66-5.62,0-9.62-4-9.62-10.23S134.21,54.35,139.83,54.35Z"/><path class="cls-1" d="M153.29,47.77h3.28V63.42l7.59-8.74h4.57l-9.28,9.82,9.32,9.9H164.3l-7.73-8.71V74.4h-3.28Z"/><path class="cls-1" d="M182.16,57.38h-2.55v-2.7h2.55v-5h3.28v5h5.14v2.7h-5.14V69c0,2,.72,2.63,2.73,2.63h2.41V74.4h-3c-3.49,0-5.47-1.44-5.47-5.4Z"/><path class="cls-1" d="M203.15,74.73c-5.58,0-9.83-4-9.83-10.23s4.39-10.15,10-10.15,10,3.93,10,10.15A9.78,9.78,0,0,1,203.15,74.73Zm0-2.88c3.42,0,6.77-2.34,6.77-7.35s-3.28-7.3-6.66-7.3-6.59,2.34-6.59,7.3S199.73,71.85,203.15,71.85Z"/><path class="cls-1" d="M255.67,63.24c0-4-2.16-6.08-5.4-6.08s-5.58,2.12-5.58,6.37V74.4h-3.24V63.24c0-4-2.16-6.08-5.4-6.08s-5.58,2.12-5.58,6.37V74.4H227.2V54.68h3.27v2.84a7.13,7.13,0,0,1,6.23-3.2,7.43,7.43,0,0,1,7.24,4.39,7.3,7.3,0,0,1,7-4.39c4.5,0,8,2.8,8,8.46V74.4h-3.24Z"/><path class="cls-1" d="M272.41,54.35a8.2,8.2,0,0,1,7.35,3.93v-3.6h3.31V74.4h-3.31V70.73a8.26,8.26,0,0,1-7.38,4c-5.26,0-9.33-4.14-9.33-10.26S267.12,54.35,272.41,54.35Zm.65,2.85c-3.6,0-6.66,2.62-6.66,7.27s3.06,7.38,6.66,7.38,6.7-2.7,6.7-7.35S276.66,57.2,273.06,57.2Z"/><path class="cls-1" d="M288.07,49.24a2.2,2.2,0,1,1,2.23,2.23A2.19,2.19,0,0,1,288.07,49.24Zm.54,5.44h3.28V74.4h-3.28Z"/><path class="cls-1" d="M311.9,63.24c0-4-2.19-6.08-5.5-6.08s-5.65,2.09-5.65,6.34V74.4h-3.28V54.68h3.28v2.8a7.27,7.27,0,0,1,6.33-3.16c4.57,0,8.06,2.8,8.06,8.46V74.4H311.9Z"/><path class="cls-1" d="M377.69,120H22.3A22.32,22.32,0,0,1,0,97.7V22.3A22.33,22.33,0,0,1,22.3,0H377.69A22.33,22.33,0,0,1,400,22.3V97.7A22.32,22.32,0,0,1,377.69,120ZM22.3,2A20.33,20.33,0,0,0,2,22.3V97.7A20.33,20.33,0,0,0,22.3,118H377.69A20.32,20.32,0,0,0,398,97.7V22.3A20.32,20.32,0,0,0,377.69,2Z"/></svg>