<svg id="Layer_1" data-name="Layer 1" xmlns="http://www.w3.org/2000/svg" xmlns:xlink="http://www.w3.org/1999/xlink" viewBox="0 0 400 120"><defs><style>.cls-1{fill:url(#linear-gradient);}.cls-2{fill:#fff;}</style><linearGradient id="linear-gradient" x1="200" y1="106.85" x2="200" y2="-12.94" gradientUnits="userSpaceOnUse"><stop offset="0" stop-color="#f10"/><stop offset="0.22" stop-color="#ff3d98"/><stop offset="0.54" stop-color="#f80"/><stop offset="0.83" stop-color="#40ecff"/><stop offset="1" stop-color="#b9b0ff"/></linearGradient></defs><rect class="cls-1" width="400" height="120" rx="21.3"/><path class="cls-2" d="M57.22,74.67c-5.74,0-10.22-2.85-10.41-8.25h6.91a3.05,3.05,0,0,0,3.31,3c1.9,0,3.11-.95,3.11-2.5,0-4.94-13.33-2.28-13.26-11.74,0-5.06,4.14-7.87,9.73-7.87,5.81,0,9.72,2.89,10,8h-7a2.88,2.88,0,0,0-3.08-2.77A2.36,2.36,0,0,0,53.76,55c0,4.63,13.18,2.54,13.18,11.47C66.94,71,63.45,74.67,57.22,74.67Z"/><path class="cls-2" d="M72,58.6H69.38V53.2H72V48h6.5V53.2h4.25v5.4H78.46v8.51c0,1.25.53,1.78,2,1.78h2.32V74.4h-3.3C75,74.4,72,72.54,72,67Z"/><path class="cls-2" d="M94.42,52.9A7.38,7.38,0,0,1,101,56.2v-3h6.5V74.4H101v-3a7.5,7.5,0,0,1-6.57,3.31c-5.17,0-9.31-4.26-9.31-10.95S89.21,52.9,94.42,52.9Zm1.9,5.66c-2.43,0-4.64,1.82-4.64,5.2S93.89,69,96.32,69,101,67.18,101,63.8,98.79,58.56,96.32,58.56Z"/><path class="cls-2" d="M118.66,74.4h-6.5V53.2h6.5v3.54A7.89,7.89,0,0,1,125.31,53v6.88h-1.79c-3.07,0-4.86,1.07-4.86,4.71Z"/><path class="cls-2" d="M129.45,58.6h-2.58V53.2h2.58V48H136V53.2h4.26v5.4H136v8.51c0,1.25.53,1.78,2,1.78h2.31V74.4h-3.3c-4.41,0-7.49-1.86-7.49-7.37Z"/><path class="cls-2" d="M166.54,62.89c0-2.89-1.6-4.48-4.07-4.48s-4.06,1.59-4.06,4.48V74.4h-6.5V53.2h6.5V56a7.78,7.78,0,0,1,6.42-3c4.9,0,8.17,3.35,8.17,9.05V74.4h-6.46Z"/><path class="cls-2" d="M187,74.71c-6.24,0-10.72-4.18-10.72-10.91S180.64,52.9,187,52.9s10.56,4.1,10.56,10.56a15.63,15.63,0,0,1-.12,1.9h-14.7c.23,2.77,1.94,4.07,4,4.07a3.46,3.46,0,0,0,3.38-2.06H197C196,71.51,192.23,74.71,187,74.71Zm-4.22-13h8.13c0-2.32-1.82-3.65-4-3.65A4,4,0,0,0,182.73,61.75Z"/><path class="cls-2" d="M198.73,53.2h6.49l3,15.16L211.8,53.2h6.87l3.61,15.09,3-15.09h6.12l-5.74,21.2h-7.18L215.1,60.65,211.65,74.4H204.5Z"/><path class="cls-2" d="M250,52.9a7.34,7.34,0,0,1,6.53,3.3v-3H263V74.36c0,5.67-3.27,10.49-10.6,10.49-6.31,0-10.41-3.19-11-8.24h6.42c.42,1.59,2,2.62,4.26,2.62,2.47,0,4.4-1.29,4.4-4.87v-3A7.49,7.49,0,0,1,250,74.71c-5.21,0-9.35-4.26-9.35-10.95S244.74,52.9,250,52.9Zm1.9,5.66c-2.43,0-4.64,1.82-4.64,5.2S249.42,69,251.85,69s4.63-1.86,4.63-5.24S254.32,58.56,251.85,58.56Z"/><path class="cls-2" d="M275.75,52.9a7.39,7.39,0,0,1,6.54,3.3v-3h6.49V74.4h-6.49v-3a7.51,7.51,0,0,1-6.58,3.31c-5.17,0-9.31-4.26-9.31-10.95S270.54,52.9,275.75,52.9Zm1.9,5.66c-2.43,0-4.63,1.82-4.63,5.2s2.2,5.28,4.63,5.28,4.64-1.86,4.64-5.24S280.12,58.56,277.65,58.56Z"/><path class="cls-2" d="M322.71,62.89c0-2.77-1.59-4.29-4.06-4.29s-4.07,1.52-4.07,4.29V74.4h-6.46V62.89c0-2.77-1.59-4.29-4.06-4.29S300,60.12,300,62.89V74.4H293.5V53.2H300v2.66a7.49,7.49,0,0,1,6.2-2.89,7.94,7.94,0,0,1,7.22,4,8.51,8.51,0,0,1,7.14-4c5.24,0,8.62,3.35,8.62,9.05V74.4h-6.46Z"/><path class="cls-2" d="M343.16,74.71c-6.23,0-10.71-4.18-10.71-10.91s4.41-10.9,10.71-10.9,10.56,4.1,10.56,10.56a15.58,15.58,0,0,1-.11,1.9h-14.7c.22,2.77,1.93,4.07,4,4.07a3.47,3.47,0,0,0,3.39-2.06h6.91C352.21,71.51,348.44,74.71,343.16,74.71Zm-4.21-13h8.13c0-2.32-1.83-3.65-4-3.65A4,4,0,0,0,339,61.75Z"/></svg>