<svg id="Layer_1" data-name="Layer 1" xmlns="http://www.w3.org/2000/svg" xmlns:xlink="http://www.w3.org/1999/xlink" viewBox="0 0 400 120"><defs><style>.cls-1{fill:url(#linear-gradient);}.cls-2{fill:#fff;}</style><linearGradient id="linear-gradient" x1="200" y1="106.85" x2="200" y2="-12.94" gradientUnits="userSpaceOnUse"><stop offset="0" stop-color="#f10"/><stop offset="0.22" stop-color="#ff3d98"/><stop offset="0.54" stop-color="#f80"/><stop offset="0.83" stop-color="#40ecff"/><stop offset="1" stop-color="#b9b0ff"/></linearGradient></defs><rect class="cls-1" width="400" height="120" rx="21.3"/><path class="cls-2" d="M138.31,74.67A13.66,13.66,0,1,1,152,61,13.42,13.42,0,0,1,138.31,74.67Zm0-5.93c4.25,0,7-3.08,7-7.75s-2.77-7.75-7-7.75-7.07,3-7.07,7.75S134,68.74,138.31,68.74Z"/><path class="cls-2" d="M168.59,52.9c5.21,0,9.35,4.18,9.35,10.86s-4.14,10.95-9.35,10.95a7.63,7.63,0,0,1-6.53-3.27V84.51h-6.5V53.2h6.5v3A7.46,7.46,0,0,1,168.59,52.9Zm-1.94,5.66c-2.43,0-4.63,1.86-4.63,5.24s2.2,5.24,4.63,5.24,4.68-1.89,4.68-5.28S169.12,58.56,166.65,58.56Z"/><path class="cls-2" d="M182.39,58.6H179.8V53.2h2.59V48h6.49V53.2h4.26v5.4h-4.26v8.51c0,1.25.54,1.78,2,1.78h2.32V74.4h-3.31c-4.41,0-7.48-1.86-7.48-7.37Z"/><path class="cls-2" d="M196.18,47.5a3.87,3.87,0,1,1,3.88,3.5A3.6,3.6,0,0,1,196.18,47.5Zm.61,5.7h6.5V74.4h-6.5Z"/><path class="cls-2" d="M217.65,74.71c-6.23,0-10.94-4.18-10.94-10.91s4.82-10.9,11-10.9,11,4.18,11,10.9S223.88,74.71,217.65,74.71Zm0-5.63c2.32,0,4.48-1.71,4.48-5.28s-2.13-5.28-4.41-5.28-4.4,1.67-4.4,5.28S215.29,69.08,217.65,69.08Z"/><path class="cls-2" d="M246.83,62.89c0-2.89-1.59-4.48-4.06-4.48S238.7,60,238.7,62.89V74.4h-6.49V53.2h6.49V56a7.78,7.78,0,0,1,6.42-3c4.9,0,8.17,3.35,8.17,9.05V74.4h-6.46Z"/><path class="cls-2" d="M266.44,74.71c-5.66,0-9.46-3.16-9.76-7.26h6.42c.15,1.48,1.48,2.47,3.27,2.47s2.54-.76,2.54-1.71c0-3.42-11.55-.95-11.55-8.74,0-3.61,3.08-6.57,8.63-6.57s8.51,3,8.92,7.22h-6c-.19-1.45-1.29-2.4-3.12-2.4-1.51,0-2.35.61-2.35,1.64,0,3.38,11.47,1,11.59,8.89C275,71.93,271.76,74.71,266.44,74.71Z"/></svg>