<svg id="Layer_1" data-name="Layer 1" xmlns="http://www.w3.org/2000/svg" viewBox="0 0 400 120"><defs><style>.cls-1{fill:#fff;}</style></defs><path class="cls-1" d="M377.69,120H22.3A22.32,22.32,0,0,1,0,97.7V22.3A22.33,22.33,0,0,1,22.3,0H377.69A22.33,22.33,0,0,1,400,22.3V97.7A22.32,22.32,0,0,1,377.69,120ZM22.3,2A20.33,20.33,0,0,0,2,22.3V97.7A20.33,20.33,0,0,0,22.3,118H377.69A20.32,20.32,0,0,0,398,97.7V22.3A20.32,20.32,0,0,0,377.69,2Z"/><path class="cls-1" d="M107.5,74.65c-5,0-8.61-2.8-8.68-6.94h3.49c.22,2.08,1.7,4.17,5.19,4.17,3.17,0,5-1.8,5-4.17,0-6.77-13.57-2.45-13.57-11.77,0-4.14,3.34-6.95,8.31-6.95,4.79,0,7.92,2.63,8.32,6.44H112c-.22-1.69-1.8-3.6-4.86-3.63-2.7-.07-4.83,1.33-4.83,4,0,6.48,13.54,2.45,13.54,11.73C115.85,71.13,112.93,74.65,107.5,74.65Z"/><path class="cls-1" d="M121.39,57.38h-2.55v-2.7h2.55v-5h3.28v5h5.15v2.7h-5.15V69c0,2,.72,2.63,2.74,2.63h2.41V74.4h-2.95c-3.49,0-5.48-1.44-5.48-5.4Z"/><path class="cls-1" d="M141.91,54.35a8.17,8.17,0,0,1,7.35,3.93v-3.6h3.31V74.4h-3.31V70.73a8.26,8.26,0,0,1-7.38,4c-5.26,0-9.33-4.14-9.33-10.26S136.62,54.35,141.91,54.35Zm.65,2.85c-3.6,0-6.66,2.62-6.66,7.27s3.06,7.38,6.66,7.38,6.7-2.7,6.7-7.35S146.16,57.2,142.56,57.2Z"/><path class="cls-1" d="M161.39,74.4h-3.28V54.68h3.28v3.2c1.12-2.2,3.24-3.56,6.37-3.56V57.7h-.86c-3.13,0-5.51,1.4-5.51,6Z"/><path class="cls-1" d="M172.26,57.38h-2.55v-2.7h2.55v-5h3.28v5h5.15v2.7h-5.15V69c0,2,.72,2.63,2.73,2.63h2.42V74.4h-3c-3.49,0-5.47-1.44-5.47-5.4Z"/><path class="cls-1" d="M217.19,56.58h-3.93a8,8,0,0,0-7.63-4.6c-5.29,0-9.25,3.81-9.25,9.86s4,9.83,9.25,9.83c4.93,0,8.32-3.17,8.82-8.14h-10V60.87h13.49v2.52a12.16,12.16,0,0,1-12.31,11.23A12.35,12.35,0,0,1,193,61.84,12.38,12.38,0,0,1,205.63,49C210.92,49,215.32,51.76,217.19,56.58Z"/><path class="cls-1" d="M230.4,54.35a8.17,8.17,0,0,1,7.34,3.93v-3.6h3.32V74.4h-3.32V70.73a8.23,8.23,0,0,1-7.37,4c-5.26,0-9.33-4.14-9.33-10.26S225.11,54.35,230.4,54.35Zm.65,2.85c-3.6,0-6.66,2.62-6.66,7.27s3.06,7.38,6.66,7.38,6.69-2.7,6.69-7.35S234.65,57.2,231.05,57.2Z"/><path class="cls-1" d="M275.07,63.24c0-4-2.16-6.08-5.4-6.08s-5.57,2.12-5.57,6.37V74.4h-3.24V63.24c0-4-2.16-6.08-5.4-6.08s-5.58,2.12-5.58,6.37V74.4H246.6V54.68h3.28v2.84a7.11,7.11,0,0,1,6.22-3.2,7.43,7.43,0,0,1,7.24,4.39,7.29,7.29,0,0,1,7-4.39c4.5,0,8,2.8,8,8.46V74.4h-3.24Z"/><path class="cls-1" d="M292.21,74.73c-5.61,0-9.75-4-9.75-10.23s4-10.15,9.75-10.15a9,9,0,0,1,9.47,9.43,18.19,18.19,0,0,1-.11,2H285.81a6.2,6.2,0,0,0,6.4,6.2,5.44,5.44,0,0,0,5.55-3.64h3.52C300.28,71.92,297.11,74.73,292.21,74.73ZM285.84,63.1H298.3c0-3.85-2.85-6-6.23-6C288.87,57.12,286.2,59.25,285.84,63.1Z"/></svg>