<svg id="Layer_1" data-name="Layer 1" xmlns="http://www.w3.org/2000/svg" xmlns:xlink="http://www.w3.org/1999/xlink" viewBox="0 0 400 120"><defs><style>.cls-1{fill:url(#linear-gradient);}.cls-2{fill:#fff;}</style><linearGradient id="linear-gradient" x1="200" y1="106.85" x2="200" y2="-12.94" gradientUnits="userSpaceOnUse"><stop offset="0" stop-color="#f10"/><stop offset="0.22" stop-color="#ff3d98"/><stop offset="0.54" stop-color="#f80"/><stop offset="0.83" stop-color="#40ecff"/><stop offset="1" stop-color="#b9b0ff"/></linearGradient></defs><rect class="cls-1" width="400" height="120" rx="21.3"/><path class="cls-2" d="M104,63.42H93.9v11H87.41V47.73H93.9V58.18H104V47.73h6.5V74.4H104Z"/><path class="cls-2" d="M114.58,47.5a3.87,3.87,0,1,1,3.87,3.5A3.59,3.59,0,0,1,114.58,47.5Zm.6,5.7h6.5V74.4h-6.5Z"/><path class="cls-2" d="M134.45,52.9A7.34,7.34,0,0,1,141,56.2v-3h6.5V74.36c0,5.67-3.27,10.49-10.6,10.49-6.31,0-10.41-3.19-11-8.24h6.42c.42,1.59,2,2.62,4.26,2.62,2.47,0,4.4-1.29,4.4-4.87v-3a7.49,7.49,0,0,1-6.53,3.35c-5.21,0-9.35-4.26-9.35-10.95S129.24,52.9,134.45,52.9Zm1.9,5.66c-2.43,0-4.64,1.82-4.64,5.2S133.92,69,136.35,69,141,67.18,141,63.8,138.82,58.56,136.35,58.56Z"/><path class="cls-2" d="M152.2,46.29h6.49v9.76A7.85,7.85,0,0,1,165.23,53c4.82,0,8.05,3.35,8.05,9.05V74.4h-6.46V62.89c0-2.89-1.59-4.48-4.06-4.48s-4.07,1.59-4.07,4.48V74.4H152.2Z"/><path class="cls-2" d="M195.51,74.67c-5.73,0-10.22-2.85-10.41-8.25H192a3.05,3.05,0,0,0,3.3,3c1.9,0,3.12-.95,3.12-2.5,0-4.94-13.34-2.28-13.26-11.74,0-5.06,4.14-7.87,9.73-7.87,5.81,0,9.72,2.89,10,8h-7a2.88,2.88,0,0,0-3.08-2.77c-1.56,0-2.73.76-2.73,2.43,0,4.63,13.18,2.54,13.18,11.47C205.24,71,201.75,74.67,195.51,74.67Z"/><path class="cls-2" d="M218.58,52.9c5.32,0,9.08,2.92,10.18,8h-6.91a3.34,3.34,0,0,0-3.38-2.43c-2.32,0-3.92,1.82-3.92,5.35s1.6,5.36,3.92,5.36a3.3,3.3,0,0,0,3.38-2.43h6.91c-1.1,4.9-4.86,8-10.18,8-6.23,0-10.64-4.18-10.64-10.91S212.35,52.9,218.58,52.9Z"/><path class="cls-2" d="M241.87,74.71c-6.23,0-10.94-4.18-10.94-10.91s4.83-10.9,11-10.9,11,4.18,11,10.9S248.11,74.71,241.87,74.71Zm0-5.63c2.32,0,4.49-1.71,4.49-5.28s-2.13-5.28-4.41-5.28-4.41,1.67-4.41,5.28S239.52,69.08,241.87,69.08Z"/><path class="cls-2" d="M262.93,74.4h-6.5V53.2h6.5v3.54A7.89,7.89,0,0,1,269.58,53v6.88h-1.79c-3.08,0-4.86,1.07-4.86,4.71Z"/><path class="cls-2" d="M282.12,74.71c-6.24,0-10.72-4.18-10.72-10.91s4.41-10.9,10.72-10.9,10.56,4.1,10.56,10.56a15.63,15.63,0,0,1-.12,1.9h-14.7c.23,2.77,1.94,4.07,4,4.07a3.46,3.46,0,0,0,3.38-2.06h6.91C291.16,71.51,287.4,74.71,282.12,74.71Zm-4.22-13H286c0-2.32-1.82-3.65-4-3.65A4,4,0,0,0,277.9,61.75Z"/><path class="cls-2" d="M304.73,74.71c-5.67,0-9.47-3.16-9.77-7.26h6.42c.15,1.48,1.48,2.47,3.27,2.47s2.55-.76,2.55-1.71c0-3.42-11.56-.95-11.56-8.74,0-3.61,3.08-6.57,8.63-6.57s8.51,3,8.93,7.22h-6c-.19-1.45-1.3-2.4-3.12-2.4-1.52,0-2.36.61-2.36,1.64,0,3.38,11.48,1,11.59,8.89C313.31,71.93,310,74.71,304.73,74.71Z"/></svg>