<svg xmlns="http://www.w3.org/2000/svg" xmlns:xlink="http://www.w3.org/1999/xlink" viewBox="0 0 526 229.76"><defs><style>.cls-1{isolation:isolate;}.cls-2{fill:url(#linear-gradient);}.cls-3{opacity:0.3;mix-blend-mode:multiply;}.cls-4{fill:url(#linear-gradient-2);}.cls-5{fill:url(#linear-gradient-3);}.cls-6{fill:url(#linear-gradient-4);}.cls-7{fill:url(#linear-gradient-5);}.cls-8{fill:url(#linear-gradient-6);}.cls-9{fill:url(#linear-gradient-7);}.cls-10{fill:url(#linear-gradient-8);}.cls-11{fill:url(#linear-gradient-9);}.cls-12{fill:url(#linear-gradient-10);}.cls-13{fill:url(#linear-gradient-11);}.cls-14{fill:#fff;}</style><linearGradient id="linear-gradient" x1="263" y1="218.14" x2="263" y2="1.39" gradientUnits="userSpaceOnUse"><stop offset="0" stop-color="#f10"/><stop offset="0.22" stop-color="#ff3d98"/><stop offset="0.54" stop-color="#f80"/><stop offset="0.83" stop-color="#40ecff"/><stop offset="1" stop-color="#b9b0ff"/></linearGradient><linearGradient id="linear-gradient-2" x1="14.98" y1="171.17" x2="85.88" y2="171.17" gradientUnits="userSpaceOnUse"><stop offset="0" stop-color="#36005f"/><stop offset="1"/></linearGradient><linearGradient id="linear-gradient-3" x1="89.39" y1="171.17" x2="167.6" y2="171.17" xlink:href="#linear-gradient-2"/><linearGradient id="linear-gradient-4" x1="174.62" y1="171.17" x2="267" y2="171.17" xlink:href="#linear-gradient-2"/><linearGradient id="linear-gradient-5" x1="276.83" y1="171.17" x2="356.16" y2="171.17" xlink:href="#linear-gradient-2"/><linearGradient id="linear-gradient-6" x1="365.99" y1="171.17" x2="434.5" y2="171.17" xlink:href="#linear-gradient-2"/><linearGradient id="linear-gradient-7" x1="440.12" y1="171.17" x2="511.02" y2="171.17" xlink:href="#linear-gradient-2"/><linearGradient id="linear-gradient-8" x1="107.5" y1="64.59" x2="191.47" y2="64.59" xlink:href="#linear-gradient-2"/><linearGradient id="linear-gradient-9" x1="204.1" y1="64.59" x2="230.5" y2="64.59" xlink:href="#linear-gradient-2"/><linearGradient id="linear-gradient-10" x1="240.32" y1="64.59" x2="324.71" y2="64.59" xlink:href="#linear-gradient-2"/><linearGradient id="linear-gradient-11" x1="334.53" y1="64.59" x2="418.5" y2="64.59" xlink:href="#linear-gradient-2"/></defs><g class="cls-1"><g id="Layer_1" data-name="Layer 1"><path class="cls-2" d="M522.58,168.67a35.41,35.41,0,0,0-8.33-11.87,18.51,18.51,0,0,0,6.7-14.22V128.23a18.51,18.51,0,0,0-13.7-17.83,111.56,111.56,0,0,0-12.19-2.46,117.42,117.42,0,0,0-17.31-1.36c-13.68,0-24.58,2.43-33.16,7.39a18.39,18.39,0,0,0-11.76-5.89,18.23,18.23,0,0,0,.64-4.76V19.86A18.48,18.48,0,0,0,415,1.4H395.58a18.49,18.49,0,0,0-18.12,15h-1.89a18.49,18.49,0,0,0-18.12-15H338a18.35,18.35,0,0,0-12,4.48,18.54,18.54,0,0,0-4.77-2.15A108.77,108.77,0,0,0,291.57,0C272,0,256.25,5,244.79,14.94A18.48,18.48,0,0,0,227,1.4H207.58a18.36,18.36,0,0,0-9.8,2.85A18.3,18.3,0,0,0,188,1.4H168.55a18.49,18.49,0,0,0-18.12,15h-1.89a18.49,18.49,0,0,0-18.12-15H111A18.48,18.48,0,0,0,92.53,19.86v83.46a18.43,18.43,0,0,0,6.3,13.86,53.38,53.38,0,0,0-4.67,3.48,18.5,18.5,0,0,0-12-10.26,111.08,111.08,0,0,0-12.19-2.46,117.55,117.55,0,0,0-17.32-1.36c-15.75,0-27.82,3.21-36.89,9.82C8.54,121.62,0,131.47,0,148.8a44.34,44.34,0,0,0,3.71,18.74,33.84,33.84,0,0,0,6.41,9.29c-.32.2-.64.4-.95.62A18.48,18.48,0,0,0,1.26,192.6v14.29A18.38,18.38,0,0,0,12.8,224a75.31,75.31,0,0,0,14.53,4,112.94,112.94,0,0,0,20.08,1.71c16.13,0,28.48-3.4,37.74-10.39a42,42,0,0,0,5.14-4.58h3c11.34,9.93,27,15,46.51,15a101,101,0,0,0,29.71-4.34,18.44,18.44,0,0,0,10.18-7.73c10.31,8,24.11,12.07,41.12,12.07,17.69,0,31.9-4.41,42.34-13.11a18.47,18.47,0,0,0,17.16,11.71h19.44a18.44,18.44,0,0,0,15-7.74,18.45,18.45,0,0,0,15,7.74h19.92a18.33,18.33,0,0,0,9.9-2.88,18.28,18.28,0,0,0,9.86,2.88H431a18.26,18.26,0,0,0,10.26-3.13,80.14,80.14,0,0,0,11.19,2.82,112.94,112.94,0,0,0,20.08,1.71c16.13,0,28.48-3.4,37.74-10.39,10.28-7.77,15.71-18.82,15.71-32A48.3,48.3,0,0,0,522.58,168.67Z"/><g class="cls-3"><path class="cls-4" d="M30,216.31a59.43,59.43,0,0,1-11.6-3.2,3.46,3.46,0,0,1-2.16-3.22v-14.3a3.47,3.47,0,0,1,4.68-3.26,80,80,0,0,0,9.5,2.85A62.33,62.33,0,0,0,44.74,197q7.59,0,10.88-1.33c2.2-.89,3.3-2.64,3.3-5.27a5.64,5.64,0,0,0-1.61-4.14,13.67,13.67,0,0,0-4.71-2.81c-2-.78-5.28-1.88-9.73-3.27l-.19-.05a30,30,0,0,1-3.27-1,58.28,58.28,0,0,1-14.53-6.46,20.81,20.81,0,0,1-7.59-8.49A29.51,29.51,0,0,1,15,151.79q0-13.33,9.54-20.29t28.08-7a101.08,101.08,0,0,1,15.1,1.2,96.32,96.32,0,0,1,10.52,2.11,3.49,3.49,0,0,1,2.61,3.37v14.34a3.47,3.47,0,0,1-4.54,3.31,62.31,62.31,0,0,0-19.47-3.27,41.31,41.31,0,0,0-11.17,1.13,4.72,4.72,0,0,0-3.72,4.91,4.85,4.85,0,0,0,1.55,3.79,13.19,13.19,0,0,0,4.7,2.46q3.16,1,10.74,3,10.81,2.94,16.64,7.09a22.46,22.46,0,0,1,8.07,9.48,33.19,33.19,0,0,1,2.25,12.91q0,12.65-9.76,20t-28.71,7.37A98,98,0,0,1,30,216.31Z"/><path class="cls-5" d="M102.31,205.78q-12.93-12-12.92-34.19,0-22.89,12.71-35t37.56-12.08a76.23,76.23,0,0,1,25.23,3.94,3.49,3.49,0,0,1,2.42,3.32v15.44a3.47,3.47,0,0,1-4.59,3.29A63.79,63.79,0,0,0,141.48,147q-12.91,0-19,5.9t-6.11,18.67q0,12.36,6.39,18t19,5.69A65.16,65.16,0,0,0,163,191.9a3.47,3.47,0,0,1,4.58,3.29v15.57a3.5,3.5,0,0,1-2.49,3.34,85.46,85.46,0,0,1-25.31,3.68Q115.21,217.78,102.31,205.78Z"/><path class="cls-6" d="M186.27,206.62q-11.65-11.16-11.65-35.17,0-24.7,11.58-35.8t34.61-11.1q23,0,34.61,11.17T267,171.45q0,23.87-11.65,35.1t-34.54,11.23Q197.92,217.78,186.27,206.62Zm49.21-17q4.56-5.69,4.56-18.18,0-13.2-4.49-18.81T220.81,147q-10.26,0-14.74,5.62t-4.5,18.81q0,12.5,4.57,18.18t14.67,5.69Q230.92,195.32,235.48,189.63Z"/><path class="cls-7" d="M276.83,129.44a3.48,3.48,0,0,1,3.48-3.48h43.55q16,0,24.15,8.7t8.15,23.45a28.77,28.77,0,0,1-4.49,15.94,29.56,29.56,0,0,1-8.61,8.68,3.55,3.55,0,0,0-1,5l0,0a32.19,32.19,0,0,1,2.52,4.91l8.26,18.85a3.48,3.48,0,0,1-3.19,4.88H329.79a3.5,3.5,0,0,1-3.19-2.08L318,194.62a7.93,7.93,0,0,0-2.74-3.58,8.27,8.27,0,0,0-4.56-1.06h-4a3.48,3.48,0,0,0-3.48,3.48V212.9a3.48,3.48,0,0,1-3.48,3.48H280.31a3.48,3.48,0,0,1-3.48-3.48Zm40.3,40.32q5.75,0,8.91-3c2.11-2,3.16-4.89,3.16-8.64q0-11.93-11.23-11.93H306.71a3.47,3.47,0,0,0-3.48,3.48v16.62a3.47,3.47,0,0,0,3.48,3.48Z"/><path class="cls-8" d="M369.47,126H431a3.48,3.48,0,0,1,3.48,3.48V142.7a3.48,3.48,0,0,1-3.48,3.48H395.86a3.48,3.48,0,0,0-3.48,3.48v7.78a3.48,3.48,0,0,0,3.48,3.48h30a3.48,3.48,0,0,1,3.48,3.48v13.54a3.48,3.48,0,0,1-3.48,3.48h-30a3.48,3.48,0,0,0-3.48,3.48v7.78a3.48,3.48,0,0,0,3.48,3.48H431a3.48,3.48,0,0,1,3.48,3.48V212.9a3.48,3.48,0,0,1-3.48,3.48H369.47A3.48,3.48,0,0,1,366,212.9V129.44A3.48,3.48,0,0,1,369.47,126Z"/><path class="cls-9" d="M455.14,216.31a59.43,59.43,0,0,1-11.6-3.2,3.47,3.47,0,0,1-2.16-3.22v-14.3a3.47,3.47,0,0,1,4.68-3.26,80.6,80.6,0,0,0,9.5,2.85A62.33,62.33,0,0,0,469.88,197c5.06,0,8.68-.44,10.89-1.33s3.3-2.64,3.3-5.27a5.65,5.65,0,0,0-1.62-4.14,13.72,13.72,0,0,0-4.7-2.81c-2.05-.78-5.29-1.88-9.74-3.27l-.19-.05a30,30,0,0,1-3.27-1A58.45,58.45,0,0,1,450,172.71a20.81,20.81,0,0,1-7.59-8.49,29.51,29.51,0,0,1-2.31-12.43q0-13.33,9.55-20.29t28.08-7a101.06,101.06,0,0,1,15.09,1.2,97,97,0,0,1,10.53,2.11,3.49,3.49,0,0,1,2.6,3.37v14.34a3.47,3.47,0,0,1-4.54,3.31A62.31,62.31,0,0,0,482,145.61a41.23,41.23,0,0,0-11.16,1.13,4.72,4.72,0,0,0-3.72,4.91,4.84,4.84,0,0,0,1.54,3.79,13.19,13.19,0,0,0,4.7,2.46q3.17,1,10.75,3,10.8,2.94,16.63,7.09a22.49,22.49,0,0,1,8.08,9.48A33.38,33.38,0,0,1,511,190.4q0,12.65-9.76,20t-28.71,7.37A98,98,0,0,1,455.14,216.31Z"/><path class="cls-10" d="M111,19.38h19.44a3.48,3.48,0,0,1,3.48,3.48V49.59a3.48,3.48,0,0,0,3.48,3.48h24.21a3.48,3.48,0,0,0,3.48-3.48V22.86a3.48,3.48,0,0,1,3.48-3.48H188a3.48,3.48,0,0,1,3.48,3.48v83.46A3.48,3.48,0,0,1,188,109.8H168.55a3.48,3.48,0,0,1-3.48-3.48V79.58a3.48,3.48,0,0,0-3.48-3.48H137.38a3.48,3.48,0,0,0-3.48,3.48v26.74a3.48,3.48,0,0,1-3.48,3.48H111a3.48,3.48,0,0,1-3.48-3.48V22.86A3.48,3.48,0,0,1,111,19.38Z"/><path class="cls-11" d="M207.58,19.38H227a3.48,3.48,0,0,1,3.48,3.48v83.46A3.48,3.48,0,0,1,227,109.8H207.58a3.48,3.48,0,0,1-3.48-3.48V22.86A3.48,3.48,0,0,1,207.58,19.38Z"/><path class="cls-12" d="M253,99.41q-12.71-11.8-12.71-34,0-22.89,13.13-35.17T291.57,18a93.76,93.76,0,0,1,25.56,3.16,3.49,3.49,0,0,1,2.52,3.35V39.74a3.48,3.48,0,0,1-4.43,3.34,81.72,81.72,0,0,0-21.82-2.64q-13.2,0-19.66,6t-6.46,19q0,12.07,5.55,17.69t16.92,5.62A46.37,46.37,0,0,0,300,87.62a3.49,3.49,0,0,0,2.7-3.41v-7a3.47,3.47,0,0,0-3.47-3.48h-11a3.48,3.48,0,0,1-3.48-3.48V60.91a3.48,3.48,0,0,1,3.48-3.48h33.06a3.48,3.48,0,0,1,3.48,3.48v40a3.51,3.51,0,0,1-1.78,3,55.83,55.83,0,0,1-12.75,4.9,80.28,80.28,0,0,1-20.43,2.32Q265.74,111.2,253,99.41Z"/><path class="cls-13" d="M338,19.38h19.44a3.48,3.48,0,0,1,3.48,3.48V49.59a3.48,3.48,0,0,0,3.48,3.48h24.21a3.48,3.48,0,0,0,3.48-3.48V22.86a3.48,3.48,0,0,1,3.48-3.48H415a3.48,3.48,0,0,1,3.48,3.48v83.46A3.48,3.48,0,0,1,415,109.8H395.58a3.48,3.48,0,0,1-3.48-3.48V79.58a3.48,3.48,0,0,0-3.48-3.48H364.41a3.48,3.48,0,0,0-3.48,3.48v26.74a3.48,3.48,0,0,1-3.48,3.48H338a3.48,3.48,0,0,1-3.48-3.48V22.86A3.48,3.48,0,0,1,338,19.38Z"/></g><path class="cls-14" d="M30,209.32a59.43,59.43,0,0,1-11.6-3.2,3.46,3.46,0,0,1-2.16-3.22V188.6a3.47,3.47,0,0,1,4.68-3.26,80,80,0,0,0,9.5,2.85A62.33,62.33,0,0,0,44.74,190q7.59,0,10.88-1.33t3.3-5.26a5.65,5.65,0,0,0-1.61-4.15,13.67,13.67,0,0,0-4.71-2.81c-2-.78-5.28-1.88-9.73-3.27l-.19-.05a30,30,0,0,1-3.27-1,58.28,58.28,0,0,1-14.53-6.46,20.75,20.75,0,0,1-7.59-8.49A29.51,29.51,0,0,1,15,144.8q0-13.34,9.54-20.28t28.08-7a101,101,0,0,1,15.1,1.19,96.32,96.32,0,0,1,10.52,2.11,3.49,3.49,0,0,1,2.61,3.37v14.34a3.47,3.47,0,0,1-4.54,3.31,62.58,62.58,0,0,0-19.47-3.26,41.39,41.39,0,0,0-11.17,1.12,4.72,4.72,0,0,0-3.72,4.91,4.85,4.85,0,0,0,1.55,3.79,13.19,13.19,0,0,0,4.7,2.46q3.16,1.05,10.74,3,10.81,3,16.64,7.09a22.46,22.46,0,0,1,8.07,9.48,33.21,33.21,0,0,1,2.25,12.92q0,12.63-9.76,20t-28.71,7.37A98,98,0,0,1,30,209.32Z"/><path class="cls-14" d="M102.31,198.79q-12.93-12-12.92-34.19,0-22.89,12.71-35t37.56-12.07a75.92,75.92,0,0,1,25.23,3.93,3.49,3.49,0,0,1,2.42,3.32v15.44a3.46,3.46,0,0,1-4.59,3.29A63.79,63.79,0,0,0,141.48,140q-12.91,0-19,5.9t-6.11,18.67q0,12.36,6.39,18t19,5.69A65.16,65.16,0,0,0,163,184.91a3.47,3.47,0,0,1,4.58,3.3v15.56a3.5,3.5,0,0,1-2.49,3.34,85.46,85.46,0,0,1-25.31,3.68Q115.21,210.79,102.31,198.79Z"/><path class="cls-14" d="M186.27,199.63q-11.65-11.16-11.65-35.17,0-24.71,11.58-35.8t34.61-11.09q23,0,34.61,11.16T267,164.46q0,23.86-11.65,35.1t-34.54,11.23Q197.92,210.79,186.27,199.63Zm49.21-17Q240,177,240,164.46q0-13.2-4.49-18.81T220.81,140q-10.26,0-14.74,5.62t-4.5,18.81q0,12.49,4.57,18.18t14.67,5.69Q230.92,188.33,235.48,182.64Z"/><path class="cls-14" d="M276.83,122.45a3.48,3.48,0,0,1,3.48-3.48h43.55q16,0,24.15,8.7t8.15,23.45a28.77,28.77,0,0,1-4.49,15.94,29.56,29.56,0,0,1-8.61,8.68,3.55,3.55,0,0,0-1,5l0,0a32.19,32.19,0,0,1,2.52,4.91l8.26,18.85a3.48,3.48,0,0,1-3.19,4.88H329.79a3.5,3.5,0,0,1-3.19-2.08L318,187.63a7.93,7.93,0,0,0-2.74-3.58,8.27,8.27,0,0,0-4.56-1.06h-4a3.48,3.48,0,0,0-3.48,3.48v19.44a3.48,3.48,0,0,1-3.48,3.48H280.31a3.48,3.48,0,0,1-3.48-3.48Zm40.3,40.33q5.75,0,8.91-3c2.11-2,3.16-4.89,3.16-8.64q0-11.93-11.23-11.93H306.71a3.48,3.48,0,0,0-3.48,3.48V159.3a3.48,3.48,0,0,0,3.48,3.48Z"/><path class="cls-14" d="M369.47,119H431a3.48,3.48,0,0,1,3.48,3.48v13.26a3.48,3.48,0,0,1-3.48,3.48H395.86a3.48,3.48,0,0,0-3.48,3.48v7.78a3.48,3.48,0,0,0,3.48,3.48h30a3.48,3.48,0,0,1,3.48,3.48V171a3.48,3.48,0,0,1-3.48,3.48h-30a3.48,3.48,0,0,0-3.48,3.48v7.78a3.48,3.48,0,0,0,3.48,3.48H431a3.48,3.48,0,0,1,3.48,3.48v13.26a3.48,3.48,0,0,1-3.48,3.48H369.47a3.48,3.48,0,0,1-3.48-3.48V122.45A3.48,3.48,0,0,1,369.47,119Z"/><path class="cls-14" d="M455.14,209.32a59.43,59.43,0,0,1-11.6-3.2,3.47,3.47,0,0,1-2.16-3.22V188.6a3.47,3.47,0,0,1,4.68-3.26,80.6,80.6,0,0,0,9.5,2.85A62.33,62.33,0,0,0,469.88,190c5.06,0,8.68-.44,10.89-1.33a5.15,5.15,0,0,0,3.3-5.26,5.65,5.65,0,0,0-1.62-4.15,13.72,13.72,0,0,0-4.7-2.81c-2.05-.78-5.29-1.88-9.74-3.27l-.19-.05a30,30,0,0,1-3.27-1A58.45,58.45,0,0,1,450,165.72a20.75,20.75,0,0,1-7.59-8.49,29.51,29.51,0,0,1-2.31-12.43q0-13.34,9.55-20.28t28.08-7a101,101,0,0,1,15.09,1.19,97,97,0,0,1,10.53,2.11,3.49,3.49,0,0,1,2.6,3.37v14.34a3.47,3.47,0,0,1-4.54,3.31A62.58,62.58,0,0,0,482,138.63a41.31,41.31,0,0,0-11.16,1.12,4.72,4.72,0,0,0-3.72,4.91,4.84,4.84,0,0,0,1.54,3.79,13.19,13.19,0,0,0,4.7,2.46q3.17,1.05,10.75,3,10.8,3,16.63,7.09a22.49,22.49,0,0,1,8.08,9.48A33.4,33.4,0,0,1,511,183.42q0,12.63-9.76,20t-28.71,7.37A98,98,0,0,1,455.14,209.32Z"/><path class="cls-14" d="M111,12.39h19.44a3.48,3.48,0,0,1,3.48,3.48V42.6a3.48,3.48,0,0,0,3.48,3.48h24.21a3.48,3.48,0,0,0,3.48-3.48V15.87a3.48,3.48,0,0,1,3.48-3.48H188a3.48,3.48,0,0,1,3.48,3.48V99.33a3.48,3.48,0,0,1-3.48,3.48H168.55a3.48,3.48,0,0,1-3.48-3.48V72.59a3.48,3.48,0,0,0-3.48-3.48H137.38a3.48,3.48,0,0,0-3.48,3.48V99.33a3.48,3.48,0,0,1-3.48,3.48H111a3.48,3.48,0,0,1-3.48-3.48V15.87A3.48,3.48,0,0,1,111,12.39Z"/><path class="cls-14" d="M207.58,12.39H227a3.48,3.48,0,0,1,3.48,3.48V99.33a3.48,3.48,0,0,1-3.48,3.48H207.58a3.48,3.48,0,0,1-3.48-3.48V15.87A3.48,3.48,0,0,1,207.58,12.39Z"/><path class="cls-14" d="M253,92.42q-12.71-11.79-12.71-34,0-22.89,13.13-35.17T291.57,11a93.76,93.76,0,0,1,25.56,3.16,3.49,3.49,0,0,1,2.52,3.35V32.75a3.48,3.48,0,0,1-4.43,3.34,81.72,81.72,0,0,0-21.82-2.64q-13.2,0-19.66,6t-6.46,19q0,12.07,5.55,17.69t16.92,5.62A46.37,46.37,0,0,0,300,80.63a3.49,3.49,0,0,0,2.7-3.4v-7a3.47,3.47,0,0,0-3.47-3.48h-11a3.48,3.48,0,0,1-3.48-3.48V53.92a3.48,3.48,0,0,1,3.48-3.48h33.06a3.48,3.48,0,0,1,3.48,3.48v40a3.51,3.51,0,0,1-1.78,3,55.82,55.82,0,0,1-12.75,4.91,80.77,80.77,0,0,1-20.43,2.31Q265.74,104.21,253,92.42Z"/><path class="cls-14" d="M338,12.39h19.44a3.48,3.48,0,0,1,3.48,3.48V42.6a3.48,3.48,0,0,0,3.48,3.48h24.21a3.48,3.48,0,0,0,3.48-3.48V15.87a3.48,3.48,0,0,1,3.48-3.48H415a3.48,3.48,0,0,1,3.48,3.48V99.33a3.48,3.48,0,0,1-3.48,3.48H395.58a3.48,3.48,0,0,1-3.48-3.48V72.59a3.48,3.48,0,0,0-3.48-3.48H364.41a3.48,3.48,0,0,0-3.48,3.48V99.33a3.48,3.48,0,0,1-3.48,3.48H338a3.48,3.48,0,0,1-3.48-3.48V15.87A3.48,3.48,0,0,1,338,12.39Z"/></g></g></svg>