<svg viewBox="0 0 817.1 314.59" xmlns="http://www.w3.org/2000/svg" xmlns:xlink="http://www.w3.org/1999/xlink"><linearGradient id="a" gradientUnits="userSpaceOnUse" x1="420.29" x2="399.93" y1="461.34" y2="48.09"><stop offset="0" stop-color="#d069da"/><stop offset=".55" stop-color="#ffec9e"/><stop offset="1" stop-color="#f0f5f8"/></linearGradient><path d="m813.94 245c2.7 4.21 4 9.38 2.54 14.09-1.67 5.28-6.57 9-11.83 10.77s-10.9 1.79-16.44 1.81c-17.81.08-35.76.15-53.26-3.2-34.29-6.56-70.93 6.84-103.76 16.5-47.48 14-95.55 30.05-145.63 29.63-80.36-.67-152.2-42.55-229.8-57.43-74.65-14.33-157.4-2.21-227.95-33.83-12.57-5.66-25.92-14.59-27.54-28.28-6.27-52.65 97.87-44.27 126.35-46.51 5.56-.44 11.37-1 16.07-4s7.67-8.19 10.26-13.2c17.18-33.21 28.62-70.16 53.22-98.35s69-44.57 99.77-23.34c11.28 7.78 20.61 20.24 34.23 21.63 8.09.83 15.93-2.55 23.59-5.25 47.87-16.84 104.13-7.28 143.75 24.43 4.07 3.26 8 6.78 12.87 8.78s10.17 2.33 15.4 2.74c25.37 2 51.58 6.95 72 22.18s33.12 43.13 24.09 66.92c-2.65 7-6.88 15.3-2.31 21.22 2 2.53 5.1 3.81 8.13 4.83 22.25 7.47 46.35 6.77 69.38 11.34s47.13 16.78 54.7 39c-.32-.94 22.26.2 24.09.38 11 1.09 19.35 6.22 26.55 14.95a22.61 22.61 0 0 1 1.53 2.19z" fill="url(#a)"/></svg>