<svg id="Layer_1" data-name="Layer 1" xmlns="http://www.w3.org/2000/svg" xmlns:xlink="http://www.w3.org/1999/xlink" viewBox="0 0 679.4 113.37"><defs><style>.cls-1{fill:url(#linear-gradient);}</style><linearGradient id="linear-gradient" x1="338.48" y1="164.85" x2="340.52" y2="12.17" gradientUnits="userSpaceOnUse"><stop offset="0" stop-color="#d069da"/><stop offset="0.55" stop-color="#ffec9e"/><stop offset="1" stop-color="#f0f5f8"/></linearGradient></defs><path class="cls-1" d="M325.8,11.42C284.46-10.33,229.08.67,191.52,30.22c-8,6.27-15.45,13.31-24.43,18-8.62,4.52-18.29,6.7-28,7.93-33.45,4.25-67.33-1.33-100.5,6C26.73,64.82-25.46,85,15.33,92.26a842.82,842.82,0,0,0,218.83,10c28-2.38,55.92-6.16,84-5.16,32.65,1.16,64.7,8.76,97.14,12.65,46.26,5.54,93.05,3.49,139.59,1.43,35.16-1.56,71.68-3.48,102.68-20.15,9.58-5.16,19.13-12.66,21.3-23.32,6.52-32-46.3-15.72-60.93-14.91-73.57,4-143.15-27.15-217.56-12.41-8.58,1.7-17.36,3.92-26,2.36-14-2.54-24.14-14.23-35.4-22.92A90.63,90.63,0,0,0,325.8,11.42Z"/></svg>