<svg id="Layer_1" data-name="Layer 1" xmlns="http://www.w3.org/2000/svg" xmlns:xlink="http://www.w3.org/1999/xlink" viewBox="0 0 812.08 318.02"><defs><style>.cls-1{fill:url(#linear-gradient);}</style><linearGradient id="linear-gradient" x1="401.66" y1="330.75" x2="417.32" y2="-13.71" gradientUnits="userSpaceOnUse"><stop offset="0" stop-color="#d069da"/><stop offset="0.55" stop-color="#ffec9e"/><stop offset="1" stop-color="#f0f5f8"/></linearGradient></defs><path class="cls-1" d="M189.38,279.11c23,9.21,46.49,17.18,70.94,20.76,30.86,4.52,63.69,1.55,90.82-13.84,36.44,28.06,85.63,31.56,131.61,32,23.91.21,50.06-.91,68.08-16.63,2.48-2.17,4.88-4.65,8-5.58,3.39-1,7-.05,10.44.86a297.14,297.14,0,0,0,50.59,8.75c16,1.36,32.34-.34,48,2,32.81,4.91,69.9,1.56,102.07-6.2,11.92-2.88,24.18-7,32.5-16,15.51-16.75,11.08-45.51-4.84-61.87S757.78,201,735,200.1c-5.23-.2-10.58-.18-15.55-1.84-6.85-2.29-12.24-7.49-17.67-12.26C659.6,149,601,131.59,545.44,139.57c-.21-22.76-.46-45.79-6.23-67.81s-17.76-43.25-36.9-55.58C487.9,6.9,470.79,3.53,453.89,2.89c-16.36-.62-32.15-1.45-48.46-2.14C366.9-.9,327.51-.7,290.28,10.59c-43.29,13.13-83.78,44.16-96,87.7A67.74,67.74,0,0,0,119.3,156c-.58,4-.92,8.42-3.61,11.47s-7.13,4-11.21,4.51c-16.17,2.16-32.61,2-48.73,4.57-20.26,3.2-76.15,18.85-48,48.45,7.91,8.3,19.65,11.57,30.9,13.77a273.34,273.34,0,0,0,68.81,4.6c6-.36,12.19-.87,17.73,1.39,4.41,1.81,7.94,5.2,11.66,8.18,10.24,8.21,22.41,13.57,34.49,18.69Q180.33,275.46,189.38,279.11Z"/></svg>