<svg id="Layer_1" data-name="Layer 1" xmlns="http://www.w3.org/2000/svg" xmlns:xlink="http://www.w3.org/1999/xlink" viewBox="0 0 809.49 317.01"><defs><style>.cls-1{fill:url(#linear-gradient);}</style><linearGradient id="linear-gradient" x1="376.56" y1="447.59" x2="409.13" y2="201.27" gradientUnits="userSpaceOnUse"><stop offset="0" stop-color="#d069da"/><stop offset="0.55" stop-color="#ffec9e"/><stop offset="1" stop-color="#f0f5f8"/></linearGradient></defs><path class="cls-1" d="M188.77,278.22c22.92,9.19,46.35,17.12,70.72,20.69,30.76,4.51,63.49,1.55,90.54-13.79,36.31,28,85.35,31.46,131.18,31.87,23.84.21,49.9-.91,67.86-16.58,2.47-2.16,4.87-4.63,8-5.57,3.38-1,7,0,10.4.86a296.38,296.38,0,0,0,50.44,8.73c15.91,1.35,32.23-.34,47.84,2,32.71,4.89,69.68,1.55,101.75-6.18,11.88-2.87,24.1-7,32.4-16,15.45-16.7,11-45.36-4.83-61.67s-39.71-22.27-62.45-23.13c-5.22-.19-10.55-.18-15.5-1.83-6.83-2.28-12.2-7.47-17.61-12.22-42-36.87-100.49-54.24-155.82-46.29-.21-22.68-.46-45.64-6.21-67.58s-17.7-43.12-36.78-55.41C486.35,6.88,469.29,3.52,452.44,2.88c-16.3-.61-32.05-1.44-48.3-2.14C365.73-.89,326.47-.7,289.35,10.56c-43.14,13.09-83.51,44-95.72,87.42a67.52,67.52,0,0,0-74.71,57.54c-.58,4-.91,8.39-3.6,11.44s-7.1,3.95-11.17,4.49c-16.13,2.16-32.51,2-48.58,4.56-20.19,3.18-75.9,18.79-47.81,48.29,7.88,8.28,19.58,11.54,30.8,13.73a272.5,272.5,0,0,0,68.59,4.59c5.95-.36,12.15-.88,17.67,1.38,4.4,1.8,7.92,5.19,11.62,8.16,10.21,8.18,22.35,13.52,34.38,18.63C176.78,273.31,182.76,275.81,188.77,278.22Z"/></svg>