<svg id="Layer_1" data-name="Layer 1" xmlns="http://www.w3.org/2000/svg" xmlns:xlink="http://www.w3.org/1999/xlink" viewBox="0 0 1080 1920"><defs><style>.cls-1{fill:none;}.cls-2{clip-path:url(#clip-path);}.cls-3{fill:url(#linear-gradient);}.cls-4{fill:url(#linear-gradient-2);}.cls-5{fill:url(#linear-gradient-3);}.cls-6{fill:url(#linear-gradient-4);}.cls-7{fill:url(#linear-gradient-5);}.cls-8{fill:url(#linear-gradient-6);}.cls-9{fill:url(#linear-gradient-7);}.cls-10{fill:url(#linear-gradient-8);}.cls-11{fill:url(#linear-gradient-9);}.cls-12{fill:url(#linear-gradient-10);}.cls-13{fill:url(#linear-gradient-11);}.cls-14{fill:url(#linear-gradient-12);}.cls-15{fill:url(#linear-gradient-13);}.cls-16{fill:url(#linear-gradient-14);}.cls-17{fill:url(#linear-gradient-15);}.cls-18{fill:url(#linear-gradient-16);}.cls-19{fill:url(#linear-gradient-17);}.cls-20{fill:url(#linear-gradient-18);}.cls-21{fill:url(#linear-gradient-19);}.cls-22{fill:url(#linear-gradient-20);}.cls-23{fill:url(#linear-gradient-21);}.cls-24{fill:url(#linear-gradient-22);}.cls-25{fill:url(#linear-gradient-23);}.cls-26{fill:url(#linear-gradient-24);}.cls-27{fill:url(#linear-gradient-25);}.cls-28{fill:url(#linear-gradient-26);}.cls-29{fill:url(#linear-gradient-27);}.cls-30{fill:url(#linear-gradient-28);}.cls-31{fill:url(#linear-gradient-29);}.cls-32{fill:url(#linear-gradient-30);}.cls-33{fill:url(#linear-gradient-31);}.cls-34{fill:url(#linear-gradient-32);}.cls-35{fill:url(#linear-gradient-33);}.cls-36{fill:url(#linear-gradient-34);}.cls-37{fill:url(#linear-gradient-35);}.cls-38{fill:url(#linear-gradient-36);}.cls-39{fill:url(#linear-gradient-37);}.cls-40{fill:url(#linear-gradient-38);}.cls-41{fill:url(#linear-gradient-39);}.cls-42{fill:url(#linear-gradient-40);}.cls-43{fill:url(#linear-gradient-41);}.cls-44{fill:url(#linear-gradient-42);}.cls-45{fill:url(#linear-gradient-43);}.cls-46{fill:url(#linear-gradient-44);}.cls-47{fill:url(#linear-gradient-45);}.cls-48{fill:url(#linear-gradient-46);}.cls-49{fill:url(#linear-gradient-47);}.cls-50{fill:url(#linear-gradient-48);}.cls-51{fill:url(#linear-gradient-49);}.cls-52{fill:url(#linear-gradient-50);}.cls-53{fill:url(#linear-gradient-51);}.cls-54{fill:url(#linear-gradient-52);}.cls-55{fill:url(#linear-gradient-53);}.cls-56{fill:url(#linear-gradient-54);}.cls-57{fill:url(#linear-gradient-55);}.cls-58{fill:url(#linear-gradient-56);}.cls-59{fill:url(#linear-gradient-57);}.cls-60{fill:url(#linear-gradient-58);}.cls-61{fill:url(#linear-gradient-59);}.cls-62{fill:url(#linear-gradient-60);}.cls-63{fill:url(#linear-gradient-61);}.cls-64{fill:url(#linear-gradient-62);}.cls-65{fill:url(#linear-gradient-63);}.cls-66{fill:url(#linear-gradient-64);}.cls-67{fill:url(#linear-gradient-65);}.cls-68{fill:url(#linear-gradient-66);}.cls-69{fill:url(#linear-gradient-67);}.cls-70{fill:url(#linear-gradient-68);}.cls-71{fill:url(#linear-gradient-69);}.cls-72{fill:url(#linear-gradient-70);}.cls-73{fill:url(#linear-gradient-71);}.cls-74{fill:url(#linear-gradient-72);}.cls-75{fill:url(#linear-gradient-73);}.cls-76{fill:url(#linear-gradient-74);}.cls-77{fill:url(#linear-gradient-75);}.cls-78{fill:url(#linear-gradient-76);}</style><clipPath id="clip-path"><rect class="cls-1" width="1080" height="1920"/></clipPath><linearGradient id="linear-gradient" x1="-9658" y1="-14389.82" x2="-9658" y2="-16240.11" gradientTransform="translate(10198 16264)" gradientUnits="userSpaceOnUse"><stop offset="0" stop-color="#d069da"/><stop offset="0.55" stop-color="#ffec9e"/><stop offset="1" stop-color="#f0f5f8"/></linearGradient><linearGradient id="linear-gradient-2" x1="224.54" y1="973.33" x2="224.54" y2="-111.79" gradientUnits="userSpaceOnUse"><stop offset="0" stop-color="#fff"/><stop offset="1" stop-color="#fff" stop-opacity="0"/></linearGradient><linearGradient id="linear-gradient-3" x1="312.42" y1="973.33" x2="312.42" y2="-111.79" xlink:href="#linear-gradient-2"/><linearGradient id="linear-gradient-4" x1="308.22" y1="973.33" x2="308.22" y2="-111.79" xlink:href="#linear-gradient-2"/><linearGradient id="linear-gradient-5" x1="205.63" y1="973.33" x2="205.63" y2="-111.79" xlink:href="#linear-gradient-2"/><linearGradient id="linear-gradient-6" x1="144.06" y1="973.33" x2="144.06" y2="-111.79" xlink:href="#linear-gradient-2"/><linearGradient id="linear-gradient-7" x1="39.83" y1="973.33" x2="39.83" y2="-111.79" xlink:href="#linear-gradient-2"/><linearGradient id="linear-gradient-8" x1="180.18" y1="973.33" x2="180.18" y2="-111.79" xlink:href="#linear-gradient-2"/><linearGradient id="linear-gradient-9" x1="99.71" y1="973.33" x2="99.71" y2="-111.79" xlink:href="#linear-gradient-2"/><linearGradient id="linear-gradient-10" x1="62.69" y1="973.33" x2="62.69" y2="-111.79" xlink:href="#linear-gradient-2"/><linearGradient id="linear-gradient-11" x1="126.03" y1="973.33" x2="126.03" y2="-111.79" xlink:href="#linear-gradient-2"/><linearGradient id="linear-gradient-12" x1="215.54" y1="973.33" x2="215.54" y2="-111.79" xlink:href="#linear-gradient-2"/><linearGradient id="linear-gradient-13" x1="296.02" y1="973.33" x2="296.02" y2="-111.79" xlink:href="#linear-gradient-2"/><linearGradient id="linear-gradient-14" x1="142.37" y1="973.33" x2="142.37" y2="-111.79" xlink:href="#linear-gradient-2"/><linearGradient id="linear-gradient-15" x1="110.44" y1="973.33" x2="110.44" y2="-111.79" xlink:href="#linear-gradient-2"/><linearGradient id="linear-gradient-16" x1="2.02" y1="973.33" x2="2.02" y2="-111.79" xlink:href="#linear-gradient-2"/><linearGradient id="linear-gradient-17" x1="79.11" y1="973.33" x2="79.11" y2="-111.79" xlink:href="#linear-gradient-2"/><linearGradient id="linear-gradient-18" x1="143.65" y1="973.33" x2="143.65" y2="-111.79" xlink:href="#linear-gradient-2"/><linearGradient id="linear-gradient-19" x1="6.87" y1="973.33" x2="6.87" y2="-111.79" xlink:href="#linear-gradient-2"/><linearGradient id="linear-gradient-20" x1="112.67" y1="973.33" x2="112.67" y2="-111.79" xlink:href="#linear-gradient-2"/><linearGradient id="linear-gradient-21" x1="473.41" y1="973.33" x2="473.41" y2="-111.79" xlink:href="#linear-gradient-2"/><linearGradient id="linear-gradient-22" x1="386.83" y1="973.33" x2="386.83" y2="-111.79" xlink:href="#linear-gradient-2"/><linearGradient id="linear-gradient-23" x1="380.51" y1="973.33" x2="380.51" y2="-111.79" xlink:href="#linear-gradient-2"/><linearGradient id="linear-gradient-24" x1="328.81" y1="973.33" x2="328.81" y2="-111.79" xlink:href="#linear-gradient-2"/><linearGradient id="linear-gradient-25" x1="443.77" y1="973.33" x2="443.77" y2="-111.79" xlink:href="#linear-gradient-2"/><linearGradient id="linear-gradient-26" x1="320.07" y1="973.33" x2="320.07" y2="-111.79" xlink:href="#linear-gradient-2"/><linearGradient id="linear-gradient-27" x1="709.69" y1="973.33" x2="709.69" y2="-111.79" xlink:href="#linear-gradient-2"/><linearGradient id="linear-gradient-28" x1="678.9" y1="973.33" x2="678.9" y2="-111.79" xlink:href="#linear-gradient-2"/><linearGradient id="linear-gradient-29" x1="665.96" y1="973.33" x2="665.96" y2="-111.79" xlink:href="#linear-gradient-2"/><linearGradient id="linear-gradient-30" x1="606.27" y1="973.33" x2="606.27" y2="-111.79" xlink:href="#linear-gradient-2"/><linearGradient id="linear-gradient-31" x1="585.78" y1="973.33" x2="585.78" y2="-111.79" xlink:href="#linear-gradient-2"/><linearGradient id="linear-gradient-32" x1="891.06" y1="973.33" x2="891.06" y2="-111.79" xlink:href="#linear-gradient-2"/><linearGradient id="linear-gradient-33" x1="684.87" y1="973.33" x2="684.87" y2="-111.79" xlink:href="#linear-gradient-2"/><linearGradient id="linear-gradient-34" x1="591.68" y1="973.33" x2="591.68" y2="-111.79" xlink:href="#linear-gradient-2"/><linearGradient id="linear-gradient-35" x1="1039.52" y1="973.33" x2="1039.52" y2="-111.79" xlink:href="#linear-gradient-2"/><linearGradient id="linear-gradient-36" x1="812.8" y1="973.33" x2="812.8" y2="-111.79" xlink:href="#linear-gradient-2"/><linearGradient id="linear-gradient-37" x1="1034.46" y1="973.33" x2="1034.46" y2="-111.79" xlink:href="#linear-gradient-2"/><linearGradient id="linear-gradient-38" x1="1075.99" y1="973.33" x2="1075.99" y2="-111.79" xlink:href="#linear-gradient-2"/><linearGradient id="linear-gradient-39" x1="292.49" y1="973.33" x2="292.49" y2="-111.79" xlink:href="#linear-gradient-2"/><linearGradient id="linear-gradient-40" x1="73" y1="973.33" x2="73" y2="-111.79" xlink:href="#linear-gradient-2"/><linearGradient id="linear-gradient-41" x1="419.01" y1="973.33" x2="419.01" y2="-111.79" xlink:href="#linear-gradient-2"/><linearGradient id="linear-gradient-42" x1="874.6" y1="973.33" x2="874.6" y2="-111.79" gradientTransform="matrix(1, 0, 0, 1, 0, 0)" xlink:href="#linear-gradient"/><linearGradient id="linear-gradient-43" x1="125.21" y1="973.33" x2="125.21" y2="-111.79" xlink:href="#linear-gradient-2"/><linearGradient id="linear-gradient-44" x1="158.38" y1="973.33" x2="158.38" y2="-111.79" xlink:href="#linear-gradient-2"/><linearGradient id="linear-gradient-45" x1="499.1" y1="973.33" x2="499.1" y2="-111.79" xlink:href="#linear-gradient-2"/><linearGradient id="linear-gradient-46" x1="941.26" y1="973.33" x2="941.26" y2="-111.79" xlink:href="#linear-gradient-2"/><linearGradient id="linear-gradient-47" x1="427.72" y1="973.33" x2="427.72" y2="-111.79" xlink:href="#linear-gradient-2"/><linearGradient id="linear-gradient-48" x1="1041.12" y1="973.33" x2="1041.12" y2="-111.79" xlink:href="#linear-gradient-2"/><linearGradient id="linear-gradient-49" x1="9.01" y1="973.33" x2="9.01" y2="-111.79" xlink:href="#linear-gradient-2"/><linearGradient id="linear-gradient-50" x1="460.7" y1="973.33" x2="460.7" y2="-111.79" xlink:href="#linear-gradient-2"/><linearGradient id="linear-gradient-51" x1="306.28" y1="973.33" x2="306.28" y2="-111.79" xlink:href="#linear-gradient-2"/><linearGradient id="linear-gradient-52" x1="429.91" y1="973.33" x2="429.91" y2="-111.79" xlink:href="#linear-gradient-2"/><linearGradient id="linear-gradient-53" x1="183.07" y1="973.33" x2="183.07" y2="-111.79" xlink:href="#linear-gradient-2"/><linearGradient id="linear-gradient-54" x1="104.13" y1="973.33" x2="104.13" y2="-111.79" xlink:href="#linear-gradient-2"/><linearGradient id="linear-gradient-55" x1="270.07" y1="973.33" x2="270.07" y2="-111.79" xlink:href="#linear-gradient-2"/><linearGradient id="linear-gradient-56" x1="34.52" y1="973.33" x2="34.52" y2="-111.79" xlink:href="#linear-gradient-2"/><linearGradient id="linear-gradient-57" x1="315.45" y1="973.33" x2="315.45" y2="-111.79" xlink:href="#linear-gradient-2"/><linearGradient id="linear-gradient-58" x1="717.67" y1="973.33" x2="717.67" y2="-111.79" xlink:href="#linear-gradient-2"/><linearGradient id="linear-gradient-59" x1="585.79" y1="973.33" x2="585.79" y2="-111.79" xlink:href="#linear-gradient-2"/><linearGradient id="linear-gradient-60" x1="350.59" y1="973.33" x2="350.59" y2="-111.79" xlink:href="#linear-gradient-2"/><linearGradient id="linear-gradient-61" x1="477.8" y1="973.33" x2="477.8" y2="-111.79" xlink:href="#linear-gradient-2"/><linearGradient id="linear-gradient-62" x1="464.93" y1="973.33" x2="464.93" y2="-111.79" xlink:href="#linear-gradient-2"/><linearGradient id="linear-gradient-63" x1="807.43" y1="973.33" x2="807.43" y2="-111.79" xlink:href="#linear-gradient-2"/><linearGradient id="linear-gradient-64" x1="620.7" y1="973.33" x2="620.7" y2="-111.79" xlink:href="#linear-gradient-2"/><linearGradient id="linear-gradient-65" x1="668.25" y1="973.33" x2="668.25" y2="-111.79" xlink:href="#linear-gradient-2"/><linearGradient id="linear-gradient-66" x1="851.64" y1="973.33" x2="851.64" y2="-111.79" xlink:href="#linear-gradient-2"/><linearGradient id="linear-gradient-67" x1="947.95" y1="973.33" x2="947.95" y2="-111.79" xlink:href="#linear-gradient-2"/><linearGradient id="linear-gradient-68" x1="896.37" y1="973.33" x2="896.37" y2="-111.79" xlink:href="#linear-gradient-2"/><linearGradient id="linear-gradient-69" x1="713.44" y1="973.33" x2="713.44" y2="-111.79" xlink:href="#linear-gradient-2"/><linearGradient id="linear-gradient-70" x1="934.01" y1="973.33" x2="934.01" y2="-111.79" xlink:href="#linear-gradient-2"/><linearGradient id="linear-gradient-71" x1="968.18" y1="973.33" x2="968.18" y2="-111.79" xlink:href="#linear-gradient-2"/><linearGradient id="linear-gradient-72" x1="1023.93" y1="973.33" x2="1023.93" y2="-111.79" xlink:href="#linear-gradient-2"/><linearGradient id="linear-gradient-73" x1="1048.28" y1="973.33" x2="1048.28" y2="-111.79" xlink:href="#linear-gradient-2"/><linearGradient id="linear-gradient-74" x1="976.89" y1="973.33" x2="976.89" y2="-111.79" xlink:href="#linear-gradient-2"/><linearGradient id="linear-gradient-75" x1="66.87" y1="973.33" x2="66.87" y2="-111.79" xlink:href="#linear-gradient-2"/><linearGradient id="linear-gradient-76" x1="88.96" y1="973.33" x2="88.96" y2="-111.79" xlink:href="#linear-gradient-2"/></defs><g class="cls-2"><rect class="cls-3" width="1080" height="1920" transform="translate(1080 1920) rotate(180)"/><path class="cls-4" d="M220.34,24.72h0a4.2,4.2,0,1,0,4.19-4.45,4.36,4.36,0,0,0-4.19,4.45Z"/><path class="cls-5" d="M310.32,97h0a2.1,2.1,0,1,0,2.1-2.23,2.17,2.17,0,0,0-2.1,2.23Z"/><path class="cls-6" d="M306.12,203.27h0a2.1,2.1,0,1,0,2.1-2.23,2.17,2.17,0,0,0-2.1,2.23Z"/><path class="cls-7" d="M196.18,237.21h0c0,5.45,4.3,10,9.45,10s9.45-4.55,9.45-10-4.3-10-9.45-10-9.45,4.55-9.45,10Z"/><path class="cls-8" d="M139.86,293.58h0a4.21,4.21,0,1,0,4.2-4.45,4.35,4.35,0,0,0-4.2,4.45Z"/><path class="cls-9" d="M35.63,294.92h0a4.21,4.21,0,1,0,4.2-4.45,4.36,4.36,0,0,0-4.2,4.45Z"/><path class="cls-10" d="M176,360.9h0a4.21,4.21,0,1,0,4.2-4.45,4.36,4.36,0,0,0-4.2,4.45Z"/><path class="cls-11" d="M97.61,360.9h0a2.1,2.1,0,1,0,2.1-2.22,2.18,2.18,0,0,0-2.1,2.22Z"/><path class="cls-12" d="M58.25,374.8h0a4.36,4.36,0,0,0,4.2,4.45,4.05,4.05,0,0,0,2.71-1.06,3.41,3.41,0,0,0,1-5.51,4.14,4.14,0,0,0-3.67-2.33,4.36,4.36,0,0,0-4.2,4.45Z"/><path class="cls-13" d="M123.93,428.32h0a2.1,2.1,0,1,0,2.1-2.23,2.18,2.18,0,0,0-2.1,2.23Z"/><path class="cls-14" d="M213.45,455.47h0a2.1,2.1,0,1,0,2.1-2.23,2.18,2.18,0,0,0-2.1,2.23Z"/><path class="cls-15" d="M293.92,493.65h0a2.1,2.1,0,1,0,2.1-2.22,2.17,2.17,0,0,0-2.1,2.22Z"/><path class="cls-16" d="M139.22,509.67h0a3.15,3.15,0,1,0,3.15-3.33,3.27,3.27,0,0,0-3.15,3.33Z"/><path class="cls-17" d="M108.34,517.94h0a2.1,2.1,0,1,0,2.1-2.23,2.18,2.18,0,0,0-2.1,2.23Z"/><path class="cls-18" d="M-1.13,565.22h0A3.28,3.28,0,0,0,2,568.56a3.35,3.35,0,0,0,0-6.68,3.27,3.27,0,0,0-3.15,3.34Z"/><path class="cls-19" d="M76,577.69h0a3.16,3.16,0,1,0,3.15-3.34A3.27,3.27,0,0,0,76,577.69Z"/><path class="cls-20" d="M140,620.31h0a2.18,2.18,0,0,0,2.1,2.22,2,2,0,0,0,1.21-.42,2.12,2.12,0,0,0,2,1.43,2.23,2.23,0,0,0,0-4.45,2,2,0,0,0-1.22.42,2.11,2.11,0,0,0-2-1.43,2.18,2.18,0,0,0-2.1,2.23Z"/><path class="cls-21" d="M4.77,782.69h0a2.18,2.18,0,0,0,2.1,2.23,2.23,2.23,0,0,0,0-4.45,2.18,2.18,0,0,0-2.1,2.22Z"/><path class="cls-22" d="M111,848.64a1.88,1.88,0,0,0,2.6.8,2.11,2.11,0,0,0,.76-2.76,1.87,1.87,0,0,0-2.61-.8,2.1,2.1,0,0,0-.75,2.76Z"/><path class="cls-23" d="M470.26,646.21h0a3.16,3.16,0,1,0,3.15-3.34,3.28,3.28,0,0,0-3.15,3.34Z"/><path class="cls-24" d="M384.36,675.51h0a2.1,2.1,0,1,0,4.2,0,2.8,2.8,0,0,0-.08-.59,2.32,2.32,0,0,0,.83-1.77,2.1,2.1,0,1,0-4.2,0,2.8,2.8,0,0,0,.08.59,2.32,2.32,0,0,0-.83,1.77Z"/><path class="cls-25" d="M378.41,769.12h0a2.1,2.1,0,1,0,2.1-2.22,2.19,2.19,0,0,0-2.1,2.22Z"/><path class="cls-26" d="M326.71,784.45h0a2.1,2.1,0,1,0,2.1-2.22,2.18,2.18,0,0,0-2.1,2.22Z"/><path class="cls-27" d="M440.62,795.58h0a3.16,3.16,0,1,0,3.15-3.34,3.28,3.28,0,0,0-3.15,3.34Z"/><path class="cls-28" d="M318.9,43.19a1.31,1.31,0,0,0,1.82.56,1.46,1.46,0,0,0,.53-1.93,1.31,1.31,0,0,0-1.82-.56,1.46,1.46,0,0,0-.53,1.93Z"/><path class="cls-29" d="M707.17,536.44a2.82,2.82,0,0,0,3.91,1.2,3.16,3.16,0,0,0,1.13-4.14,2.81,2.81,0,0,0-3.91-1.2,3.16,3.16,0,0,0-1.13,4.14Z"/><path class="cls-30" d="M676.37,511.9a2.82,2.82,0,0,0,3.92,1.2,3.16,3.16,0,0,0,1.13-4.14,2.82,2.82,0,0,0-3.91-1.2,3.18,3.18,0,0,0-1.14,4.14Z"/><path class="cls-31" d="M663.43,445.79a2.82,2.82,0,0,0,3.92,1.2,3.17,3.17,0,0,0,1.13-4.14,2.81,2.81,0,0,0-3.91-1.2,3.18,3.18,0,0,0-1.14,4.14Z"/><path class="cls-32" d="M603.74,450.59a2.82,2.82,0,0,0,3.91,1.2,3.17,3.17,0,0,0,1.14-4.14,2.82,2.82,0,0,0-3.91-1.21,3.18,3.18,0,0,0-1.14,4.15Z"/><path class="cls-33" d="M583.26,436.37a2.82,2.82,0,0,0,3.91,1.2,3.18,3.18,0,0,0,1.14-4.14,2.82,2.82,0,0,0-3.92-1.2,3.16,3.16,0,0,0-1.13,4.14Z"/><path class="cls-34" d="M888.53,783a2.82,2.82,0,0,0,3.91,1.2,3.17,3.17,0,0,0,1.14-4.14,2.82,2.82,0,0,0-3.91-1.21,3.18,3.18,0,0,0-1.14,4.15Z"/><path class="cls-35" d="M682.35,364.09a2.81,2.81,0,0,0,3.91,1.2,3.16,3.16,0,0,0,1.13-4.14,2.81,2.81,0,0,0-3.91-1.2,3.16,3.16,0,0,0-1.13,4.14Z"/><path class="cls-36" d="M589.16,236a2.81,2.81,0,0,0,3.91,1.21,3.17,3.17,0,0,0,1.14-4.14,2.81,2.81,0,0,0-3.91-1.21,3.16,3.16,0,0,0-1.14,4.14Z"/><path class="cls-37" d="M1031.84,69h0a7.69,7.69,0,1,0,7.68-8.14,8,8,0,0,0-7.68,8.14Z"/><path class="cls-38" d="M809.92,192.58h0a2.88,2.88,0,1,0,2.88-3.05,3,3,0,0,0-2.88,3.05Z"/><path class="cls-39" d="M1030.62,264.85h0a3.85,3.85,0,1,0,3.84-4.07,4,4,0,0,0-3.84,4.07Z"/><path class="cls-40" d="M1078.51,428.4h0a3.18,3.18,0,0,0-1.14-4.15,2.81,2.81,0,0,0-3.91,1.21,3.17,3.17,0,0,0,1.14,4.14,2.82,2.82,0,0,0,3.91-1.2Z"/><path class="cls-41" d="M297.92,74.08a7.45,7.45,0,0,0-10.86,0,8.56,8.56,0,0,0,0,11.5,7.44,7.44,0,0,0,10.86,0,8.56,8.56,0,0,0,0-11.5Z"/><path class="cls-42" d="M74,264.83a1.31,1.31,0,0,0-1.91,0,1.49,1.49,0,0,0,0,2,1.3,1.3,0,0,0,1.9,0,1.51,1.51,0,0,0,0-2Z"/><path class="cls-43" d="M421.05,4.8a2.79,2.79,0,0,0-4.08,0,3.22,3.22,0,0,0,0,4.32,2.79,2.79,0,0,0,4.08,0,3.22,3.22,0,0,0,0-4.32Z"/><path class="cls-44" d="M876.64,37.62a2.78,2.78,0,0,0-4.07,0,3.22,3.22,0,0,0,0,4.32,2.78,2.78,0,0,0,4.07,0,3.22,3.22,0,0,0,0-4.32Z"/><path class="cls-45" d="M126.63,278.07a2,2,0,0,0-2.85,0,2.24,2.24,0,0,0,0,3,1.94,1.94,0,0,0,2.85,0,2.24,2.24,0,0,0,0-3Z"/><path class="cls-46" d="M159.33,256.34a1.3,1.3,0,0,0-1.9,0,1.49,1.49,0,0,0,0,2,1.3,1.3,0,0,0,1.9,0,1.49,1.49,0,0,0,0-2Z"/><path class="cls-47" d="M501.14-5.09a2.78,2.78,0,0,0-4.07,0,3.21,3.21,0,0,0,0,4.31,2.78,2.78,0,0,0,4.07,0,3.19,3.19,0,0,0,0-4.31Z"/><path class="cls-48" d="M944,63.94a3.72,3.72,0,0,0-5.43,0,4.28,4.28,0,0,0,0,5.75,3.72,3.72,0,0,0,5.43,0,4.26,4.26,0,0,0,0-5.75Z"/><path class="cls-49" d="M429.75,87.73a2.78,2.78,0,0,0-4.07,0,3.22,3.22,0,0,0,0,4.32,2.78,2.78,0,0,0,4.07,0,3.2,3.2,0,0,0,0-4.32Z"/><path class="cls-50" d="M1044.3,8.27a4.35,4.35,0,0,0-6.37,0,5,5,0,0,0,0,6.74,4.37,4.37,0,0,0,6.37,0,5,5,0,0,0,0-6.74Z"/><path class="cls-51" d="M10,472.25a1.3,1.3,0,0,0-1.9,0,1.49,1.49,0,0,0,0,2,1.3,1.3,0,0,0,1.9,0,1.49,1.49,0,0,0,0-2Z"/><path class="cls-52" d="M462.73,105.1a2.78,2.78,0,0,0-4.07,0,3.21,3.21,0,0,0,0,4.31,2.78,2.78,0,0,0,4.07,0,3.21,3.21,0,0,0,0-4.31Z"/><path class="cls-53" d="M308.18,286.19a2.6,2.6,0,0,0-3.8,0,3,3,0,0,0,0,4,2.6,2.6,0,0,0,3.8,0,3,3,0,0,0,0-4Z"/><path class="cls-54" d="M432.63,187.34a3.72,3.72,0,0,0-5.43,0,4.27,4.27,0,0,0,0,5.76,3.72,3.72,0,0,0,5.43,0,4.29,4.29,0,0,0,0-5.76Z"/><path class="cls-55" d="M184,411.26a1.31,1.31,0,0,0-1.91,0,1.49,1.49,0,0,0,0,2,1.31,1.31,0,0,0,1.91,0,1.51,1.51,0,0,0,0-2Z"/><path class="cls-56" d="M105.09,508.52a1.31,1.31,0,0,0-1.91,0,1.49,1.49,0,0,0,0,2,1.31,1.31,0,0,0,1.91,0,1.51,1.51,0,0,0,0-2Z"/><path class="cls-57" d="M271.56,927.08a2,2,0,0,0-3,0,2.31,2.31,0,0,0,0,3.14,2,2,0,0,0,3,0,2.33,2.33,0,0,0,0-3.14Z"/><path class="cls-58" d="M36.89,596.63a3.26,3.26,0,0,0-4.75,0,3.74,3.74,0,0,0,0,5,3.26,3.26,0,0,0,4.75,0,3.74,3.74,0,0,0,0-5Z"/><path class="cls-59" d="M316.81,400.84a1.86,1.86,0,0,0-2.72,0,2.13,2.13,0,0,0,0,2.87,1.86,1.86,0,0,0,2.72,0,2.13,2.13,0,0,0,0-2.87Z"/><path class="cls-60" d="M723.77,144.28a8.36,8.36,0,0,0-12.21,0,9.63,9.63,0,0,0,0,12.94,8.38,8.38,0,0,0,12.21,0,9.63,9.63,0,0,0,0-12.94Z"/><path class="cls-61" d="M591.9,310a8.38,8.38,0,0,0-12.22,0,9.63,9.63,0,0,0,0,12.94,8.39,8.39,0,0,0,12.22,0,9.64,9.64,0,0,0,0-13Z"/><path class="cls-62" d="M351.94,523.27a1.86,1.86,0,0,0-2.71,0,2.12,2.12,0,0,0,0,2.88,1.86,1.86,0,0,0,2.71,0,2.12,2.12,0,0,0,0-2.88Z"/><path class="cls-63" d="M479.84,443.28a2.79,2.79,0,0,0-4.08,0,3.19,3.19,0,0,0,0,4.31,2.78,2.78,0,0,0,4.07,0,3.21,3.21,0,0,0,0-4.31Z"/><path class="cls-64" d="M467,469.86a2.78,2.78,0,0,0-4.07,0,3.18,3.18,0,0,0,0,4.31,2.78,2.78,0,0,0,4.07,0,3.21,3.21,0,0,0,0-4.31Z"/><path class="cls-65" d="M810,412a3.47,3.47,0,0,0-5.09,0,4,4,0,0,0,0,5.39,3.49,3.49,0,0,0,5.09,0,4,4,0,0,0,0-5.39Z"/><path class="cls-66" d="M622.74,781.87a2.79,2.79,0,0,0-4.07,0,3.2,3.2,0,0,0,0,4.32,2.78,2.78,0,0,0,4.07,0,3.21,3.21,0,0,0,0-4.31Z"/><path class="cls-67" d="M670.28,748.37a2.78,2.78,0,0,0-4.07,0,3.21,3.21,0,0,0,0,4.31,2.78,2.78,0,0,0,4.07,0,3.19,3.19,0,0,0,0-4.31Z"/><path class="cls-68" d="M853,620.25a1.86,1.86,0,0,0-2.72,0,2.13,2.13,0,0,0,0,2.87,1.86,1.86,0,0,0,2.72,0,2.13,2.13,0,0,0,0-2.87Z"/><path class="cls-69" d="M950,574.21a2.78,2.78,0,0,0-4.07,0,3.18,3.18,0,0,0,0,4.31,2.78,2.78,0,0,0,4.07,0,3.21,3.21,0,0,0,0-4.31Z"/><path class="cls-70" d="M898.4,631.71a2.78,2.78,0,0,0-4.07,0,3.21,3.21,0,0,0,0,4.31,2.78,2.78,0,0,0,4.07,0,3.18,3.18,0,0,0,0-4.31Z"/><path class="cls-71" d="M718.87,836.22a7.45,7.45,0,0,0-10.86,0,8.57,8.57,0,0,0,0,11.51,7.45,7.45,0,0,0,10.86,0,8.59,8.59,0,0,0,0-11.51Z"/><path class="cls-72" d="M936,648a2.78,2.78,0,0,0-4.07,0,3.21,3.21,0,0,0,0,4.31,2.78,2.78,0,0,0,4.07,0,3.18,3.18,0,0,0,0-4.31Z"/><path class="cls-73" d="M970.22,708.43a2.79,2.79,0,0,0-4.08,0,3.22,3.22,0,0,0,0,4.32,2.79,2.79,0,0,0,4.08,0,3.22,3.22,0,0,0,0-4.32Z"/><path class="cls-74" d="M1026,689.73a2.78,2.78,0,0,0-4.07,0,3.21,3.21,0,0,0,0,4.31,2.78,2.78,0,0,0,4.07,0,3.18,3.18,0,0,0,0-4.31Z"/><path class="cls-75" d="M1050.31,698.54a2.78,2.78,0,0,0-4.07,0,3.21,3.21,0,0,0,0,4.31,2.78,2.78,0,0,0,4.07,0,3.19,3.19,0,0,0,0-4.31Z"/><path class="cls-76" d="M978.92,791.36a2.78,2.78,0,0,0-4.07,0,3.22,3.22,0,0,0,0,4.32,2.79,2.79,0,0,0,4.07,0,3.2,3.2,0,0,0,0-4.32Z"/><path class="cls-77" d="M72.48,787.18h0a2.88,2.88,0,0,0-3.57-2.08,2.58,2.58,0,0,0-.54.23,3.82,3.82,0,0,0-4.44-2,4.13,4.13,0,0,0-2.62,5,3.83,3.83,0,0,0,4.75,2.77,3.67,3.67,0,0,0,1.62-1,2.8,2.8,0,0,0,2.84.78,3.11,3.11,0,0,0,2-3.78Z"/><path class="cls-78" d="M97.26,648.91h0a8.66,8.66,0,0,0-10.7-6.24A9.32,9.32,0,0,0,80.67,654a8.65,8.65,0,0,0,10.7,6.24,9.34,9.34,0,0,0,5.89-11.34Z"/></g></svg>