<svg id="Layer_1" data-name="Layer 1" xmlns="http://www.w3.org/2000/svg" xmlns:xlink="http://www.w3.org/1999/xlink" viewBox="0 0 847.49 945.27"><defs><style>.cls-1{fill:url(#linear-gradient);}</style><linearGradient id="linear-gradient" x1="529.64" y1="363.15" x2="337.85" y2="587.29" gradientUnits="userSpaceOnUse"><stop offset="0" stop-color="#fff"/><stop offset="0.18" stop-color="#fff" stop-opacity="0.75"/><stop offset="0.4" stop-color="#fff" stop-opacity="0.49"/><stop offset="0.6" stop-color="#fff" stop-opacity="0.28"/><stop offset="0.77" stop-color="#fff" stop-opacity="0.13"/><stop offset="0.9" stop-color="#fff" stop-opacity="0.03"/><stop offset="0.99" stop-color="#fff" stop-opacity="0"/></linearGradient></defs><path class="cls-1" d="M563.77,900c17.45-3.57,26.88-7,43.16,4l15.64,10.49c5.87,3.94,9.64,12.19,15.13,15.34,6.22,3.56,14.69,1.88,21.38,4.43,6,2.28,10.63,7.2,16.59,9.52,13,5.06,26.91-3.51,39.28-10a147,147,0,0,1,84.75-15.84c9.7,1.12,19.74,3.18,29,.18,15.95-5.14,23.91-26.7,15.13-41-4.26-6.94-11.31-11.63-18.27-15.86a362.19,362.19,0,0,0-61.36-29.75c12.4-23.38-1.94-56.54-27.47-63.52,8.06-8.12,4.71-22.33-2.53-31.19s-17.51-14.92-24.53-24c-6.15-7.91-9.94-18.18-18.52-23.35-5.4-3.25-11.92-4-17.8-6.21-18.15-7-27.1-27-34.22-45.07-2.22-5.63-4.46-11.39-4.74-17.44-.26-5.62,1.2-11.17,1.48-16.78,1.31-25.57-20.68-45.58-40.73-61.52,19.66-40.66,10.83-93.3-21-125.31-14.92-15-33.78-25.32-52.36-35.44-33.72-18.38-68.5-38.62-105.67-49.21-15.88-4.53-25.39-5.51-38.23-17.23-12.65-11.54-23.07-25.33-32.21-39.75-55-86.7-57.07-186.72-153.58-246.69-60.18-37.39-155.49-50.6-168,37C11,157.34-10.79,244.46,6.28,338.11c9.31,51.1,32.33,136,69.35,174.82,21.06,22.07,47.55,28.33,76.21,30.72,36.56,3.05,72.15,11.09,108.44,18.87,29.37,6.3,59.46,12.89,84.72,29.14,34.19,22,54.87,58.38,69.6,97,4.37,11.45,8.22,23.11,11.73,34.64,15.39,50.42,28.23,103.93,62.8,143.71C507.85,888.56,535.81,905.73,563.77,900Z"/></svg>