<svg id="Layer_1" data-name="Layer 1" xmlns="http://www.w3.org/2000/svg" xmlns:xlink="http://www.w3.org/1999/xlink" viewBox="0 0 688.67 751"><defs><style>.cls-1{fill:url(#linear-gradient);}</style><linearGradient id="linear-gradient" x1="-7.04" y1="77.38" x2="482.88" y2="540.92" gradientUnits="userSpaceOnUse"><stop offset="0" stop-color="#fff"/><stop offset="0.08" stop-color="#fff" stop-opacity="0.89"/><stop offset="0.34" stop-color="#fff" stop-opacity="0.58"/><stop offset="0.57" stop-color="#fff" stop-opacity="0.33"/><stop offset="0.77" stop-color="#fff" stop-opacity="0.15"/><stop offset="0.91" stop-color="#fff" stop-opacity="0.04"/><stop offset="1" stop-color="#fff" stop-opacity="0"/></linearGradient></defs><path class="cls-1" d="M315.88,93.3c-69.56,73.2-98.45,182.79-74,280.77-41.64,6.65-56.35,59-56.74,101.13-.08,8.59-.16,17.86-5.28,24.76-4.56,6.15-12.15,9.06-19.05,12.4-40.92,19.84-49.56,56.89-57.29,98-.83,4.42-1.82,9-4.54,12.58a30.74,30.74,0,0,1-6.28,5.7l-25.35,19c-3.09,2.32-6.22,4.68-8.57,7.74-2.11,2.74-3.51,6-5.48,8.79-6.38,9.2-17.63,13.34-27.77,18.06-12.82,6-23,15.72-25.1,30.35-.9,6.4-.63,14,4.5,17.92,2.87,2.2,6.64,2.73,10.24,3a128.1,128.1,0,0,0,31.72-1.25c11.51-1.89,23.7-5.29,34.46-.82,10.36,4.31,16.85,15.07,27.76,18.29,10.34,3.06,23.74-.74,34.74-.29,29.91,1.22,61.62-4.44,89.82-14.3,12.07-4.21,23.95-9.52,36.66-10.93,9.75-1.07,19.6.2,29.4-.12,46.4-1.51,84.6-38.22,107.62-78.54,3.9-6.83,8-14.31,15.2-17.52,6.82-3.05,14.69-1.48,22-.08a358,358,0,0,0,99.16,4.78c12.12-1.11,24.6-3,34.92-9.44,10.49-6.57,17.69-17.2,24.06-27.81a395.24,395.24,0,0,0,55.13-228c-1.83-27.58-6.32-56.74,5.46-81.75,5.89-12.5,15.52-23.05,20.69-35.86,8.79-21.75,3.53-46.35-1.84-69.19C665.55,110.2,643.56,4.82,557.31.43,467.87-4.13,378.14,27.78,315.88,93.3Z"/></svg>