<svg id="Layer_1" data-name="Layer 1" xmlns="http://www.w3.org/2000/svg" xmlns:xlink="http://www.w3.org/1999/xlink" viewBox="0 0 944.08 599.14"><defs><style>.cls-1{fill:url(#linear-gradient);}</style><linearGradient id="linear-gradient" x1="523.45" y1="1.17" x2="454.43" y2="603.92" gradientUnits="userSpaceOnUse"><stop offset="0" stop-color="#fff"/><stop offset="0.19" stop-color="#fff" stop-opacity="0.72"/><stop offset="0.39" stop-color="#fff" stop-opacity="0.46"/><stop offset="0.56" stop-color="#fff" stop-opacity="0.26"/><stop offset="0.71" stop-color="#fff" stop-opacity="0.12"/><stop offset="0.83" stop-color="#fff" stop-opacity="0.03"/><stop offset="0.91" stop-color="#fff" stop-opacity="0"/></linearGradient></defs><path class="cls-1" d="M305.43,520.89c.76.21,1.52.44,2.28.7,9.05,3.09,16.5,9.61,25.06,13.9,19.21,9.63,41.38,7.38,62.15,8.62,9.77.59,21.65,1,30.39,6,7.4,4.17,12.07,11.11,19.74,15.2,41.71,22.28,96.87,28.12,143.11,22.2,25.92-3.31,52.63-11.16,70.85-29.9-1.13,1.16,49.22,28,54.11,29.91,18.24,7.06,36.92,11.46,56.39,11.59,39.86.28,82.71-.1,117.6-22.1,17.75-11.2,30.81-27.41,39.33-46.45,8.31-18.55,18.2-33.73,17.62-55.27-.59-21.7-9.71-42.14-18.68-61.91-5.79-12.75-11.67-25.67-20.56-36.49-18.84-23-48.33-33.52-74.77-47.06-20-10.24-41.33-24.71-51.14-45.73-4.85-10.37-2.28-15.73-1.67-26.14.68-11.79-3.41-25.06-7.6-35.94-9.62-24.94-28.81-46.77-53.78-56.29-4.61-1.76-41.13-16.52-41.71-3.13C677.71,80.15,603.58,5.73,522.51.27c-38.76-2.62-77.44,14.25-105.44,41.19s-45.91,63.17-55.3,100.87c-.7,2.82-1.44,5.8-3.48,7.87-2.62,2.67-6.67,3.15-10.39,3.5q-32.64,3.08-65.09,8c-17.08,2.57-35,5.92-48.22,17.06-5.51,4.64-9.92,10.43-15.21,15.33-7.35,6.81-16.22,11.73-25,16.49-22.76,12.26-46.2,24.07-65.21,41.6S95.79,294.19,97,320c-22.88,9.62-45.65,20.58-64.08,37.2S.63,396.93,0,421.74C-.79,454.78,22.23,485,51.13,501s62.81,20.2,95.83,21.48c44.9,1.73,89.83-1.33,134.73-3.09C289.64,519.05,297.79,518.81,305.43,520.89Z"/></svg>