<svg id="Layer_1" data-name="Layer 1" xmlns="http://www.w3.org/2000/svg" xmlns:xlink="http://www.w3.org/1999/xlink" viewBox="0 0 744.91 428.93"><defs><style>.cls-1{fill:url(#linear-gradient);}</style><linearGradient id="linear-gradient" x1="346.39" y1="-9.88" x2="395.91" y2="417.56" gradientUnits="userSpaceOnUse"><stop offset="0" stop-color="#fff"/><stop offset="0.06" stop-color="#fff" stop-opacity="0.92"/><stop offset="0.33" stop-color="#fff" stop-opacity="0.6"/><stop offset="0.57" stop-color="#fff" stop-opacity="0.34"/><stop offset="0.76" stop-color="#fff" stop-opacity="0.16"/><stop offset="0.91" stop-color="#fff" stop-opacity="0.04"/><stop offset="1" stop-color="#fff" stop-opacity="0"/></linearGradient></defs><path class="cls-1" d="M741.92,150.71A70.21,70.21,0,0,1,725.1,178.2c-10,10.06-21.79,16.05-33.57,21.91-4.49,2.23-9.15,4.57-12.9,9.07-3.31,3.95-5.65,9.24-8.08,14.32-21.88,45.78-51.45,64.75-84.22,98.51-4.23,4.36-8.61,8.92-11.58,15-3.65,7.45-4.69,16.12-7.13,24.28-5.57,18.63-18.49,34.07-32.34,43.43C521.17,414.24,506,418.36,491,421.88c-28.52,6.65-54.91,7.23-83.62,7-13.86-.1-27.49-2.56-41.14-4.64-8.94-1.36-20-.27-26.75-7.27a18.44,18.44,0,0,0-3.83-3.56c-2-1.14-4.48-1.07-6.8-1.05a94.31,94.31,0,0,1-60.9-21.93c-8.86-7.45-16.37-16.59-26.19-22.72-32.1-20-72.54-2.33-106.82-13.47-11.78-3.83-22.38-12.05-34.75-12.51a4.83,4.83,0,0,1-3.06-.76c-1-.85-1-2.32-1-3.62q.28-8.64.9-17.29c-25.16-2.53-51.46,3.29-76-2.2-6.24-1.4-12.7-3.52-16.95-8.3-13.86-15.59,11.31-35.28,25-38,12.14-2.37,26.29.56,35.7-7.46,4.79-4.09,7.2-10.23,9.57-16.06C82,229.2,93,209.16,112.3,202.61c7.39-2.51,15.58-2.84,22.31-6.78,6-3.54,10.17-9.59,15.86-13.65,9.48-6.77,24-8.16,34.8-4.11,9.31,3.48,22,21.9,31.15,13,5.87-5.74,9.84-13.07,14.21-20,7-11.17,21-22,25.15-34.34,4.38-12.84-.67-26.59,7-39.29,2.88-4.78,7-8.66,11.3-12.27A180.22,180.22,0,0,1,339.36,50c10.83-3.2,22.34-3.06,32.77-6.27C385.56,39.62,398.28,29.3,410.79,23,453.32,1.36,498-5,537.37,3.86,553.88,7.56,570,14.14,582,27.13,592.17,38,599.19,53.19,610.17,62.37c7,5.85,15.15,8.9,23.12,11.85C648,79.66,664.86,82,678.21,89c8,4.17,14.88,12,23.35,13.58,9.12,1.66,18.65-4.35,27.38-1.64,10.91,3.39,17.31,20.63,15.74,36.66A62.24,62.24,0,0,1,741.92,150.71Z"/></svg>